<?xml version="1.0" encoding="utf-8" standalone="no"?>
<!DOCTYPE svg PUBLIC "-//W3C//DTD SVG 1.1//EN"
  "http://www.w3.org/Graphics/SVG/1.1/DTD/svg11.dtd">
<svg xmlns:xlink="http://www.w3.org/1999/xlink" width="603.727831pt" height="296.46pt" viewBox="0 0 603.727831 296.46" xmlns="http://www.w3.org/2000/svg" version="1.1">
 <metadata>
  <rdf:RDF xmlns:dc="http://purl.org/dc/elements/1.1/" xmlns:cc="http://creativecommons.org/ns#" xmlns:rdf="http://www.w3.org/1999/02/22-rdf-syntax-ns#">
   <cc:Work>
    <dc:type rdf:resource="http://purl.org/dc/dcmitype/StillImage"/>
    <dc:date>2026-08-09T21:02:55.975023</dc:date>
    <dc:format>image/svg+xml</dc:format>
    <dc:creator>
     <cc:Agent>
      <dc:title>Matplotlib v3.10.7+dfsg1, https://matplotlib.org/</dc:title>
     </cc:Agent>
    </dc:creator>
   </cc:Work>
  </rdf:RDF>
 </metadata>
 <defs>
  <style type="text/css">*{stroke-linejoin: round; stroke-linecap: butt}</style>
 </defs>
 <g id="figure_1">
  <g id="patch_1">
   <path d="M 0 296.46 
L 603.727831 296.46 
L 603.727831 0 
L 0 0 
z
" style="fill: #ffffff"/>
  </g>
  <g id="axes_1">
   <g id="patch_2">
    <path d="M 37.470313 257.76 
L 291.106676 257.76 
L 291.106676 36 
L 37.470313 36 
z
" style="fill: #ffffff"/>
   </g>
   <g id="matplotlib.axis_1">
    <g id="xtick_1">
     <g id="line2d_1">
      <path d="M 48.999238 257.76 
L 48.999238 36 
" clip-path="url(#p0b93bea817)" style="fill: none; stroke: #b0b0b0; stroke-opacity: 0.3; stroke-width: 0.8; stroke-linecap: square"/>
     </g>
     <g id="line2d_2">
      <defs>
       <path id="ma0b14acebe" d="M 0 0 
L 0 3.5 
" style="stroke: #000000; stroke-width: 0.8"/>
      </defs>
      <g>
       <use xlink:href="#ma0b14acebe" x="48.999238" y="257.76" style="stroke: #000000; stroke-width: 0.8"/>
      </g>
     </g>
     <g id="text_1">
      <!-- -4 -->
      <g transform="translate(44.489082 272.719375) scale(0.1 -0.1)">
       <defs>
        <path id="NotoSansCJKjp-Regular-2d" d="M 294 1568 
L 1933 1568 
L 1933 2016 
L 294 2016 
L 294 1568 
z
" transform="scale(0.015625)"/>
        <path id="NotoSansCJKjp-Regular-34" d="M 2176 0 
L 2726 0 
L 2726 1293 
L 3354 1293 
L 3354 1760 
L 2726 1760 
L 2726 4691 
L 2080 4691 
L 128 1677 
L 128 1293 
L 2176 1293 
L 2176 0 
z
M 2176 1760 
L 736 1760 
L 1805 3360 
C 1939 3590 2067 3827 2182 4051 
L 2208 4051 
C 2195 3814 2176 3430 2176 3200 
L 2176 1760 
z
" transform="scale(0.015625)"/>
       </defs>
       <use xlink:href="#NotoSansCJKjp-Regular-2d"/>
       <use xlink:href="#NotoSansCJKjp-Regular-34" transform="translate(34.699997 0)"/>
      </g>
     </g>
    </g>
    <g id="xtick_2">
     <g id="line2d_3">
      <path d="M 87.42899 257.76 
L 87.42899 36 
" clip-path="url(#p0b93bea817)" style="fill: none; stroke: #b0b0b0; stroke-opacity: 0.3; stroke-width: 0.8; stroke-linecap: square"/>
     </g>
     <g id="line2d_4">
      <g>
       <use xlink:href="#ma0b14acebe" x="87.42899" y="257.76" style="stroke: #000000; stroke-width: 0.8"/>
      </g>
     </g>
     <g id="text_2">
      <!-- -3 -->
      <g transform="translate(82.918834 272.719375) scale(0.1 -0.1)">
       <defs>
        <path id="NotoSansCJKjp-Regular-33" d="M 1683 -83 
C 2522 -83 3194 416 3194 1254 
C 3194 1901 2752 2310 2202 2445 
L 2202 2477 
C 2701 2650 3034 3034 3034 3603 
C 3034 4346 2458 4774 1664 4774 
C 1126 4774 710 4538 358 4218 
L 672 3846 
C 941 4115 1267 4301 1645 4301 
C 2138 4301 2438 4006 2438 3558 
C 2438 3053 2112 2662 1139 2662 
L 1139 2214 
C 2227 2214 2598 1843 2598 1274 
C 2598 736 2208 403 1645 403 
C 1114 403 762 659 486 941 
L 186 563 
C 493 224 954 -83 1683 -83 
z
" transform="scale(0.015625)"/>
       </defs>
       <use xlink:href="#NotoSansCJKjp-Regular-2d"/>
       <use xlink:href="#NotoSansCJKjp-Regular-33" transform="translate(34.699997 0)"/>
      </g>
     </g>
    </g>
    <g id="xtick_3">
     <g id="line2d_5">
      <path d="M 125.858742 257.76 
L 125.858742 36 
" clip-path="url(#p0b93bea817)" style="fill: none; stroke: #b0b0b0; stroke-opacity: 0.3; stroke-width: 0.8; stroke-linecap: square"/>
     </g>
     <g id="line2d_6">
      <g>
       <use xlink:href="#ma0b14acebe" x="125.858742" y="257.76" style="stroke: #000000; stroke-width: 0.8"/>
      </g>
     </g>
     <g id="text_3">
      <!-- -2 -->
      <g transform="translate(121.348586 272.719375) scale(0.1 -0.1)">
       <defs>
        <path id="NotoSansCJKjp-Regular-32" d="M 282 0 
L 3232 0 
L 3232 506 
L 1933 506 
C 1696 506 1408 480 1165 461 
C 2266 1504 3008 2458 3008 3398 
C 3008 4230 2477 4774 1638 4774 
C 1043 4774 634 4506 256 4090 
L 595 3757 
C 858 4070 1184 4301 1568 4301 
C 2150 4301 2432 3910 2432 3373 
C 2432 2566 1754 1632 282 346 
L 282 0 
z
" transform="scale(0.015625)"/>
       </defs>
       <use xlink:href="#NotoSansCJKjp-Regular-2d"/>
       <use xlink:href="#NotoSansCJKjp-Regular-32" transform="translate(34.699997 0)"/>
      </g>
     </g>
    </g>
    <g id="xtick_4">
     <g id="line2d_7">
      <path d="M 164.288494 257.76 
L 164.288494 36 
" clip-path="url(#p0b93bea817)" style="fill: none; stroke: #b0b0b0; stroke-opacity: 0.3; stroke-width: 0.8; stroke-linecap: square"/>
     </g>
     <g id="line2d_8">
      <g>
       <use xlink:href="#ma0b14acebe" x="164.288494" y="257.76" style="stroke: #000000; stroke-width: 0.8"/>
      </g>
     </g>
     <g id="text_4">
      <!-- -1 -->
      <g transform="translate(159.778338 272.719375) scale(0.1 -0.1)">
       <defs>
        <path id="NotoSansCJKjp-Regular-31" d="M 563 0 
L 3136 0 
L 3136 486 
L 2195 486 
L 2195 4691 
L 1747 4691 
C 1491 4544 1190 4435 774 4358 
L 774 3987 
L 1613 3987 
L 1613 486 
L 563 486 
L 563 0 
z
" transform="scale(0.015625)"/>
       </defs>
       <use xlink:href="#NotoSansCJKjp-Regular-2d"/>
       <use xlink:href="#NotoSansCJKjp-Regular-31" transform="translate(34.699997 0)"/>
      </g>
     </g>
    </g>
    <g id="xtick_5">
     <g id="line2d_9">
      <path d="M 202.718246 257.76 
L 202.718246 36 
" clip-path="url(#p0b93bea817)" style="fill: none; stroke: #b0b0b0; stroke-opacity: 0.3; stroke-width: 0.8; stroke-linecap: square"/>
     </g>
     <g id="line2d_10">
      <g>
       <use xlink:href="#ma0b14acebe" x="202.718246" y="257.76" style="stroke: #000000; stroke-width: 0.8"/>
      </g>
     </g>
     <g id="text_5">
      <!-- 0 -->
      <g transform="translate(199.943246 272.719375) scale(0.1 -0.1)">
       <defs>
        <path id="NotoSansCJKjp-Regular-30" d="M 1779 -83 
C 2669 -83 3238 723 3238 2362 
C 3238 3987 2669 4774 1779 4774 
C 883 4774 320 3987 320 2362 
C 320 723 883 -83 1779 -83 
z
M 1779 390 
C 1248 390 883 986 883 2362 
C 883 3731 1248 4314 1779 4314 
C 2310 4314 2675 3731 2675 2362 
C 2675 986 2310 390 1779 390 
z
" transform="scale(0.015625)"/>
       </defs>
       <use xlink:href="#NotoSansCJKjp-Regular-30"/>
      </g>
     </g>
    </g>
    <g id="xtick_6">
     <g id="line2d_11">
      <path d="M 241.147998 257.76 
L 241.147998 36 
" clip-path="url(#p0b93bea817)" style="fill: none; stroke: #b0b0b0; stroke-opacity: 0.3; stroke-width: 0.8; stroke-linecap: square"/>
     </g>
     <g id="line2d_12">
      <g>
       <use xlink:href="#ma0b14acebe" x="241.147998" y="257.76" style="stroke: #000000; stroke-width: 0.8"/>
      </g>
     </g>
     <g id="text_6">
      <!-- 1 -->
      <g transform="translate(238.372998 272.719375) scale(0.1 -0.1)">
       <use xlink:href="#NotoSansCJKjp-Regular-31"/>
      </g>
     </g>
    </g>
    <g id="xtick_7">
     <g id="line2d_13">
      <path d="M 279.577751 257.76 
L 279.577751 36 
" clip-path="url(#p0b93bea817)" style="fill: none; stroke: #b0b0b0; stroke-opacity: 0.3; stroke-width: 0.8; stroke-linecap: square"/>
     </g>
     <g id="line2d_14">
      <g>
       <use xlink:href="#ma0b14acebe" x="279.577751" y="257.76" style="stroke: #000000; stroke-width: 0.8"/>
      </g>
     </g>
     <g id="text_7">
      <!-- 2 -->
      <g transform="translate(276.802751 272.719375) scale(0.1 -0.1)">
       <use xlink:href="#NotoSansCJKjp-Regular-32"/>
      </g>
     </g>
    </g>
    <g id="text_8">
     <!-- x -->
     <g transform="translate(161.798651 286.969375) scale(0.1 -0.1)">
      <defs>
       <path id="NotoSansCJKjp-Regular-78" d="M 96 0 
L 710 0 
L 1178 813 
C 1299 1024 1408 1235 1530 1434 
L 1562 1434 
C 1696 1235 1824 1024 1939 813 
L 2451 0 
L 3091 0 
L 1946 1754 
L 3002 3475 
L 2394 3475 
L 1965 2714 
C 1856 2515 1760 2330 1658 2131 
L 1626 2131 
C 1510 2330 1389 2515 1286 2714 
L 819 3475 
L 186 3475 
L 1242 1811 
L 96 0 
z
" transform="scale(0.015625)"/>
      </defs>
      <use xlink:href="#NotoSansCJKjp-Regular-78"/>
     </g>
    </g>
   </g>
   <g id="matplotlib.axis_2">
    <g id="ytick_1">
     <g id="line2d_15">
      <path d="M 37.470313 237.6 
L 291.106676 237.6 
" clip-path="url(#p0b93bea817)" style="fill: none; stroke: #b0b0b0; stroke-opacity: 0.3; stroke-width: 0.8; stroke-linecap: square"/>
     </g>
     <g id="line2d_16">
      <defs>
       <path id="md02205c5fb" d="M 0 0 
L -3.5 0 
" style="stroke: #000000; stroke-width: 0.8"/>
      </defs>
      <g>
       <use xlink:href="#md02205c5fb" x="37.470313" y="237.6" style="stroke: #000000; stroke-width: 0.8"/>
      </g>
     </g>
     <g id="text_9">
      <!-- -2 -->
      <g transform="translate(21.45 241.579687) scale(0.1 -0.1)">
       <use xlink:href="#NotoSansCJKjp-Regular-2d"/>
       <use xlink:href="#NotoSansCJKjp-Regular-32" transform="translate(34.699997 0)"/>
      </g>
     </g>
    </g>
    <g id="ytick_2">
     <g id="line2d_17">
      <path d="M 37.470313 197.28 
L 291.106676 197.28 
" clip-path="url(#p0b93bea817)" style="fill: none; stroke: #b0b0b0; stroke-opacity: 0.3; stroke-width: 0.8; stroke-linecap: square"/>
     </g>
     <g id="line2d_18">
      <g>
       <use xlink:href="#md02205c5fb" x="37.470313" y="197.28" style="stroke: #000000; stroke-width: 0.8"/>
      </g>
     </g>
     <g id="text_10">
      <!-- 0 -->
      <g transform="translate(24.920313 201.259687) scale(0.1 -0.1)">
       <use xlink:href="#NotoSansCJKjp-Regular-30"/>
      </g>
     </g>
    </g>
    <g id="ytick_3">
     <g id="line2d_19">
      <path d="M 37.470313 156.96 
L 291.106676 156.96 
" clip-path="url(#p0b93bea817)" style="fill: none; stroke: #b0b0b0; stroke-opacity: 0.3; stroke-width: 0.8; stroke-linecap: square"/>
     </g>
     <g id="line2d_20">
      <g>
       <use xlink:href="#md02205c5fb" x="37.470313" y="156.96" style="stroke: #000000; stroke-width: 0.8"/>
      </g>
     </g>
     <g id="text_11">
      <!-- 2 -->
      <g transform="translate(24.920313 160.939687) scale(0.1 -0.1)">
       <use xlink:href="#NotoSansCJKjp-Regular-32"/>
      </g>
     </g>
    </g>
    <g id="ytick_4">
     <g id="line2d_21">
      <path d="M 37.470313 116.64 
L 291.106676 116.64 
" clip-path="url(#p0b93bea817)" style="fill: none; stroke: #b0b0b0; stroke-opacity: 0.3; stroke-width: 0.8; stroke-linecap: square"/>
     </g>
     <g id="line2d_22">
      <g>
       <use xlink:href="#md02205c5fb" x="37.470313" y="116.64" style="stroke: #000000; stroke-width: 0.8"/>
      </g>
     </g>
     <g id="text_12">
      <!-- 4 -->
      <g transform="translate(24.920313 120.619687) scale(0.1 -0.1)">
       <use xlink:href="#NotoSansCJKjp-Regular-34"/>
      </g>
     </g>
    </g>
    <g id="ytick_5">
     <g id="line2d_23">
      <path d="M 37.470313 76.32 
L 291.106676 76.32 
" clip-path="url(#p0b93bea817)" style="fill: none; stroke: #b0b0b0; stroke-opacity: 0.3; stroke-width: 0.8; stroke-linecap: square"/>
     </g>
     <g id="line2d_24">
      <g>
       <use xlink:href="#md02205c5fb" x="37.470313" y="76.32" style="stroke: #000000; stroke-width: 0.8"/>
      </g>
     </g>
     <g id="text_13">
      <!-- 6 -->
      <g transform="translate(24.920313 80.299688) scale(0.1 -0.1)">
       <defs>
        <path id="NotoSansCJKjp-Regular-36" d="M 1926 -83 
C 2656 -83 3277 531 3277 1440 
C 3277 2426 2765 2912 1971 2912 
C 1606 2912 1197 2701 909 2349 
C 934 3802 1466 4294 2118 4294 
C 2400 4294 2682 4154 2861 3936 
L 3194 4294 
C 2931 4576 2579 4774 2093 4774 
C 1184 4774 358 4077 358 2240 
C 358 691 1030 -83 1926 -83 
z
M 922 1882 
C 1229 2317 1587 2477 1875 2477 
C 2445 2477 2720 2074 2720 1440 
C 2720 800 2374 378 1926 378 
C 1338 378 986 909 922 1882 
z
" transform="scale(0.015625)"/>
       </defs>
       <use xlink:href="#NotoSansCJKjp-Regular-36"/>
      </g>
     </g>
    </g>
    <g id="ytick_6">
     <g id="line2d_25">
      <path d="M 37.470313 36 
L 291.106676 36 
" clip-path="url(#p0b93bea817)" style="fill: none; stroke: #b0b0b0; stroke-opacity: 0.3; stroke-width: 0.8; stroke-linecap: square"/>
     </g>
     <g id="line2d_26">
      <g>
       <use xlink:href="#md02205c5fb" x="37.470313" y="36" style="stroke: #000000; stroke-width: 0.8"/>
      </g>
     </g>
     <g id="text_14">
      <!-- 8 -->
      <g transform="translate(24.920313 39.979688) scale(0.1 -0.1)">
       <defs>
        <path id="NotoSansCJKjp-Regular-38" d="M 1792 -83 
C 2669 -83 3258 448 3258 1126 
C 3258 1773 2880 2125 2470 2362 
L 2470 2394 
C 2746 2611 3091 3034 3091 3526 
C 3091 4250 2605 4762 1805 4762 
C 1075 4762 518 4282 518 3571 
C 518 3078 813 2726 1152 2490 
L 1152 2464 
C 723 2234 294 1792 294 1165 
C 294 442 922 -83 1792 -83 
z
M 2112 2547 
C 1555 2765 1050 3014 1050 3571 
C 1050 4026 1363 4326 1798 4326 
C 2298 4326 2592 3962 2592 3494 
C 2592 3149 2426 2829 2112 2547 
z
M 1798 352 
C 1235 352 813 717 813 1216 
C 813 1664 1082 2035 1459 2278 
C 2125 2010 2701 1779 2701 1146 
C 2701 678 2342 352 1798 352 
z
" transform="scale(0.015625)"/>
       </defs>
       <use xlink:href="#NotoSansCJKjp-Regular-38"/>
      </g>
     </g>
    </g>
    <g id="text_15">
     <!-- y -->
     <g transform="translate(15.109375 149.484688) rotate(-90) scale(0.1 -0.1)">
      <defs>
       <path id="NotoSansCJKjp-Regular-79" d="M 646 -1498 
C 1338 -1498 1702 -973 1946 -294 
L 3251 3475 
L 2682 3475 
L 2054 1549 
C 1965 1235 1862 883 1773 563 
L 1741 563 
C 1619 890 1504 1242 1395 1549 
L 691 3475 
L 83 3475 
L 1478 -6 
L 1402 -269 
C 1254 -698 1011 -1018 621 -1018 
C 525 -1018 422 -986 352 -960 
L 237 -1427 
C 346 -1472 486 -1498 646 -1498 
z
" transform="scale(0.015625)"/>
      </defs>
      <use xlink:href="#NotoSansCJKjp-Regular-79"/>
     </g>
    </g>
   </g>
   <g id="line2d_27">
    <path d="M 48.999238 196.910757 
L 75.582225 196.54256 
L 94.652628 196.068729 
L 110.255685 195.462094 
L 122.969287 194.749258 
L 133.949216 193.912311 
L 143.195473 192.996252 
L 151.863838 191.912339 
L 159.376421 190.753434 
L 166.311113 189.462756 
L 172.667914 188.056583 
L 178.446824 186.559889 
L 184.225734 184.820325 
L 189.426753 183.014618 
L 194.049881 181.190988 
L 198.673009 179.134233 
L 203.296137 176.814551 
L 207.341374 174.542826 
L 211.386612 172.018933 
L 215.431849 169.21488 
L 218.899195 166.56494 
L 222.366541 163.66479 
L 225.833887 160.490804 
L 229.301233 157.017127 
L 232.768579 153.215462 
L 236.235925 149.054839 
L 239.703271 144.501366 
L 243.170617 139.517948 
L 246.060072 135.007495 
L 248.949527 130.144836 
L 251.838982 124.902467 
L 254.728437 119.250739 
L 257.617892 113.157685 
L 260.507347 106.588844 
L 263.396802 99.507064 
L 266.286257 91.87229 
L 269.175712 83.641342 
L 272.065167 74.767665 
L 274.954622 65.201071 
L 277.844077 54.887453 
L 279.577751 48.316629 
L 279.577751 48.316629 
" clip-path="url(#p0b93bea817)" style="fill: none; stroke: #000000; stroke-width: 2.5; stroke-linecap: square"/>
   </g>
   <g id="line2d_28">
    <path d="M 48.999238 257.76 
L 279.577751 136.8 
L 279.577751 136.8 
" clip-path="url(#p0b93bea817)" style="fill: none; stroke: #1f77b4; stroke-width: 1.5; stroke-linecap: square"/>
   </g>
   <g id="line2d_29">
    <path d="M 48.999238 96.48 
L 54.778148 105.346799 
L 59.979167 112.937143 
L 65.180186 120.158227 
L 70.381205 127.010051 
L 75.582225 133.492616 
L 80.783244 139.60592 
L 85.984263 145.349964 
L 90.607391 150.145786 
L 95.230519 154.649846 
L 99.853647 158.862145 
L 104.476775 162.782683 
L 109.099903 166.41146 
L 113.723031 169.748476 
L 118.346159 172.793732 
L 122.969287 175.547226 
L 127.014524 177.717198 
L 131.059761 179.663791 
L 135.104998 181.387004 
L 139.150235 182.886838 
L 143.195473 184.163292 
L 147.24071 185.216367 
L 151.285947 186.046063 
L 155.331184 186.652378 
L 159.376421 187.035315 
L 163.421658 187.194871 
L 167.466895 187.131049 
L 171.512132 186.843846 
L 175.557369 186.333265 
L 179.602606 185.599304 
L 183.647843 184.641963 
L 187.69308 183.461243 
L 191.738317 182.057143 
L 195.783554 180.429664 
L 199.828791 178.578805 
L 203.874028 176.504567 
L 207.919265 174.206949 
L 212.542394 171.307574 
L 217.165522 168.116438 
L 221.78865 164.633542 
L 226.411778 160.858884 
L 231.034906 156.792465 
L 235.658034 152.434286 
L 240.281162 147.784345 
L 244.90429 142.842643 
L 250.105309 136.934484 
L 255.306328 130.657064 
L 260.507347 124.010384 
L 265.708366 116.994444 
L 270.909385 109.609244 
L 276.110404 101.854784 
L 279.577751 96.48 
L 279.577751 96.48 
" clip-path="url(#p0b93bea817)" style="fill: none; stroke: #ff7f0e; stroke-width: 1.5; stroke-linecap: square"/>
   </g>
   <g id="line2d_30">
    <path d="M 54.601112 297.46 
L 58.245494 288.971136 
L 62.290731 280.135209 
L 66.335968 271.892161 
L 70.381205 264.218479 
L 74.426442 257.09065 
L 77.893789 251.397712 
L 81.361135 246.073725 
L 84.828481 241.103882 
L 88.295827 236.473377 
L 91.763173 232.1674 
L 95.230519 228.171145 
L 98.697865 224.469805 
L 102.165211 221.048571 
L 106.210448 217.391402 
L 110.255685 214.071821 
L 114.300922 211.066315 
L 118.346159 208.35137 
L 122.391396 205.903473 
L 126.436633 203.69911 
L 131.059761 201.44788 
L 135.682889 199.448924 
L 140.883908 197.457943 
L 146.662819 195.507329 
L 153.01962 193.600508 
L 162.265876 191.091016 
L 176.713151 187.187502 
L 183.069952 185.241469 
L 188.848862 183.240811 
L 194.049881 181.193068 
L 198.673009 179.134334 
L 203.296137 176.814551 
L 207.341374 174.543007 
L 211.386612 172.021209 
L 215.431849 169.225647 
L 219.477086 166.132804 
L 223.522323 162.719169 
L 226.989669 159.520047 
L 230.457015 156.053157 
L 233.924361 152.303693 
L 237.391707 148.256846 
L 240.859053 143.897809 
L 244.326399 139.211775 
L 247.793745 134.183937 
L 251.261091 128.799487 
L 254.728437 123.043617 
L 258.195783 116.901521 
L 261.663129 110.35839 
L 265.130475 103.399417 
L 269.175712 94.735284 
L 273.220949 85.461476 
L 277.266186 75.554479 
L 279.577751 69.6 
L 279.577751 69.6 
" clip-path="url(#p0b93bea817)" style="fill: none; stroke: #2ca02c; stroke-width: 1.5; stroke-linecap: square"/>
   </g>
   <g id="line2d_31">
    <path d="M 48.999238 268.512 
L 51.888693 261.248904 
L 54.778148 254.589904 
L 57.667603 248.494991 
L 60.557058 242.925996 
L 63.446513 237.846535 
L 66.335968 233.221964 
L 69.225423 229.01933 
L 72.114878 225.207321 
L 75.004334 221.756221 
L 77.893789 218.637856 
L 80.783244 215.825551 
L 83.672699 213.294081 
L 86.562154 211.019617 
L 90.0295 208.597958 
L 93.496846 206.477723 
L 96.964192 204.625127 
L 100.431538 203.008841 
L 104.476775 201.383299 
L 108.522012 199.997813 
L 113.14514 198.659285 
L 118.346159 197.404466 
L 124.125069 196.246308 
L 131.637652 194.990444 
L 144.351255 193.14666 
L 156.486966 191.298378 
L 164.57744 189.830967 
L 171.512132 188.337032 
L 177.291042 186.879643 
L 183.069952 185.189939 
L 188.270971 183.437339 
L 192.894099 181.667672 
L 197.517227 179.671846 
L 202.140355 177.42089 
L 206.185592 175.21647 
L 210.230829 172.767355 
L 214.276067 170.046399 
L 218.321304 167.023499 
L 221.78865 164.16695 
L 225.255996 161.041129 
L 228.723342 157.621027 
L 232.190688 153.879516 
L 235.658034 149.787229 
L 239.12538 145.312436 
L 242.592726 140.420929 
L 246.060072 135.075896 
L 248.949527 130.246821 
L 251.838982 125.051013 
L 254.728437 119.462671 
L 257.617892 113.454527 
L 260.507347 106.997798 
L 263.396802 100.062132 
L 266.286257 92.61557 
L 269.175712 84.624485 
L 272.065167 76.053546 
L 274.954622 66.865658 
L 277.844077 57.021923 
L 279.577751 50.784 
L 279.577751 50.784 
" clip-path="url(#p0b93bea817)" style="fill: none; stroke: #d62728; stroke-width: 1.5; stroke-linecap: square"/>
   </g>
   <g id="line2d_32">
    <path d="M 48.999238 186.592 
L 51.888693 188.134231 
L 55.356039 189.70052 
L 58.823385 190.997959 
L 62.290731 192.065098 
L 66.335968 193.063584 
L 70.381205 193.839917 
L 75.004334 194.504292 
L 80.205353 195.023689 
L 85.984263 195.380082 
L 92.918955 195.576549 
L 101.009429 195.572151 
L 110.255685 195.341534 
L 120.657723 194.854866 
L 131.059761 194.143505 
L 140.883908 193.242872 
L 149.552274 192.224783 
L 157.064857 191.134202 
L 163.999549 189.91905 
L 170.35635 188.595008 
L 176.13526 187.185696 
L 181.91417 185.547684 
L 187.115189 183.847389 
L 192.316208 181.90068 
L 196.939336 179.934649 
L 201.562464 177.717289 
L 205.607701 175.545771 
L 209.652938 173.133207 
L 213.698176 170.452842 
L 217.743413 167.474949 
L 221.210759 164.660722 
L 224.678105 161.580774 
L 228.145451 158.210014 
L 231.612797 154.520986 
L 235.080143 150.48364 
L 238.547489 146.065093 
L 242.014835 141.229365 
L 245.482181 135.937082 
L 248.371636 131.147131 
L 251.261091 125.983228 
L 254.150546 120.416214 
L 257.040001 114.414673 
L 259.929456 107.944757 
L 262.818911 100.970009 
L 265.708366 93.451166 
L 268.597821 85.345952 
L 271.487276 76.608854 
L 274.376731 67.19089 
L 277.266186 57.039355 
L 279.577751 48.352 
L 279.577751 48.352 
" clip-path="url(#p0b93bea817)" style="fill: none; stroke: #9467bd; stroke-width: 1.5; stroke-linecap: square"/>
   </g>
   <g id="patch_3">
    <path d="M 37.470313 257.76 
L 37.470313 36 
" style="fill: none; stroke: #000000; stroke-width: 0.8; stroke-linejoin: miter; stroke-linecap: square"/>
   </g>
   <g id="patch_4">
    <path d="M 291.106676 257.76 
L 291.106676 36 
" style="fill: none; stroke: #000000; stroke-width: 0.8; stroke-linejoin: miter; stroke-linecap: square"/>
   </g>
   <g id="patch_5">
    <path d="M 37.470313 257.76 
L 291.106676 257.76 
" style="fill: none; stroke: #000000; stroke-width: 0.8; stroke-linejoin: miter; stroke-linecap: square"/>
   </g>
   <g id="patch_6">
    <path d="M 37.470313 36 
L 291.106676 36 
" style="fill: none; stroke: #000000; stroke-width: 0.8; stroke-linejoin: miter; stroke-linecap: square"/>
   </g>
   <g id="text_16">
    <!-- (a) $e^x$ 用幂级数逼近（截断项数越多越精确） -->
    <g transform="translate(46.208494 30) scale(0.12 -0.12)">
     <defs>
      <path id="NotoSansCJKjp-Regular-28" d="M 1530 -1254 
L 1888 -1094 
C 1338 -186 1075 902 1075 1990 
C 1075 3072 1338 4154 1888 5069 
L 1530 5235 
C 941 4275 589 3245 589 1990 
C 589 730 941 -301 1530 -1254 
z
" transform="scale(0.015625)"/>
      <path id="NotoSansCJKjp-Regular-61" d="M 1389 -83 
C 1818 -83 2208 141 2541 416 
L 2560 416 
L 2611 0 
L 3091 0 
L 3091 2138 
C 3091 3002 2739 3565 1888 3565 
C 1325 3565 838 3315 525 3110 
L 749 2707 
C 1024 2893 1389 3078 1792 3078 
C 2362 3078 2509 2650 2509 2202 
C 1030 2035 378 1658 378 902 
C 378 275 806 -83 1389 -83 
z
M 1555 390 
C 1210 390 941 544 941 941 
C 941 1389 1338 1677 2509 1811 
L 2509 845 
C 2170 544 1888 390 1555 390 
z
" transform="scale(0.015625)"/>
      <path id="NotoSansCJKjp-Regular-29" d="M 634 -1254 
C 1222 -301 1574 730 1574 1990 
C 1574 3245 1222 4275 634 5235 
L 269 5069 
C 819 4154 1094 3072 1094 1990 
C 1094 902 819 -186 269 -1094 
L 634 -1254 
z
" transform="scale(0.015625)"/>
      <path id="NotoSansCJKjp-Regular-20" transform="scale(0.015625)"/>
      <path id="Cmmi10-65" d="M 1288 -72 
Q 981 -72 751 87 
Q 522 247 401 517 
Q 281 788 281 1088 
Q 281 1544 511 1945 
Q 741 2347 1134 2587 
Q 1528 2828 1978 2828 
Q 2253 2828 2458 2686 
Q 2663 2544 2663 2278 
Q 2663 1909 2369 1729 
Q 2075 1550 1706 1508 
Q 1338 1466 891 1466 
L 872 1466 
Q 769 1084 769 813 
Q 769 528 900 312 
Q 1031 97 1300 97 
Q 1681 97 2032 272 
Q 2384 447 2606 756 
Q 2625 775 2656 775 
Q 2688 775 2720 739 
Q 2753 703 2753 672 
Q 2753 647 2741 634 
Q 2506 306 2109 117 
Q 1713 -72 1288 -72 
z
M 909 1631 
Q 1281 1631 1597 1665 
Q 1913 1700 2169 1839 
Q 2425 1978 2425 2272 
Q 2425 2391 2359 2480 
Q 2294 2569 2189 2616 
Q 2084 2663 1972 2663 
Q 1700 2663 1483 2516 
Q 1266 2369 1125 2133 
Q 984 1897 909 1631 
z
" transform="scale(0.015625)"/>
      <path id="Cmmi10-78" d="M 500 184 
Q 613 97 819 97 
Q 1019 97 1172 289 
Q 1325 481 1381 709 
L 1672 1844 
Q 1741 2153 1741 2266 
Q 1741 2425 1652 2544 
Q 1563 2663 1403 2663 
Q 1200 2663 1022 2536 
Q 844 2409 722 2214 
Q 600 2019 550 1819 
Q 538 1778 500 1778 
L 422 1778 
Q 372 1778 372 1838 
L 372 1856 
Q 434 2094 584 2320 
Q 734 2547 951 2687 
Q 1169 2828 1416 2828 
Q 1650 2828 1839 2703 
Q 2028 2578 2106 2363 
Q 2216 2559 2386 2693 
Q 2556 2828 2759 2828 
Q 2897 2828 3040 2779 
Q 3184 2731 3275 2631 
Q 3366 2531 3366 2381 
Q 3366 2219 3261 2101 
Q 3156 1984 2994 1984 
Q 2891 1984 2822 2050 
Q 2753 2116 2753 2216 
Q 2753 2350 2845 2451 
Q 2938 2553 3066 2572 
Q 2950 2663 2747 2663 
Q 2541 2663 2389 2472 
Q 2238 2281 2175 2047 
L 1894 916 
Q 1825 659 1825 494 
Q 1825 331 1917 214 
Q 2009 97 2163 97 
Q 2463 97 2698 361 
Q 2934 625 3009 941 
Q 3022 978 3059 978 
L 3138 978 
Q 3163 978 3178 961 
Q 3194 944 3194 922 
Q 3194 916 3188 903 
Q 3097 522 2806 225 
Q 2516 -72 2150 -72 
Q 1916 -72 1727 54 
Q 1538 181 1459 397 
Q 1359 209 1182 68 
Q 1006 -72 806 -72 
Q 669 -72 523 -23 
Q 378 25 287 125 
Q 197 225 197 378 
Q 197 528 301 651 
Q 406 775 563 775 
Q 669 775 741 711 
Q 813 647 813 544 
Q 813 409 723 309 
Q 634 209 500 184 
z
" transform="scale(0.015625)"/>
      <path id="NotoSansCJKjp-Regular-7528" d="M 979 4928 
L 979 2605 
C 979 1702 915 570 205 -230 
C 314 -288 506 -448 576 -544 
C 1069 0 1286 736 1382 1453 
L 2989 1453 
L 2989 -454 
L 3475 -454 
L 3475 1453 
L 5203 1453 
L 5203 141 
C 5203 26 5158 -13 5030 -19 
C 4909 -26 4474 -32 4026 -13 
C 4090 -141 4166 -352 4192 -474 
C 4794 -480 5165 -474 5382 -397 
C 5600 -320 5677 -173 5677 141 
L 5677 4928 
L 979 4928 
z
M 1453 4467 
L 2989 4467 
L 2989 3437 
L 1453 3437 
L 1453 4467 
z
M 5203 4467 
L 5203 3437 
L 3475 3437 
L 3475 4467 
L 5203 4467 
z
M 1453 2982 
L 2989 2982 
L 2989 1907 
L 1427 1907 
C 1446 2150 1453 2387 1453 2605 
L 1453 2982 
z
M 5203 2982 
L 5203 1907 
L 3475 1907 
L 3475 2982 
L 5203 2982 
z
" transform="scale(0.015625)"/>
      <path id="NotoSansCJKjp-Regular-5e42" d="M 544 5101 
L 544 3962 
L 998 3962 
L 998 4704 
L 5408 4704 
L 5408 3968 
L 5875 3968 
L 5875 5101 
L 544 5101 
z
M 1683 3379 
L 4685 3379 
L 4685 2995 
L 1683 2995 
L 1683 3379 
z
M 1683 4038 
L 4685 4038 
L 4685 3667 
L 1683 3667 
L 1683 4038 
z
M 1254 4333 
L 1254 2701 
L 2502 2701 
C 2432 2573 2342 2445 2240 2317 
L 410 2317 
L 410 1939 
L 1869 1939 
C 1466 1594 928 1286 250 1056 
C 346 979 474 819 525 710 
C 832 826 1114 954 1370 1094 
L 1370 -288 
L 1811 -288 
L 1811 954 
L 2950 954 
L 2950 -512 
L 3411 -512 
L 3411 954 
L 4557 954 
L 4557 192 
C 4557 122 4538 102 4448 102 
C 4365 96 4077 90 3750 102 
C 3808 -13 3872 -160 3891 -275 
C 4333 -275 4614 -275 4787 -211 
C 4960 -141 5011 -32 5011 186 
L 5011 1107 
C 5286 960 5568 838 5850 755 
C 5920 870 6048 1030 6150 1126 
C 5523 1267 4870 1574 4435 1939 
L 6042 1939 
L 6042 2317 
L 2784 2317 
C 2874 2445 2957 2573 3021 2701 
L 5133 2701 
L 5133 4333 
L 1254 4333 
z
M 2950 1811 
L 2950 1325 
L 1747 1325 
C 2029 1517 2272 1722 2477 1939 
L 3923 1939 
C 4115 1715 4365 1510 4646 1325 
L 3411 1325 
L 3411 1811 
L 2950 1811 
z
" transform="scale(0.015625)"/>
      <path id="NotoSansCJKjp-Regular-7ea7" d="M 269 358 
L 384 -115 
C 992 115 1792 422 2547 723 
L 2451 1139 
C 1651 845 813 538 269 358 
z
M 2560 4960 
L 2560 4512 
L 3277 4512 
C 3200 2458 2976 794 2106 -230 
C 2221 -294 2445 -448 2528 -525 
C 3078 192 3379 1133 3552 2272 
C 3770 1747 4038 1261 4352 832 
C 3968 403 3507 77 3008 -154 
C 3110 -230 3277 -410 3347 -525 
C 3821 -288 4262 38 4646 467 
C 4998 64 5402 -269 5856 -499 
C 5926 -378 6074 -205 6182 -115 
C 5722 102 5306 429 4947 832 
C 5389 1427 5728 2182 5926 3110 
L 5626 3232 
L 5536 3213 
L 4883 3213 
C 5043 3738 5229 4410 5376 4960 
L 2560 4960 
z
M 3757 4512 
L 4774 4512 
C 4621 3910 4429 3238 4269 2790 
L 5370 2790 
C 5210 2170 4960 1645 4646 1197 
C 4218 1779 3885 2470 3661 3194 
C 3706 3610 3731 4051 3757 4512 
z
M 352 2707 
C 448 2752 602 2790 1427 2899 
C 1133 2477 858 2138 736 2003 
C 538 1760 384 1600 243 1574 
C 294 1453 365 1229 390 1133 
C 531 1235 749 1318 2458 1830 
C 2438 1933 2426 2118 2426 2234 
L 1171 1882 
C 1645 2445 2112 3117 2515 3795 
L 2112 4038 
C 1990 3795 1850 3558 1702 3328 
L 858 3238 
C 1248 3795 1632 4499 1926 5178 
L 1485 5382 
C 1210 4602 723 3770 576 3552 
C 429 3334 320 3187 198 3155 
C 256 3034 326 2803 352 2707 
z
" transform="scale(0.015625)"/>
      <path id="NotoSansCJKjp-Regular-6570" d="M 2803 5254 
C 2688 4998 2483 4627 2317 4403 
L 2643 4243 
C 2816 4454 3027 4781 3219 5075 
L 2803 5254 
z
M 531 5075 
C 704 4806 870 4454 928 4230 
L 1312 4397 
C 1248 4627 1075 4973 890 5222 
L 531 5075 
z
M 4026 5382 
C 3846 4243 3507 3162 2970 2490 
C 3078 2413 3283 2246 3360 2163 
C 3533 2394 3693 2669 3827 2970 
C 3974 2310 4160 1709 4410 1184 
C 4090 698 3667 314 3110 19 
C 2912 166 2656 326 2374 480 
C 2598 774 2746 1126 2829 1562 
L 3398 1562 
L 3398 1958 
L 1677 1958 
L 1894 2413 
L 1779 2438 
L 2061 2438 
L 2061 3398 
C 2374 3168 2771 2854 2938 2701 
L 3206 3046 
C 3034 3174 2336 3616 2061 3776 
L 2061 3802 
L 3373 3802 
L 3373 4198 
L 2061 4198 
L 2061 5382 
L 1613 5382 
L 1613 4198 
L 288 4198 
L 288 3802 
L 1485 3802 
C 1171 3379 678 2982 218 2784 
C 314 2694 422 2528 480 2419 
C 870 2637 1293 2989 1613 3373 
L 1613 2477 
L 1440 2515 
L 1178 1958 
L 250 1958 
L 250 1562 
L 979 1562 
C 806 1222 627 896 486 653 
L 909 506 
L 1005 678 
C 1222 589 1434 493 1638 384 
C 1306 147 858 -13 269 -109 
C 352 -211 448 -384 480 -512 
C 1171 -365 1683 -154 2061 160 
C 2355 -13 2611 -186 2810 -352 
L 2963 -192 
C 3046 -301 3136 -448 3174 -531 
C 3802 -205 4288 205 4666 710 
C 4979 192 5370 -224 5862 -512 
C 5939 -378 6093 -192 6208 -96 
C 5690 173 5280 614 4960 1165 
C 5350 1856 5594 2707 5754 3750 
L 6144 3750 
L 6144 4198 
L 4262 4198 
C 4358 4557 4442 4928 4506 5312 
L 4026 5382 
z
M 1478 1562 
L 2368 1562 
C 2285 1216 2157 928 1965 698 
C 1715 819 1459 934 1197 1030 
L 1478 1562 
z
M 4134 3750 
L 5254 3750 
C 5139 2950 4966 2266 4698 1696 
C 4435 2298 4250 3002 4134 3750 
z
" transform="scale(0.015625)"/>
      <path id="NotoSansCJKjp-Regular-903c" d="M 2925 3987 
L 5075 3987 
L 5075 3430 
L 2925 3430 
L 2925 3987 
z
M 2477 4320 
L 2477 3091 
L 5542 3091 
L 5542 4320 
L 2477 4320 
z
M 2029 5114 
L 2029 4723 
L 5965 4723 
L 5965 5114 
L 2029 5114 
z
M 550 4998 
C 902 4787 1318 4461 1498 4211 
L 1843 4531 
C 1638 4774 1229 5088 870 5286 
L 550 4998 
z
M 314 3693 
C 704 3488 1152 3155 1363 2906 
L 1690 3238 
C 1472 3482 1011 3795 627 3994 
L 314 3693 
z
M 2176 2714 
L 2176 550 
L 5805 550 
L 5805 2714 
L 2176 2714 
z
M 1587 2400 
L 282 2400 
L 282 1952 
L 1120 1952 
L 1120 730 
C 832 461 493 198 218 0 
L 461 -467 
C 787 -186 1094 90 1382 365 
C 1792 -141 2374 -365 3219 -397 
C 3936 -422 5293 -410 6003 -378 
C 6029 -237 6106 -19 6163 90 
C 5395 38 3923 19 3213 51 
C 2464 77 1894 301 1587 768 
L 1587 2400 
z
M 2618 1466 
L 3738 1466 
L 3738 896 
L 2618 896 
L 2618 1466 
z
M 4173 1466 
L 5350 1466 
L 5350 896 
L 4173 896 
L 4173 1466 
z
M 2618 2368 
L 3738 2368 
L 3738 1798 
L 2618 1798 
L 2618 2368 
z
M 4173 2368 
L 5350 2368 
L 5350 1798 
L 4173 1798 
L 4173 2368 
z
" transform="scale(0.015625)"/>
      <path id="NotoSansCJKjp-Regular-8fd1" d="M 384 4934 
C 794 4646 1274 4218 1478 3904 
L 1862 4224 
C 1632 4531 1152 4947 730 5222 
L 384 4934 
z
M 5331 5350 
C 4806 5158 3885 4986 3040 4864 
L 2656 4947 
L 2656 3456 
C 2656 2662 2573 1645 1869 890 
C 1984 826 2157 659 2221 557 
C 2886 1267 3072 2240 3110 3040 
L 4429 3040 
L 4429 390 
L 4902 390 
L 4902 3040 
L 6093 3040 
L 6093 3488 
L 3123 3488 
L 3123 4461 
C 4026 4576 5043 4755 5747 4992 
L 5331 5350 
z
M 1677 2848 
L 314 2848 
L 314 2400 
L 1210 2400 
L 1210 768 
C 890 499 518 230 230 32 
L 480 -461 
C 826 -173 1152 102 1459 378 
C 1869 -128 2445 -358 3283 -390 
C 3994 -416 5318 -403 6016 -371 
C 6035 -224 6118 6 6176 115 
C 5414 64 3981 45 3283 77 
C 2541 102 1978 326 1677 794 
L 1677 2848 
z
" transform="scale(0.015625)"/>
      <path id="NotoSansCJKjp-Regular-ff08" d="M 4448 2432 
C 4448 1184 4954 166 5722 -614 
L 6106 -416 
C 5370 346 4915 1293 4915 2432 
C 4915 3571 5370 4518 6106 5280 
L 5722 5478 
C 4954 4698 4448 3680 4448 2432 
z
" transform="scale(0.015625)"/>
      <path id="NotoSansCJKjp-Regular-622a" d="M 4627 5005 
C 4992 4730 5408 4326 5587 4045 
L 5946 4326 
C 5747 4602 5331 4992 4966 5254 
L 4627 5005 
z
M 5331 3027 
C 5146 2438 4890 1875 4563 1382 
C 4429 1914 4326 2566 4262 3315 
L 6074 3315 
L 6074 3750 
L 4230 3750 
C 4198 4256 4186 4800 4192 5370 
L 3712 5370 
C 3718 4813 3731 4269 3763 3750 
L 2259 3750 
L 2259 4378 
L 3430 4378 
L 3430 4781 
L 2259 4781 
L 2259 5376 
L 1805 5376 
L 1805 4781 
L 608 4781 
L 608 4378 
L 1805 4378 
L 1805 3750 
L 333 3750 
L 333 3315 
L 3795 3315 
C 3872 2381 4006 1549 4211 902 
C 3968 608 3699 339 3405 122 
L 3405 288 
L 2426 288 
L 2426 742 
L 3309 742 
L 3309 1062 
L 2426 1062 
L 2426 1498 
L 3309 1498 
L 3309 1818 
L 2426 1818 
L 2426 2234 
L 3411 2234 
L 3411 2611 
L 2515 2611 
L 2784 3117 
L 2349 3219 
C 2298 3053 2202 2816 2106 2611 
L 1363 2611 
C 1459 2790 1549 2970 1626 3155 
L 1210 3270 
C 992 2714 621 2157 211 1792 
C 314 1722 486 1581 563 1510 
C 646 1594 736 1690 819 1798 
L 819 -442 
L 1242 -442 
L 1242 -109 
L 3072 -109 
L 3008 -147 
C 3130 -243 3277 -403 3354 -518 
C 3744 -269 4096 38 4403 390 
C 4666 -179 5011 -512 5453 -512 
C 5920 -512 6093 -211 6176 813 
C 6048 851 5882 954 5773 1056 
C 5741 269 5664 -38 5485 -38 
C 5197 -38 4941 269 4742 806 
C 5184 1414 5530 2125 5773 2893 
L 5331 3027 
z
M 2022 1498 
L 2022 1062 
L 1242 1062 
L 1242 1498 
L 2022 1498 
z
M 2022 1818 
L 1242 1818 
L 1242 2234 
L 2022 2234 
L 2022 1818 
z
M 2022 742 
L 2022 288 
L 1242 288 
L 1242 742 
L 2022 742 
z
" transform="scale(0.015625)"/>
      <path id="NotoSansCJKjp-Regular-65ad" d="M 2963 4947 
C 2874 4614 2701 4115 2560 3802 
L 2854 3699 
C 3002 3987 3194 4448 3347 4832 
L 2963 4947 
z
M 1197 4832 
C 1338 4480 1446 4019 1472 3712 
L 1811 3827 
C 1786 4128 1658 4589 1510 4934 
L 1197 4832 
z
M 2035 5331 
L 2035 3450 
L 1114 3450 
L 1114 3034 
L 1978 3034 
C 1747 2464 1363 1856 998 1523 
C 1069 1421 1165 1248 1210 1126 
C 1510 1414 1805 1888 2035 2381 
L 2035 781 
L 2445 781 
L 2445 2355 
C 2669 2112 2938 1805 3046 1651 
L 3322 1984 
C 3187 2118 2624 2630 2445 2790 
L 2445 3034 
L 3347 3034 
L 3347 3450 
L 2445 3450 
L 2445 5331 
L 2035 5331 
z
M 5709 5274 
C 5306 5069 4602 4864 3955 4723 
L 3616 4826 
L 3616 2586 
C 3616 1952 3578 1216 3283 550 
L 3283 627 
L 947 627 
L 947 5146 
L 518 5146 
L 518 -282 
L 947 -282 
L 947 205 
L 3104 205 
C 3014 51 2899 -96 2771 -237 
C 2886 -294 3053 -461 3117 -570 
C 3955 326 4070 1626 4070 2579 
L 4070 2778 
L 5024 2778 
L 5024 -512 
L 5478 -512 
L 5478 2778 
L 6202 2778 
L 6202 3226 
L 4070 3226 
L 4070 4339 
C 4774 4480 5555 4678 6099 4922 
L 5709 5274 
z
" transform="scale(0.015625)"/>
      <path id="NotoSansCJKjp-Regular-9879" d="M 3955 3200 
L 3955 1850 
C 3955 1178 3782 358 2042 -122 
C 2144 -218 2285 -390 2342 -493 
C 4154 77 4435 1011 4435 1850 
L 4435 3200 
L 3955 3200 
z
M 4410 582 
C 4902 262 5530 -198 5830 -506 
L 6150 -166 
C 5843 134 5203 576 4710 883 
L 4410 582 
z
M 186 1178 
L 307 678 
C 896 877 1677 1146 2426 1402 
L 2362 1818 
L 1581 1581 
L 1581 4160 
L 2323 4160 
L 2323 4621 
L 294 4621 
L 294 4160 
L 1101 4160 
L 1101 1440 
L 186 1178 
z
M 2669 3994 
L 2669 979 
L 3136 979 
L 3136 3558 
L 5222 3558 
L 5222 992 
L 5702 992 
L 5702 3994 
L 4192 3994 
C 4288 4192 4390 4429 4493 4659 
L 6125 4659 
L 6125 5094 
L 2438 5094 
L 2438 4659 
L 3923 4659 
C 3859 4442 3782 4198 3699 3994 
L 2669 3994 
z
" transform="scale(0.015625)"/>
      <path id="NotoSansCJKjp-Regular-8d8a" d="M 5050 5139 
C 5280 4902 5549 4570 5670 4346 
L 6016 4557 
C 5894 4768 5619 5088 5382 5318 
L 5050 5139 
z
M 5632 3443 
C 5491 2963 5293 2496 5050 2074 
C 4947 2554 4870 3162 4826 3853 
L 6144 3853 
L 6144 4262 
L 4800 4262 
C 4787 4614 4781 4986 4781 5376 
L 4326 5376 
C 4333 4992 4346 4621 4358 4262 
L 3200 4262 
L 3200 1414 
L 2643 1114 
L 2854 730 
C 3328 1005 3936 1370 4499 1715 
L 4371 2074 
L 3635 1658 
L 3635 3853 
L 4384 3853 
C 4448 2963 4550 2182 4723 1594 
C 4422 1203 4077 883 3699 666 
C 3789 589 3923 435 3994 326 
C 4320 538 4614 806 4883 1126 
C 5075 691 5318 435 5632 435 
C 6022 435 6170 710 6240 1600 
C 6131 1651 5984 1734 5888 1830 
C 5869 1158 5805 883 5683 883 
C 5498 883 5325 1120 5190 1536 
C 5542 2061 5818 2675 6010 3341 
L 5632 3443 
z
M 646 2483 
C 659 1626 602 557 134 -211 
C 237 -256 390 -397 461 -493 
C 704 -96 851 365 941 838 
C 1434 -122 2234 -346 3648 -346 
L 6010 -346 
C 6035 -205 6125 19 6202 128 
C 5824 115 3936 115 3642 115 
C 2976 115 2451 166 2042 352 
L 2042 1600 
L 2963 1600 
L 2963 2029 
L 2042 2029 
L 2042 2918 
L 3040 2918 
L 3040 3347 
L 1952 3347 
L 1952 4160 
L 2925 4160 
L 2925 4582 
L 1952 4582 
L 1952 5376 
L 1510 5376 
L 1510 4582 
L 525 4582 
L 525 4160 
L 1510 4160 
L 1510 3347 
L 282 3347 
L 282 2918 
L 1606 2918 
L 1606 634 
C 1357 864 1171 1184 1030 1632 
C 1050 1920 1056 2195 1050 2458 
L 646 2483 
z
" transform="scale(0.015625)"/>
      <path id="NotoSansCJKjp-Regular-591a" d="M 2899 5389 
C 2458 4845 1619 4243 461 3840 
C 570 3763 723 3597 794 3482 
C 1120 3610 1427 3757 1709 3910 
C 2106 3706 2554 3424 2835 3187 
C 2086 2778 1222 2483 416 2336 
C 499 2227 602 2035 640 1907 
C 2336 2278 4224 3181 5056 4672 
L 4749 4858 
L 4666 4838 
L 3014 4838 
C 3174 4979 3315 5126 3443 5274 
L 2899 5389 
z
M 3251 3437 
C 2989 3661 2528 3942 2118 4154 
C 2259 4243 2394 4333 2522 4429 
L 4352 4429 
C 4070 4058 3686 3725 3251 3437 
z
M 3936 3194 
C 3443 2586 2464 1920 1114 1498 
C 1216 1414 1350 1242 1408 1126 
C 1798 1267 2157 1421 2490 1587 
C 2925 1344 3418 998 3712 723 
C 2893 288 1901 32 896 -90 
C 979 -198 1069 -390 1107 -525 
C 3194 -224 5190 582 6003 2445 
L 5690 2618 
L 5600 2598 
L 4006 2598 
C 4179 2752 4333 2912 4474 3072 
L 3936 3194 
z
M 4147 973 
C 3853 1242 3360 1574 2925 1818 
C 3123 1933 3309 2054 3488 2182 
L 5325 2182 
C 5043 1696 4634 1293 4147 973 
z
" transform="scale(0.015625)"/>
      <path id="NotoSansCJKjp-Regular-7cbe" d="M 326 4877 
C 493 4435 646 3853 678 3475 
L 1030 3558 
C 986 3942 838 4518 659 4960 
L 326 4877 
z
M 2099 4986 
C 2016 4557 1830 3930 1690 3552 
L 1990 3456 
C 2150 3814 2349 4410 2502 4883 
L 2099 4986 
z
M 262 3226 
L 262 2778 
L 1088 2778 
C 890 2074 531 1229 192 774 
C 269 646 397 435 442 288 
C 704 666 960 1267 1165 1882 
L 1165 -499 
L 1606 -499 
L 1606 2042 
C 1798 1702 2022 1286 2112 1069 
L 2438 1434 
C 2310 1638 1773 2438 1606 2637 
L 1606 2778 
L 2323 2778 
L 2323 3226 
L 1606 3226 
L 1606 5357 
L 1165 5357 
L 1165 3226 
L 262 3226 
z
M 4070 5376 
L 4070 4858 
L 2726 4858 
L 2726 4486 
L 4070 4486 
L 4070 4090 
L 2886 4090 
L 2886 3738 
L 4070 3738 
L 4070 3309 
L 2547 3309 
L 2547 2931 
L 6144 2931 
L 6144 3309 
L 4525 3309 
L 4525 3738 
L 5837 3738 
L 5837 4090 
L 4525 4090 
L 4525 4486 
L 5978 4486 
L 5978 4858 
L 4525 4858 
L 4525 5376 
L 4070 5376 
z
M 5267 2182 
L 5267 1702 
L 3405 1702 
L 3405 2182 
L 5267 2182 
z
M 2944 2547 
L 2944 -506 
L 3405 -506 
L 3405 538 
L 5267 538 
L 5267 -13 
C 5267 -83 5242 -109 5158 -109 
C 5082 -115 4819 -115 4525 -102 
C 4589 -218 4646 -384 4666 -506 
C 5069 -506 5331 -499 5504 -435 
C 5670 -365 5715 -250 5715 -13 
L 5715 2547 
L 2944 2547 
z
M 3405 1357 
L 5267 1357 
L 5267 877 
L 3405 877 
L 3405 1357 
z
" transform="scale(0.015625)"/>
      <path id="NotoSansCJKjp-Regular-786e" d="M 314 5024 
L 314 4582 
L 1107 4582 
C 947 3469 666 2426 173 1747 
C 269 1651 422 1427 474 1331 
C 595 1498 698 1683 800 1882 
L 800 -166 
L 1235 -166 
L 1235 378 
L 2490 378 
L 2490 3117 
L 1267 3117 
C 1395 3578 1498 4070 1574 4582 
L 2707 4582 
L 2707 5024 
L 314 5024 
z
M 1235 2688 
L 2054 2688 
L 2054 806 
L 1235 806 
L 1235 2688 
z
M 4218 1498 
L 3405 1498 
C 3418 1690 3424 1875 3424 2048 
L 3424 2246 
L 4218 2246 
L 4218 1498 
z
M 4640 1498 
L 4640 2246 
L 5472 2246 
L 5472 1498 
L 4640 1498 
z
M 3680 5382 
C 3430 4627 2989 3891 2490 3418 
C 2598 3341 2778 3181 2848 3098 
L 2976 3238 
L 2976 2048 
C 2976 1331 2906 422 2285 -224 
C 2381 -275 2560 -435 2624 -531 
C 3053 -90 3258 499 3354 1075 
L 5472 1075 
L 5472 45 
C 5472 -45 5446 -70 5357 -77 
C 5267 -83 4947 -83 4621 -70 
C 4685 -198 4755 -390 4768 -525 
C 5216 -525 5517 -518 5696 -442 
C 5875 -371 5933 -224 5933 38 
L 5933 3744 
L 4781 3744 
C 4973 4019 5171 4358 5312 4653 
L 4998 4864 
L 4928 4845 
L 3962 4845 
C 4019 4986 4077 5126 4128 5267 
L 3680 5382 
z
M 4218 2630 
L 3424 2630 
L 3424 3328 
L 4218 3328 
L 4218 2630 
z
M 4640 2630 
L 4640 3328 
L 5472 3328 
L 5472 2630 
L 4640 2630 
z
M 3424 3744 
L 3360 3744 
C 3507 3962 3642 4198 3770 4442 
L 4691 4442 
C 4582 4198 4429 3936 4294 3744 
L 3424 3744 
z
" transform="scale(0.015625)"/>
      <path id="NotoSansCJKjp-Regular-ff09" d="M 1952 2432 
C 1952 3680 1446 4698 678 5478 
L 294 5280 
C 1030 4518 1485 3571 1485 2432 
C 1485 1293 1030 346 294 -416 
L 678 -614 
C 1446 166 1952 1184 1952 2432 
z
" transform="scale(0.015625)"/>
     </defs>
     <use xlink:href="#NotoSansCJKjp-Regular-28" transform="translate(0 0.40625)"/>
     <use xlink:href="#NotoSansCJKjp-Regular-61" transform="translate(33.799988 0.40625)"/>
     <use xlink:href="#NotoSansCJKjp-Regular-29" transform="translate(90.099976 0.40625)"/>
     <use xlink:href="#NotoSansCJKjp-Regular-20" transform="translate(123.899963 0.40625)"/>
     <use xlink:href="#Cmmi10-65" transform="translate(146.299957 0.40625)"/>
     <use xlink:href="#Cmmi10-78" transform="translate(199.087614 38.670313) scale(0.7)"/>
     <use xlink:href="#NotoSansCJKjp-Regular-20" transform="translate(245.421012 0.40625)"/>
     <use xlink:href="#NotoSansCJKjp-Regular-7528" transform="translate(267.821006 0.40625)"/>
     <use xlink:href="#NotoSansCJKjp-Regular-5e42" transform="translate(367.820991 0.40625)"/>
     <use xlink:href="#NotoSansCJKjp-Regular-7ea7" transform="translate(467.820975 0.40625)"/>
     <use xlink:href="#NotoSansCJKjp-Regular-6570" transform="translate(567.82096 0.40625)"/>
     <use xlink:href="#NotoSansCJKjp-Regular-903c" transform="translate(667.820945 0.40625)"/>
     <use xlink:href="#NotoSansCJKjp-Regular-8fd1" transform="translate(767.82093 0.40625)"/>
     <use xlink:href="#NotoSansCJKjp-Regular-ff08" transform="translate(867.820914 0.40625)"/>
     <use xlink:href="#NotoSansCJKjp-Regular-622a" transform="translate(967.820899 0.40625)"/>
     <use xlink:href="#NotoSansCJKjp-Regular-65ad" transform="translate(1067.820884 0.40625)"/>
     <use xlink:href="#NotoSansCJKjp-Regular-9879" transform="translate(1167.820869 0.40625)"/>
     <use xlink:href="#NotoSansCJKjp-Regular-6570" transform="translate(1267.820853 0.40625)"/>
     <use xlink:href="#NotoSansCJKjp-Regular-8d8a" transform="translate(1367.820838 0.40625)"/>
     <use xlink:href="#NotoSansCJKjp-Regular-591a" transform="translate(1467.820823 0.40625)"/>
     <use xlink:href="#NotoSansCJKjp-Regular-8d8a" transform="translate(1567.820807 0.40625)"/>
     <use xlink:href="#NotoSansCJKjp-Regular-7cbe" transform="translate(1667.820792 0.40625)"/>
     <use xlink:href="#NotoSansCJKjp-Regular-786e" transform="translate(1767.820777 0.40625)"/>
     <use xlink:href="#NotoSansCJKjp-Regular-ff09" transform="translate(1867.820762 0.40625)"/>
    </g>
   </g>
   <g id="legend_1">
    <g id="patch_7">
     <path d="M 219.906676 253.76 
L 285.506676 253.76 
Q 287.106676 253.76 287.106676 252.16 
L 287.106676 179.76 
Q 287.106676 178.16 285.506676 178.16 
L 219.906676 178.16 
Q 218.306676 178.16 218.306676 179.76 
L 218.306676 252.16 
Q 218.306676 253.76 219.906676 253.76 
z
" style="fill: #ffffff; opacity: 0.8; stroke: #cccccc; stroke-linejoin: miter"/>
    </g>
    <g id="line2d_33">
     <path d="M 221.506676 184.9275 
L 229.506676 184.9275 
L 237.506676 184.9275 
" style="fill: none; stroke: #000000; stroke-width: 2.5; stroke-linecap: square"/>
    </g>
    <g id="text_17">
     <!-- $e^x$（真实） -->
     <g transform="translate(243.906676 187.7275) scale(0.08 -0.08)">
      <defs>
       <path id="NotoSansCJKjp-Regular-771f" d="M 3795 269 
C 4512 13 5242 -301 5683 -525 
L 6086 -198 
C 5606 26 4819 333 4109 576 
L 3795 269 
z
M 365 1094 
L 365 685 
L 6048 685 
L 6048 1094 
L 365 1094 
z
M 1792 2957 
L 4710 2957 
L 4710 2528 
L 1792 2528 
L 1792 2957 
z
M 1792 2221 
L 4710 2221 
L 4710 1786 
L 1792 1786 
L 1792 2221 
z
M 1792 3680 
L 4710 3680 
L 4710 3264 
L 1792 3264 
L 1792 3680 
z
M 2214 563 
C 1805 294 1005 -13 365 -186 
C 467 -275 614 -429 691 -525 
C 1325 -346 2131 -26 2637 288 
L 2214 563 
z
M 1325 4006 
L 1325 1472 
L 5197 1472 
L 5197 4006 
L 3437 4006 
L 3437 4429 
L 5888 4429 
L 5888 4838 
L 3437 4838 
L 3437 5382 
L 2938 5382 
L 2938 4838 
L 544 4838 
L 544 4429 
L 2938 4429 
L 2938 4006 
L 1325 4006 
z
" transform="scale(0.015625)"/>
       <path id="NotoSansCJKjp-Regular-5b9e" d="M 3443 685 
C 4294 365 5146 -77 5664 -474 
L 5958 -96 
C 5427 282 4531 723 3674 1037 
L 3443 685 
z
M 1536 3565 
C 1882 3360 2291 3040 2477 2816 
L 2784 3162 
C 2586 3392 2170 3680 1824 3872 
L 1536 3565 
z
M 896 2566 
C 1261 2368 1690 2048 1894 1818 
L 2189 2182 
C 1978 2406 1542 2701 1184 2886 
L 896 2566 
z
M 576 4646 
L 576 3347 
L 1056 3347 
L 1056 4198 
L 5338 4198 
L 5338 3347 
L 5837 3347 
L 5837 4646 
L 3642 4646 
C 3546 4870 3379 5184 3219 5421 
L 2746 5274 
C 2861 5082 2982 4851 3072 4646 
L 576 4646 
z
M 454 1638 
L 454 1222 
L 2765 1222 
C 2406 602 1747 186 518 -70 
C 621 -179 742 -365 794 -493 
C 2234 -160 2950 397 3315 1222 
L 5984 1222 
L 5984 1638 
L 3462 1638 
C 3648 2259 3693 3002 3718 3878 
L 3219 3878 
C 3194 2970 3155 2234 2950 1638 
L 454 1638 
z
" transform="scale(0.015625)"/>
      </defs>
      <use xlink:href="#Cmmi10-65" transform="translate(0 0.40625)"/>
      <use xlink:href="#Cmmi10-78" transform="translate(52.787656 38.670313) scale(0.7)"/>
      <use xlink:href="#NotoSansCJKjp-Regular-ff08" transform="translate(99.121055 0.40625)"/>
      <use xlink:href="#NotoSansCJKjp-Regular-771f" transform="translate(199.121039 0.40625)"/>
      <use xlink:href="#NotoSansCJKjp-Regular-5b9e" transform="translate(299.121024 0.40625)"/>
      <use xlink:href="#NotoSansCJKjp-Regular-ff09" transform="translate(399.121009 0.40625)"/>
     </g>
    </g>
    <g id="line2d_34">
     <path d="M 221.506676 197.1275 
L 229.506676 197.1275 
L 237.506676 197.1275 
" style="fill: none; stroke: #1f77b4; stroke-width: 1.5; stroke-linecap: square"/>
    </g>
    <g id="text_18">
     <!-- 前2项 -->
     <g transform="translate(243.906676 199.9275) scale(0.08 -0.08)">
      <defs>
       <path id="NotoSansCJKjp-Regular-524d" d="M 3866 3290 
L 3866 666 
L 4314 666 
L 4314 3290 
L 3866 3290 
z
M 5165 3482 
L 5165 90 
C 5165 -6 5133 -32 5030 -32 
C 4922 -38 4576 -38 4186 -26 
C 4256 -154 4333 -358 4358 -486 
C 4851 -493 5178 -480 5370 -403 
C 5568 -326 5638 -192 5638 83 
L 5638 3482 
L 5165 3482 
z
M 4627 5408 
C 4486 5094 4243 4672 4026 4365 
L 2106 4365 
L 2419 4480 
C 2298 4736 2022 5114 1779 5382 
L 1331 5222 
C 1562 4960 1798 4614 1920 4365 
L 339 4365 
L 339 3923 
L 6061 3923 
L 6061 4365 
L 4570 4365 
C 4755 4627 4960 4947 5139 5242 
L 4627 5408 
z
M 2618 1926 
L 2618 1280 
L 1197 1280 
L 1197 1926 
L 2618 1926 
z
M 2618 2304 
L 1197 2304 
L 1197 2938 
L 2618 2938 
L 2618 2304 
z
M 742 3347 
L 742 -480 
L 1197 -480 
L 1197 902 
L 2618 902 
L 2618 45 
C 2618 -38 2592 -64 2502 -64 
C 2419 -70 2125 -70 1798 -58 
C 1862 -179 1933 -365 1965 -486 
C 2394 -486 2682 -480 2854 -403 
C 3034 -333 3085 -205 3085 38 
L 3085 3347 
L 742 3347 
z
" transform="scale(0.015625)"/>
      </defs>
      <use xlink:href="#NotoSansCJKjp-Regular-524d"/>
      <use xlink:href="#NotoSansCJKjp-Regular-32" transform="translate(99.999985 0)"/>
      <use xlink:href="#NotoSansCJKjp-Regular-9879" transform="translate(155.499969 0)"/>
     </g>
    </g>
    <g id="line2d_35">
     <path d="M 221.506676 209.3275 
L 229.506676 209.3275 
L 237.506676 209.3275 
" style="fill: none; stroke: #ff7f0e; stroke-width: 1.5; stroke-linecap: square"/>
    </g>
    <g id="text_19">
     <!-- 前3项 -->
     <g transform="translate(243.906676 212.1275) scale(0.08 -0.08)">
      <use xlink:href="#NotoSansCJKjp-Regular-524d"/>
      <use xlink:href="#NotoSansCJKjp-Regular-33" transform="translate(99.999985 0)"/>
      <use xlink:href="#NotoSansCJKjp-Regular-9879" transform="translate(155.499969 0)"/>
     </g>
    </g>
    <g id="line2d_36">
     <path d="M 221.506676 221.5275 
L 229.506676 221.5275 
L 237.506676 221.5275 
" style="fill: none; stroke: #2ca02c; stroke-width: 1.5; stroke-linecap: square"/>
    </g>
    <g id="text_20">
     <!-- 前4项 -->
     <g transform="translate(243.906676 224.3275) scale(0.08 -0.08)">
      <use xlink:href="#NotoSansCJKjp-Regular-524d"/>
      <use xlink:href="#NotoSansCJKjp-Regular-34" transform="translate(99.999985 0)"/>
      <use xlink:href="#NotoSansCJKjp-Regular-9879" transform="translate(155.499969 0)"/>
     </g>
    </g>
    <g id="line2d_37">
     <path d="M 221.506676 233.7275 
L 229.506676 233.7275 
L 237.506676 233.7275 
" style="fill: none; stroke: #d62728; stroke-width: 1.5; stroke-linecap: square"/>
    </g>
    <g id="text_21">
     <!-- 前6项 -->
     <g transform="translate(243.906676 236.5275) scale(0.08 -0.08)">
      <use xlink:href="#NotoSansCJKjp-Regular-524d"/>
      <use xlink:href="#NotoSansCJKjp-Regular-36" transform="translate(99.999985 0)"/>
      <use xlink:href="#NotoSansCJKjp-Regular-9879" transform="translate(155.499969 0)"/>
     </g>
    </g>
    <g id="line2d_38">
     <path d="M 221.506676 245.9275 
L 229.506676 245.9275 
L 237.506676 245.9275 
" style="fill: none; stroke: #9467bd; stroke-width: 1.5; stroke-linecap: square"/>
    </g>
    <g id="text_22">
     <!-- 前9项 -->
     <g transform="translate(243.906676 248.7275) scale(0.08 -0.08)">
      <defs>
       <path id="NotoSansCJKjp-Regular-39" d="M 1504 -83 
C 2381 -83 3206 646 3206 2547 
C 3206 4038 2528 4774 1626 4774 
C 896 4774 282 4166 282 3251 
C 282 2285 794 1779 1574 1779 
C 1965 1779 2368 2003 2656 2349 
C 2611 896 2086 403 1485 403 
C 1178 403 896 538 691 762 
L 371 397 
C 634 122 992 -83 1504 -83 
z
M 2650 2842 
C 2336 2394 1984 2214 1670 2214 
C 1114 2214 832 2624 832 3251 
C 832 3898 1178 4320 1632 4320 
C 2227 4320 2586 3808 2650 2842 
z
" transform="scale(0.015625)"/>
      </defs>
      <use xlink:href="#NotoSansCJKjp-Regular-524d"/>
      <use xlink:href="#NotoSansCJKjp-Regular-39" transform="translate(99.999985 0)"/>
      <use xlink:href="#NotoSansCJKjp-Regular-9879" transform="translate(155.499969 0)"/>
     </g>
    </g>
   </g>
  </g>
  <g id="axes_2">
   <g id="patch_8">
    <path d="M 341.833949 257.76 
L 595.470312 257.76 
L 595.470312 36 
L 341.833949 36 
z
" style="fill: #ffffff"/>
   </g>
   <g id="matplotlib.axis_3">
    <g id="xtick_8">
     <g id="line2d_39">
      <path d="M 346.326431 257.76 
L 346.326431 36 
" clip-path="url(#p0b4d4038d5)" style="fill: none; stroke: #b0b0b0; stroke-opacity: 0.3; stroke-width: 0.8; stroke-linecap: square"/>
     </g>
     <g id="line2d_40">
      <g>
       <use xlink:href="#ma0b14acebe" x="346.326431" y="257.76" style="stroke: #000000; stroke-width: 0.8"/>
      </g>
     </g>
     <g id="text_23">
      <!-- -10 -->
      <g transform="translate(339.041274 272.719375) scale(0.1 -0.1)">
       <use xlink:href="#NotoSansCJKjp-Regular-2d"/>
       <use xlink:href="#NotoSansCJKjp-Regular-31" transform="translate(34.699997 0)"/>
       <use xlink:href="#NotoSansCJKjp-Regular-30" transform="translate(90.199982 0)"/>
      </g>
     </g>
    </g>
    <g id="xtick_9">
     <g id="line2d_41">
      <path d="M 407.489281 257.76 
L 407.489281 36 
" clip-path="url(#p0b4d4038d5)" style="fill: none; stroke: #b0b0b0; stroke-opacity: 0.3; stroke-width: 0.8; stroke-linecap: square"/>
     </g>
     <g id="line2d_42">
      <g>
       <use xlink:href="#ma0b14acebe" x="407.489281" y="257.76" style="stroke: #000000; stroke-width: 0.8"/>
      </g>
     </g>
     <g id="text_24">
      <!-- -5 -->
      <g transform="translate(402.979124 272.719375) scale(0.1 -0.1)">
       <defs>
        <path id="NotoSansCJKjp-Regular-35" d="M 1677 -83 
C 2464 -83 3213 499 3213 1523 
C 3213 2560 2573 3021 1798 3021 
C 1517 3021 1306 2950 1094 2835 
L 1216 4192 
L 2982 4192 
L 2982 4691 
L 704 4691 
L 550 2502 
L 864 2304 
C 1133 2483 1331 2579 1645 2579 
C 2234 2579 2618 2182 2618 1510 
C 2618 826 2176 403 1619 403 
C 1075 403 730 653 467 922 
L 173 538 
C 493 224 941 -83 1677 -83 
z
" transform="scale(0.015625)"/>
       </defs>
       <use xlink:href="#NotoSansCJKjp-Regular-2d"/>
       <use xlink:href="#NotoSansCJKjp-Regular-35" transform="translate(34.699997 0)"/>
      </g>
     </g>
    </g>
    <g id="xtick_10">
     <g id="line2d_43">
      <path d="M 468.652131 257.76 
L 468.652131 36 
" clip-path="url(#p0b4d4038d5)" style="fill: none; stroke: #b0b0b0; stroke-opacity: 0.3; stroke-width: 0.8; stroke-linecap: square"/>
     </g>
     <g id="line2d_44">
      <g>
       <use xlink:href="#ma0b14acebe" x="468.652131" y="257.76" style="stroke: #000000; stroke-width: 0.8"/>
      </g>
     </g>
     <g id="text_25">
      <!-- 0 -->
      <g transform="translate(465.877131 272.719375) scale(0.1 -0.1)">
       <use xlink:href="#NotoSansCJKjp-Regular-30"/>
      </g>
     </g>
    </g>
    <g id="xtick_11">
     <g id="line2d_45">
      <path d="M 529.814981 257.76 
L 529.814981 36 
" clip-path="url(#p0b4d4038d5)" style="fill: none; stroke: #b0b0b0; stroke-opacity: 0.3; stroke-width: 0.8; stroke-linecap: square"/>
     </g>
     <g id="line2d_46">
      <g>
       <use xlink:href="#ma0b14acebe" x="529.814981" y="257.76" style="stroke: #000000; stroke-width: 0.8"/>
      </g>
     </g>
     <g id="text_26">
      <!-- 5 -->
      <g transform="translate(527.039981 272.719375) scale(0.1 -0.1)">
       <use xlink:href="#NotoSansCJKjp-Regular-35"/>
      </g>
     </g>
    </g>
    <g id="xtick_12">
     <g id="line2d_47">
      <path d="M 590.977831 257.76 
L 590.977831 36 
" clip-path="url(#p0b4d4038d5)" style="fill: none; stroke: #b0b0b0; stroke-opacity: 0.3; stroke-width: 0.8; stroke-linecap: square"/>
     </g>
     <g id="line2d_48">
      <g>
       <use xlink:href="#ma0b14acebe" x="590.977831" y="257.76" style="stroke: #000000; stroke-width: 0.8"/>
      </g>
     </g>
     <g id="text_27">
      <!-- 10 -->
      <g transform="translate(585.427831 272.719375) scale(0.1 -0.1)">
       <use xlink:href="#NotoSansCJKjp-Regular-31"/>
       <use xlink:href="#NotoSansCJKjp-Regular-30" transform="translate(55.499985 0)"/>
      </g>
     </g>
    </g>
    <g id="text_28">
     <!-- x -->
     <g transform="translate(466.162287 286.969375) scale(0.1 -0.1)">
      <use xlink:href="#NotoSansCJKjp-Regular-78"/>
     </g>
    </g>
   </g>
   <g id="matplotlib.axis_4">
    <g id="ytick_7">
     <g id="line2d_49">
      <path d="M 341.833949 238.96225 
L 595.470312 238.96225 
" clip-path="url(#p0b4d4038d5)" style="fill: none; stroke: #b0b0b0; stroke-opacity: 0.3; stroke-width: 0.8; stroke-linecap: square"/>
     </g>
     <g id="line2d_50">
      <g>
       <use xlink:href="#md02205c5fb" x="341.833949" y="238.96225" style="stroke: #000000; stroke-width: 0.8"/>
      </g>
     </g>
     <g id="text_29">
      <!-- -750 -->
      <g transform="translate(314.713636 242.941938) scale(0.1 -0.1)">
       <defs>
        <path id="NotoSansCJKjp-Regular-37" d="M 1267 0 
L 1875 0 
C 1952 1837 2150 2931 3251 4339 
L 3251 4691 
L 314 4691 
L 314 4192 
L 2592 4192 
C 1670 2912 1350 1779 1267 0 
z
" transform="scale(0.015625)"/>
       </defs>
       <use xlink:href="#NotoSansCJKjp-Regular-2d"/>
       <use xlink:href="#NotoSansCJKjp-Regular-37" transform="translate(34.699997 0)"/>
       <use xlink:href="#NotoSansCJKjp-Regular-35" transform="translate(90.199982 0)"/>
       <use xlink:href="#NotoSansCJKjp-Regular-30" transform="translate(145.699966 0)"/>
      </g>
     </g>
    </g>
    <g id="ytick_8">
     <g id="line2d_51">
      <path d="M 341.833949 208.268167 
L 595.470312 208.268167 
" clip-path="url(#p0b4d4038d5)" style="fill: none; stroke: #b0b0b0; stroke-opacity: 0.3; stroke-width: 0.8; stroke-linecap: square"/>
     </g>
     <g id="line2d_52">
      <g>
       <use xlink:href="#md02205c5fb" x="341.833949" y="208.268167" style="stroke: #000000; stroke-width: 0.8"/>
      </g>
     </g>
     <g id="text_30">
      <!-- -500 -->
      <g transform="translate(314.713636 212.247854) scale(0.1 -0.1)">
       <use xlink:href="#NotoSansCJKjp-Regular-2d"/>
       <use xlink:href="#NotoSansCJKjp-Regular-35" transform="translate(34.699997 0)"/>
       <use xlink:href="#NotoSansCJKjp-Regular-30" transform="translate(90.199982 0)"/>
       <use xlink:href="#NotoSansCJKjp-Regular-30" transform="translate(145.699966 0)"/>
      </g>
     </g>
    </g>
    <g id="ytick_9">
     <g id="line2d_53">
      <path d="M 341.833949 177.574083 
L 595.470312 177.574083 
" clip-path="url(#p0b4d4038d5)" style="fill: none; stroke: #b0b0b0; stroke-opacity: 0.3; stroke-width: 0.8; stroke-linecap: square"/>
     </g>
     <g id="line2d_54">
      <g>
       <use xlink:href="#md02205c5fb" x="341.833949" y="177.574083" style="stroke: #000000; stroke-width: 0.8"/>
      </g>
     </g>
     <g id="text_31">
      <!-- -250 -->
      <g transform="translate(314.713636 181.553771) scale(0.1 -0.1)">
       <use xlink:href="#NotoSansCJKjp-Regular-2d"/>
       <use xlink:href="#NotoSansCJKjp-Regular-32" transform="translate(34.699997 0)"/>
       <use xlink:href="#NotoSansCJKjp-Regular-35" transform="translate(90.199982 0)"/>
       <use xlink:href="#NotoSansCJKjp-Regular-30" transform="translate(145.699966 0)"/>
      </g>
     </g>
    </g>
    <g id="ytick_10">
     <g id="line2d_55">
      <path d="M 341.833949 146.88 
L 595.470312 146.88 
" clip-path="url(#p0b4d4038d5)" style="fill: none; stroke: #b0b0b0; stroke-opacity: 0.3; stroke-width: 0.8; stroke-linecap: square"/>
     </g>
     <g id="line2d_56">
      <g>
       <use xlink:href="#md02205c5fb" x="341.833949" y="146.88" style="stroke: #000000; stroke-width: 0.8"/>
      </g>
     </g>
     <g id="text_32">
      <!-- 0 -->
      <g transform="translate(329.283949 150.859688) scale(0.1 -0.1)">
       <use xlink:href="#NotoSansCJKjp-Regular-30"/>
      </g>
     </g>
    </g>
    <g id="ytick_11">
     <g id="line2d_57">
      <path d="M 341.833949 116.185917 
L 595.470312 116.185917 
" clip-path="url(#p0b4d4038d5)" style="fill: none; stroke: #b0b0b0; stroke-opacity: 0.3; stroke-width: 0.8; stroke-linecap: square"/>
     </g>
     <g id="line2d_58">
      <g>
       <use xlink:href="#md02205c5fb" x="341.833949" y="116.185917" style="stroke: #000000; stroke-width: 0.8"/>
      </g>
     </g>
     <g id="text_33">
      <!-- 250 -->
      <g transform="translate(318.183949 120.165604) scale(0.1 -0.1)">
       <use xlink:href="#NotoSansCJKjp-Regular-32"/>
       <use xlink:href="#NotoSansCJKjp-Regular-35" transform="translate(55.499985 0)"/>
       <use xlink:href="#NotoSansCJKjp-Regular-30" transform="translate(110.999969 0)"/>
      </g>
     </g>
    </g>
    <g id="ytick_12">
     <g id="line2d_59">
      <path d="M 341.833949 85.491833 
L 595.470312 85.491833 
" clip-path="url(#p0b4d4038d5)" style="fill: none; stroke: #b0b0b0; stroke-opacity: 0.3; stroke-width: 0.8; stroke-linecap: square"/>
     </g>
     <g id="line2d_60">
      <g>
       <use xlink:href="#md02205c5fb" x="341.833949" y="85.491833" style="stroke: #000000; stroke-width: 0.8"/>
      </g>
     </g>
     <g id="text_34">
      <!-- 500 -->
      <g transform="translate(318.183949 89.471521) scale(0.1 -0.1)">
       <use xlink:href="#NotoSansCJKjp-Regular-35"/>
       <use xlink:href="#NotoSansCJKjp-Regular-30" transform="translate(55.499985 0)"/>
       <use xlink:href="#NotoSansCJKjp-Regular-30" transform="translate(110.999969 0)"/>
      </g>
     </g>
    </g>
    <g id="ytick_13">
     <g id="line2d_61">
      <path d="M 341.833949 54.79775 
L 595.470312 54.79775 
" clip-path="url(#p0b4d4038d5)" style="fill: none; stroke: #b0b0b0; stroke-opacity: 0.3; stroke-width: 0.8; stroke-linecap: square"/>
     </g>
     <g id="line2d_62">
      <g>
       <use xlink:href="#md02205c5fb" x="341.833949" y="54.79775" style="stroke: #000000; stroke-width: 0.8"/>
      </g>
     </g>
     <g id="text_35">
      <!-- 750 -->
      <g transform="translate(318.183949 58.777437) scale(0.1 -0.1)">
       <use xlink:href="#NotoSansCJKjp-Regular-37"/>
       <use xlink:href="#NotoSansCJKjp-Regular-35" transform="translate(55.499985 0)"/>
       <use xlink:href="#NotoSansCJKjp-Regular-30" transform="translate(110.999969 0)"/>
      </g>
     </g>
    </g>
    <g id="text_36">
     <!-- y -->
     <g transform="translate(308.373011 149.484688) rotate(-90) scale(0.1 -0.1)">
      <use xlink:href="#NotoSansCJKjp-Regular-79"/>
     </g>
    </g>
   </g>
   <g id="line2d_63">
    <path d="M 353.362874 146.88 
L 376.074281 146.997795 
L 397.630869 146.823602 
L 416.107945 146.767742 
L 468.459661 146.881932 
L 491.171067 146.761675 
L 512.342717 146.931189 
L 531.204732 146.993026 
L 583.941387 146.88 
L 583.941387 146.88 
" clip-path="url(#p0b4d4038d5)" style="fill: none; stroke: #000000; stroke-width: 2.5; stroke-linecap: square"/>
   </g>
   <g id="line2d_64">
    <path d="M 353.362874 130.906373 
L 359.136961 133.295567 
L 364.911047 135.439852 
L 370.685133 137.352143 
L 376.844159 139.150758 
L 383.003184 140.715776 
L 389.547149 142.140185 
L 396.091113 143.337374 
L 403.020017 144.378212 
L 410.333859 145.248032 
L 418.032641 145.938074 
L 426.501301 146.465862 
L 435.739839 146.811784 
L 446.518133 146.980931 
L 460.37594 146.95673 
L 493.480702 146.801906 
L 504.258996 147.027294 
L 513.497534 147.438134 
L 521.966194 148.038982 
L 529.664976 148.806691 
L 536.978818 149.760216 
L 543.907722 150.889273 
L 550.451686 152.177747 
L 556.610712 153.604726 
L 562.769737 155.255507 
L 568.928763 157.145761 
L 574.702849 159.1493 
L 580.476935 161.389999 
L 583.941387 162.853627 
L 583.941387 162.853627 
" clip-path="url(#p0b4d4038d5)" style="fill: none; stroke: #1f77b4; stroke-width: 1.5; stroke-linecap: square"/>
   </g>
   <g id="line2d_65">
    <path d="M 353.362874 206.989623 
L 356.057448 199.650695 
L 358.752022 193.031452 
L 361.446595 187.078931 
L 363.75623 182.469178 
L 366.065864 178.281982 
L 368.375499 174.488447 
L 370.685133 171.060986 
L 372.994768 167.97329 
L 375.689341 164.767043 
L 378.383915 161.951499 
L 381.078489 159.491158 
L 383.773062 157.352654 
L 386.467636 155.504688 
L 389.162209 153.917969 
L 391.856783 152.565147 
L 394.936296 151.272876 
L 398.015808 150.217769 
L 401.48026 149.274332 
L 405.329651 148.48016 
L 409.563981 147.857367 
L 414.18325 147.411087 
L 419.572397 147.114744 
L 426.501301 146.962884 
L 438.049473 146.96702 
L 459.221123 146.965559 
L 498.48491 146.789122 
L 513.497534 146.760595 
L 520.426438 146.52217 
L 525.815585 146.114416 
L 530.434854 145.53366 
L 534.284245 144.832674 
L 537.748697 143.99101 
L 541.213148 142.908791 
L 544.292661 141.709411 
L 547.372174 140.25127 
L 550.066747 138.734086 
L 552.761321 136.963665 
L 555.455895 134.911276 
L 558.150468 132.546202 
L 560.460103 130.245341 
L 562.769737 127.66884 
L 565.079372 124.793657 
L 567.389006 121.595552 
L 569.698641 118.049052 
L 572.008275 114.127426 
L 574.31791 109.802654 
L 576.627544 105.045396 
L 578.937179 99.824968 
L 581.246813 94.109305 
L 583.556448 87.864937 
L 583.941387 86.770377 
L 583.941387 86.770377 
" clip-path="url(#p0b4d4038d5)" style="fill: none; stroke: #ff7f0e; stroke-width: 1.5; stroke-linecap: square"/>
   </g>
   <g id="line2d_66">
    <path d="M 353.362874 46.08 
L 355.28757 58.650214 
L 357.212265 69.863205 
L 359.136961 79.84138 
L 361.061656 88.698347 
L 362.986352 96.539386 
L 364.911047 103.461901 
L 366.835742 109.555862 
L 368.760438 114.904224 
L 370.685133 119.583333 
L 372.609829 123.66332 
L 374.534524 127.208473 
L 376.45922 130.277597 
L 378.383915 132.924364 
L 380.30861 135.197641 
L 382.233306 137.141806 
L 384.158001 138.797059 
L 386.082697 140.199703 
L 388.392331 141.59522 
L 390.701966 142.724042 
L 393.396539 143.762089 
L 396.091113 144.556384 
L 399.170626 145.229892 
L 402.635077 145.761955 
L 406.869407 146.183994 
L 412.643494 146.509174 
L 421.497093 146.743895 
L 440.359108 146.969879 
L 457.296428 146.978296 
L 500.794544 146.821536 
L 520.426438 147.114904 
L 528.125219 147.419588 
L 533.129428 147.820373 
L 536.978818 148.329683 
L 540.44327 149.01418 
L 543.522783 149.870789 
L 546.217356 150.870584 
L 548.526991 151.959382 
L 550.836626 153.307144 
L 552.761321 154.6633 
L 554.686016 156.265246 
L 556.610712 158.148542 
L 558.535407 160.352584 
L 560.460103 162.920891 
L 562.384798 165.901409 
L 564.309494 169.346821 
L 566.234189 173.314879 
L 568.158884 177.868746 
L 570.08358 183.077354 
L 572.008275 189.015775 
L 573.932971 195.765613 
L 575.857666 203.415398 
L 577.782362 212.061016 
L 579.707057 221.806134 
L 581.631752 232.762658 
L 583.556448 245.051196 
L 583.941387 247.68 
L 583.941387 247.68 
" clip-path="url(#p0b4d4038d5)" style="fill: none; stroke: #2ca02c; stroke-width: 1.5; stroke-linecap: square"/>
   </g>
   <g id="line2d_67">
    <path d="M 353.362874 84.291403 
L 354.902631 93.873598 
L 356.442387 102.103067 
L 357.982144 109.1546 
L 359.5219 115.182536 
L 361.061656 120.322882 
L 362.601413 124.695255 
L 364.141169 128.404637 
L 365.680925 131.542975 
L 367.220682 134.190624 
L 368.760438 136.417654 
L 370.300194 138.285027 
L 371.839951 139.845662 
L 373.379707 141.145385 
L 375.304402 142.462916 
L 377.229098 143.49973 
L 379.153793 144.310003 
L 381.463428 145.045571 
L 384.158001 145.654315 
L 387.237514 146.112344 
L 391.086905 146.446684 
L 396.091113 146.648626 
L 404.559773 146.734912 
L 434.585022 146.922853 
L 453.831976 146.994938 
L 477.698199 146.797258 
L 495.020458 146.777626 
L 542.752905 147.154304 
L 547.757113 147.422299 
L 551.606504 147.850296 
L 554.686016 148.425043 
L 556.995651 149.053653 
L 559.305285 149.911672 
L 561.229981 150.851939 
L 563.154676 152.050001 
L 564.694433 153.234474 
L 566.234189 154.659333 
L 567.773945 156.367187 
L 569.313702 158.407294 
L 570.853458 160.83647 
L 572.393214 163.720091 
L 573.932971 167.133215 
L 575.472727 171.16182 
L 577.012483 175.904181 
L 578.55224 181.472389 
L 580.091996 187.994024 
L 581.631752 195.614007 
L 583.171509 204.496623 
L 583.941387 209.468597 
L 583.941387 209.468597 
" clip-path="url(#p0b4d4038d5)" style="fill: none; stroke: #d62728; stroke-width: 1.5; stroke-linecap: square"/>
   </g>
   <g id="line2d_68">
    <path d="M 353.362874 149.567758 
L 355.28757 148.863175 
L 357.597204 148.259549 
L 360.291778 147.791839 
L 363.75623 147.433272 
L 368.375499 147.194218 
L 376.45922 147.037784 
L 410.718798 146.757264 
L 428.810935 146.865865 
L 453.062098 146.997425 
L 475.003626 146.819077 
L 493.480702 146.769927 
L 543.907722 146.895146 
L 570.08358 146.522745 
L 574.702849 146.230116 
L 578.167301 145.793117 
L 580.861874 145.226794 
L 583.171509 144.499979 
L 583.941387 144.192242 
L 583.941387 144.192242 
" clip-path="url(#p0b4d4038d5)" style="fill: none; stroke: #9467bd; stroke-width: 1.5; stroke-linecap: square"/>
   </g>
   <g id="patch_9">
    <path d="M 341.833949 257.76 
L 341.833949 36 
" style="fill: none; stroke: #000000; stroke-width: 0.8; stroke-linejoin: miter; stroke-linecap: square"/>
   </g>
   <g id="patch_10">
    <path d="M 595.470312 257.76 
L 595.470312 36 
" style="fill: none; stroke: #000000; stroke-width: 0.8; stroke-linejoin: miter; stroke-linecap: square"/>
   </g>
   <g id="patch_11">
    <path d="M 341.833949 257.76 
L 595.470312 257.76 
" style="fill: none; stroke: #000000; stroke-width: 0.8; stroke-linejoin: miter; stroke-linecap: square"/>
   </g>
   <g id="patch_12">
    <path d="M 341.833949 36 
L 595.470312 36 
" style="fill: none; stroke: #000000; stroke-width: 0.8; stroke-linejoin: miter; stroke-linecap: square"/>
   </g>
   <g id="text_37">
    <!-- (b) $\sin x$ 用幂级数逼近（奇数次项之和） -->
    <g transform="translate(362.512131 30) scale(0.12 -0.12)">
     <defs>
      <path id="NotoSansCJKjp-Regular-62" d="M 2118 -83 
C 2912 -83 3629 602 3629 1792 
C 3629 2867 3142 3565 2246 3565 
C 1856 3565 1472 3347 1152 3078 
L 1178 3699 
L 1178 5094 
L 589 5094 
L 589 0 
L 1056 0 
L 1107 358 
L 1133 358 
C 1434 83 1798 -83 2118 -83 
z
M 2022 410 
C 1792 410 1478 499 1178 768 
L 1178 2598 
C 1504 2906 1811 3072 2099 3072 
C 2765 3072 3021 2560 3021 1786 
C 3021 928 2598 410 2022 410 
z
" transform="scale(0.015625)"/>
      <path id="Cmr10-73" d="M 213 -19 
L 213 1025 
Q 213 1075 269 1075 
L 347 1075 
Q 384 1075 397 1025 
Q 575 97 1259 97 
Q 1563 97 1767 234 
Q 1972 372 1972 659 
Q 1972 866 1812 1011 
Q 1653 1156 1434 1209 
L 1006 1294 
Q 791 1341 614 1437 
Q 438 1534 325 1695 
Q 213 1856 213 2069 
Q 213 2350 361 2529 
Q 509 2709 746 2789 
Q 984 2869 1259 2869 
Q 1588 2869 1831 2694 
L 2016 2853 
Q 2016 2869 2047 2869 
L 2094 2869 
Q 2113 2869 2128 2851 
Q 2144 2834 2144 2816 
L 2144 1978 
Q 2144 1919 2094 1919 
L 2016 1919 
Q 1959 1919 1959 1978 
Q 1959 2313 1773 2516 
Q 1588 2719 1253 2719 
Q 966 2719 755 2612 
Q 544 2506 544 2247 
Q 544 2069 695 1955 
Q 847 1841 1050 1791 
L 1484 1709 
Q 1703 1659 1892 1540 
Q 2081 1422 2192 1240 
Q 2303 1059 2303 831 
Q 2303 600 2223 429 
Q 2144 259 2001 146 
Q 1859 34 1665 -19 
Q 1472 -72 1259 -72 
Q 859 -72 575 197 
L 341 -56 
Q 341 -72 306 -72 
L 269 -72 
Q 213 -72 213 -19 
z
" transform="scale(0.015625)"/>
      <path id="Cmr10-69" d="M 197 0 
L 197 225 
Q 416 225 556 259 
Q 697 294 697 428 
L 697 2175 
Q 697 2422 601 2478 
Q 506 2534 225 2534 
L 225 2759 
L 1147 2828 
L 1147 428 
Q 1147 294 1269 259 
Q 1391 225 1594 225 
L 1594 0 
L 197 0 
z
M 469 3928 
Q 469 4069 575 4175 
Q 681 4281 819 4281 
Q 909 4281 993 4234 
Q 1078 4188 1125 4103 
Q 1172 4019 1172 3928 
Q 1172 3791 1065 3684 
Q 959 3578 819 3578 
Q 681 3578 575 3684 
Q 469 3791 469 3928 
z
" transform="scale(0.015625)"/>
      <path id="Cmr10-6e" d="M 191 0 
L 191 225 
Q 409 225 550 259 
Q 691 294 691 428 
L 691 2175 
Q 691 2347 639 2423 
Q 588 2500 491 2517 
Q 394 2534 191 2534 
L 191 2759 
L 1119 2828 
L 1119 2203 
Q 1247 2478 1498 2653 
Q 1750 2828 2047 2828 
Q 2491 2828 2714 2615 
Q 2938 2403 2938 1966 
L 2938 428 
Q 2938 294 3078 259 
Q 3219 225 3438 225 
L 3438 0 
L 1972 0 
L 1972 225 
Q 2191 225 2331 259 
Q 2472 294 2472 428 
L 2472 1947 
Q 2472 2259 2381 2461 
Q 2291 2663 2009 2663 
Q 1638 2663 1398 2366 
Q 1159 2069 1159 1691 
L 1159 428 
Q 1159 294 1300 259 
Q 1441 225 1656 225 
L 1656 0 
L 191 0 
z
" transform="scale(0.015625)"/>
      <path id="NotoSansCJKjp-Regular-5947" d="M 339 2842 
L 339 2406 
L 4704 2406 
L 4704 77 
C 4704 -26 4672 -58 4538 -64 
C 4416 -70 3962 -77 3475 -58 
C 3552 -186 3629 -378 3654 -512 
C 4256 -512 4653 -506 4890 -442 
C 5120 -365 5197 -218 5197 70 
L 5197 2406 
L 6080 2406 
L 6080 2842 
L 339 2842 
z
M 3021 5382 
C 3002 5165 2970 4960 2931 4781 
L 659 4781 
L 659 4352 
L 2784 4352 
C 2502 3763 1907 3437 557 3264 
C 634 3174 736 2995 774 2886 
C 1984 3053 2656 3354 3034 3846 
C 3846 3565 4781 3168 5318 2899 
L 5670 3245 
C 5088 3520 4070 3930 3251 4211 
L 3309 4352 
L 5773 4352 
L 5773 4781 
L 3430 4781 
C 3469 4966 3494 5165 3514 5382 
L 3021 5382 
z
M 1453 1498 
L 3098 1498 
L 3098 621 
L 1453 621 
L 1453 1498 
z
M 998 1888 
L 998 -192 
L 1453 -192 
L 1453 230 
L 3558 230 
L 3558 1888 
L 998 1888 
z
" transform="scale(0.015625)"/>
      <path id="NotoSansCJKjp-Regular-6b21" d="M 243 806 
L 557 410 
C 986 826 1530 1382 2003 1901 
L 1734 2310 
C 1197 1741 614 1158 243 806 
z
M 448 4602 
C 858 4314 1363 3891 1606 3610 
L 1965 4006 
C 1715 4282 1197 4685 787 4947 
L 448 4602 
z
M 2854 5363 
C 2630 4339 2240 3334 1696 2707 
C 1824 2650 2054 2515 2157 2438 
C 2426 2797 2662 3245 2874 3750 
L 3654 3750 
L 3654 2931 
C 3654 2330 3322 653 1370 -115 
C 1459 -211 1606 -403 1664 -512 
C 3206 141 3795 1427 3904 2029 
C 4000 1434 4544 102 5894 -512 
C 5965 -397 6112 -198 6208 -83 
C 4461 672 4147 2368 4154 2931 
L 4154 3750 
L 5485 3750 
C 5350 3322 5152 2848 4986 2547 
C 5101 2502 5286 2400 5389 2349 
C 5626 2778 5926 3443 6099 4058 
L 5747 4250 
L 5651 4224 
L 3053 4224 
C 3168 4557 3270 4915 3354 5274 
L 2854 5363 
z
" transform="scale(0.015625)"/>
      <path id="NotoSansCJKjp-Regular-4e4b" d="M 666 -506 
C 941 -96 1203 378 1427 819 
C 2054 -179 3066 -403 4486 -403 
L 5984 -403 
C 6003 -262 6086 -38 6163 77 
C 5862 70 4730 70 4512 70 
C 3686 70 2970 147 2438 454 
C 3693 1306 5043 2694 5792 3904 
L 5434 4134 
L 5331 4109 
L 3430 4109 
L 3430 5370 
L 2944 5370 
L 2944 4109 
L 627 4109 
L 627 3635 
L 4998 3635 
C 4320 2650 3136 1466 2048 755 
C 1894 909 1766 1088 1664 1312 
L 1862 1760 
L 1395 1946 
C 1139 1261 659 339 198 -230 
L 666 -506 
z
" transform="scale(0.015625)"/>
      <path id="NotoSansCJKjp-Regular-548c" d="M 3398 4781 
L 3398 -224 
L 3866 -224 
L 3866 301 
L 5293 301 
L 5293 -179 
L 5779 -179 
L 5779 4781 
L 3398 4781 
z
M 3866 762 
L 3866 4320 
L 5293 4320 
L 5293 762 
L 3866 762 
z
M 2810 5318 
C 2246 5088 1235 4896 384 4781 
C 435 4672 499 4506 518 4397 
C 858 4435 1222 4486 1581 4550 
L 1581 3482 
L 320 3482 
L 320 3034 
L 1459 3034 
C 1165 2227 653 1350 166 858 
C 250 736 371 550 429 410 
C 845 851 1267 1587 1581 2342 
L 1581 -499 
L 2054 -499 
L 2054 2323 
C 2330 1958 2688 1472 2835 1229 
L 3130 1626 
C 2976 1824 2291 2630 2054 2874 
L 2054 3034 
L 3174 3034 
L 3174 3482 
L 2054 3482 
L 2054 4646 
C 2458 4730 2829 4826 3130 4941 
L 2810 5318 
z
" transform="scale(0.015625)"/>
     </defs>
     <use xlink:href="#NotoSansCJKjp-Regular-28" transform="translate(0 0.40625)"/>
     <use xlink:href="#NotoSansCJKjp-Regular-62" transform="translate(33.799988 0.40625)"/>
     <use xlink:href="#NotoSansCJKjp-Regular-29" transform="translate(95.599976 0.40625)"/>
     <use xlink:href="#NotoSansCJKjp-Regular-20" transform="translate(129.399963 0.40625)"/>
     <use xlink:href="#Cmr10-73" transform="translate(151.799957 0.40625)"/>
     <use xlink:href="#Cmr10-69" transform="translate(191.204254 0.40625)"/>
     <use xlink:href="#Cmr10-6e" transform="translate(218.889801 0.40625)"/>
     <use xlink:href="#Cmmi10-78" transform="translate(289.039833 0.40625)"/>
     <use xlink:href="#NotoSansCJKjp-Regular-20" transform="translate(346.119911 0.40625)"/>
     <use xlink:href="#NotoSansCJKjp-Regular-7528" transform="translate(368.519905 0.40625)"/>
     <use xlink:href="#NotoSansCJKjp-Regular-5e42" transform="translate(468.51989 0.40625)"/>
     <use xlink:href="#NotoSansCJKjp-Regular-7ea7" transform="translate(568.519875 0.40625)"/>
     <use xlink:href="#NotoSansCJKjp-Regular-6570" transform="translate(668.519859 0.40625)"/>
     <use xlink:href="#NotoSansCJKjp-Regular-903c" transform="translate(768.519844 0.40625)"/>
     <use xlink:href="#NotoSansCJKjp-Regular-8fd1" transform="translate(868.519829 0.40625)"/>
     <use xlink:href="#NotoSansCJKjp-Regular-ff08" transform="translate(968.519814 0.40625)"/>
     <use xlink:href="#NotoSansCJKjp-Regular-5947" transform="translate(1068.519798 0.40625)"/>
     <use xlink:href="#NotoSansCJKjp-Regular-6570" transform="translate(1168.519783 0.40625)"/>
     <use xlink:href="#NotoSansCJKjp-Regular-6b21" transform="translate(1268.519768 0.40625)"/>
     <use xlink:href="#NotoSansCJKjp-Regular-9879" transform="translate(1368.519753 0.40625)"/>
     <use xlink:href="#NotoSansCJKjp-Regular-4e4b" transform="translate(1468.519737 0.40625)"/>
     <use xlink:href="#NotoSansCJKjp-Regular-548c" transform="translate(1568.519722 0.40625)"/>
     <use xlink:href="#NotoSansCJKjp-Regular-ff09" transform="translate(1668.519707 0.40625)"/>
    </g>
   </g>
   <g id="legend_2">
    <g id="patch_13">
     <path d="M 347.433949 253.76 
L 420.633949 253.76 
Q 422.233949 253.76 422.233949 252.16 
L 422.233949 179.76 
Q 422.233949 178.16 420.633949 178.16 
L 347.433949 178.16 
Q 345.833949 178.16 345.833949 179.76 
L 345.833949 252.16 
Q 345.833949 253.76 347.433949 253.76 
z
" style="fill: #ffffff; opacity: 0.8; stroke: #cccccc; stroke-linejoin: miter"/>
    </g>
    <g id="line2d_69">
     <path d="M 349.033949 184.9275 
L 357.033949 184.9275 
L 365.033949 184.9275 
" style="fill: none; stroke: #000000; stroke-width: 2.5; stroke-linecap: square"/>
    </g>
    <g id="text_38">
     <!-- $\sin x$（真实） -->
     <g transform="translate(371.433949 187.7275) scale(0.08 -0.08)">
      <use xlink:href="#Cmr10-73" transform="translate(0 0.40625)"/>
      <use xlink:href="#Cmr10-69" transform="translate(39.404297 0.40625)"/>
      <use xlink:href="#Cmr10-6e" transform="translate(67.089844 0.40625)"/>
      <use xlink:href="#Cmmi10-78" transform="translate(137.239876 0.40625)"/>
      <use xlink:href="#NotoSansCJKjp-Regular-ff08" transform="translate(194.319954 0.40625)"/>
      <use xlink:href="#NotoSansCJKjp-Regular-771f" transform="translate(294.319939 0.40625)"/>
      <use xlink:href="#NotoSansCJKjp-Regular-5b9e" transform="translate(394.319924 0.40625)"/>
      <use xlink:href="#NotoSansCJKjp-Regular-ff09" transform="translate(494.319908 0.40625)"/>
     </g>
    </g>
    <g id="line2d_70">
     <path d="M 349.033949 197.1275 
L 357.033949 197.1275 
L 365.033949 197.1275 
" style="fill: none; stroke: #1f77b4; stroke-width: 1.5; stroke-linecap: square"/>
    </g>
    <g id="text_39">
     <!-- 前2项 -->
     <g transform="translate(371.433949 199.9275) scale(0.08 -0.08)">
      <use xlink:href="#NotoSansCJKjp-Regular-524d"/>
      <use xlink:href="#NotoSansCJKjp-Regular-32" transform="translate(99.999985 0)"/>
      <use xlink:href="#NotoSansCJKjp-Regular-9879" transform="translate(155.499969 0)"/>
     </g>
    </g>
    <g id="line2d_71">
     <path d="M 349.033949 209.3275 
L 357.033949 209.3275 
L 365.033949 209.3275 
" style="fill: none; stroke: #ff7f0e; stroke-width: 1.5; stroke-linecap: square"/>
    </g>
    <g id="text_40">
     <!-- 前3项 -->
     <g transform="translate(371.433949 212.1275) scale(0.08 -0.08)">
      <use xlink:href="#NotoSansCJKjp-Regular-524d"/>
      <use xlink:href="#NotoSansCJKjp-Regular-33" transform="translate(99.999985 0)"/>
      <use xlink:href="#NotoSansCJKjp-Regular-9879" transform="translate(155.499969 0)"/>
     </g>
    </g>
    <g id="line2d_72">
     <path d="M 349.033949 221.5275 
L 357.033949 221.5275 
L 365.033949 221.5275 
" style="fill: none; stroke: #2ca02c; stroke-width: 1.5; stroke-linecap: square"/>
    </g>
    <g id="text_41">
     <!-- 前4项 -->
     <g transform="translate(371.433949 224.3275) scale(0.08 -0.08)">
      <use xlink:href="#NotoSansCJKjp-Regular-524d"/>
      <use xlink:href="#NotoSansCJKjp-Regular-34" transform="translate(99.999985 0)"/>
      <use xlink:href="#NotoSansCJKjp-Regular-9879" transform="translate(155.499969 0)"/>
     </g>
    </g>
    <g id="line2d_73">
     <path d="M 349.033949 233.7275 
L 357.033949 233.7275 
L 365.033949 233.7275 
" style="fill: none; stroke: #d62728; stroke-width: 1.5; stroke-linecap: square"/>
    </g>
    <g id="text_42">
     <!-- 前6项 -->
     <g transform="translate(371.433949 236.5275) scale(0.08 -0.08)">
      <use xlink:href="#NotoSansCJKjp-Regular-524d"/>
      <use xlink:href="#NotoSansCJKjp-Regular-36" transform="translate(99.999985 0)"/>
      <use xlink:href="#NotoSansCJKjp-Regular-9879" transform="translate(155.499969 0)"/>
     </g>
    </g>
    <g id="line2d_74">
     <path d="M 349.033949 245.9275 
L 357.033949 245.9275 
L 365.033949 245.9275 
" style="fill: none; stroke: #9467bd; stroke-width: 1.5; stroke-linecap: square"/>
    </g>
    <g id="text_43">
     <!-- 前9项 -->
     <g transform="translate(371.433949 248.7275) scale(0.08 -0.08)">
      <use xlink:href="#NotoSansCJKjp-Regular-524d"/>
      <use xlink:href="#NotoSansCJKjp-Regular-39" transform="translate(99.999985 0)"/>
      <use xlink:href="#NotoSansCJKjp-Regular-9879" transform="translate(155.499969 0)"/>
     </g>
    </g>
   </g>
  </g>
  <g id="text_44">
   <!-- 函数幂级数展开的本质：用多项式拼出复杂函数 -->
   <g transform="translate(170.970312 17.547188) scale(0.13 -0.13)">
    <defs>
     <path id="NotoSansCJKjp-Regular-51fd" d="M 3635 1843 
C 4096 1530 4646 1062 4915 768 
L 5203 1114 
C 4928 1402 4378 1837 3904 2144 
L 3635 1843 
z
M 1344 3277 
C 1664 3008 2022 2605 2189 2336 
L 2515 2618 
C 2342 2874 1984 3251 1645 3520 
L 1344 3277 
z
M 1178 1242 
L 1414 845 
C 1811 1114 2304 1434 2771 1747 
L 2650 2112 
C 2099 1779 1549 1440 1178 1242 
z
M 4659 3603 
C 4467 3290 4115 2835 3853 2560 
L 4166 2374 
C 4442 2643 4774 3034 5056 3392 
L 4659 3603 
z
M 5370 3827 
L 5370 294 
L 1062 294 
L 1062 3827 
L 602 3827 
L 602 -506 
L 1062 -506 
L 1062 -147 
L 5370 -147 
L 5370 -486 
L 5843 -486 
L 5843 3827 
L 5370 3827 
z
M 378 4992 
L 378 4531 
L 2458 4531 
C 2368 4090 2253 3597 2157 3264 
L 2598 3206 
L 2650 3398 
L 3238 3398 
C 3187 1690 3123 1075 3008 928 
C 2957 858 2906 845 2816 845 
C 2720 845 2483 845 2227 870 
C 2291 762 2336 595 2342 474 
C 2605 461 2861 461 3008 474 
C 3174 486 3290 538 3392 666 
C 3552 877 3616 1574 3674 3584 
C 3674 3648 3680 3789 3680 3789 
L 2746 3789 
L 2912 4531 
L 6029 4531 
L 6029 4992 
L 378 4992 
z
" transform="scale(0.015625)"/>
     <path id="NotoSansCJKjp-Regular-5c55" d="M 5376 1389 
C 5133 1184 4742 928 4416 736 
C 4211 934 4038 1165 3904 1421 
L 6086 1421 
L 6086 1843 
L 4742 1843 
L 4742 2496 
L 5824 2496 
L 5824 2906 
L 4742 2906 
L 4742 3494 
L 5702 3494 
L 5702 5069 
L 902 5069 
L 902 3187 
C 902 2163 845 736 198 -269 
C 320 -320 531 -442 627 -518 
C 1293 531 1382 2099 1382 3187 
L 1382 3494 
L 2560 3494 
L 2560 2906 
L 1594 2906 
L 1594 2496 
L 2560 2496 
L 2560 1843 
L 1395 1843 
L 1395 1421 
L 2214 1421 
L 2214 122 
L 1478 19 
L 1555 -429 
C 2221 -314 3155 -160 4038 -6 
L 4019 410 
L 2662 192 
L 2662 1421 
L 3450 1421 
C 3891 429 4704 -237 5856 -525 
C 5920 -403 6048 -224 6150 -128 
C 5587 -13 5101 198 4710 486 
C 5043 659 5434 902 5741 1133 
L 5376 1389 
z
M 3002 2496 
L 4288 2496 
L 4288 1843 
L 3002 1843 
L 3002 2496 
z
M 3002 2906 
L 3002 3494 
L 4288 3494 
L 4288 2906 
L 3002 2906 
z
M 1382 4653 
L 5222 4653 
L 5222 3910 
L 1382 3910 
L 1382 4653 
z
" transform="scale(0.015625)"/>
     <path id="NotoSansCJKjp-Regular-5f00" d="M 4154 4499 
L 4154 2675 
L 2362 2675 
L 2362 2950 
L 2362 4499 
L 4154 4499 
z
M 333 2675 
L 333 2214 
L 1843 2214 
C 1754 1338 1427 480 346 -179 
C 474 -262 646 -422 730 -538 
C 1914 211 2246 1210 2336 2214 
L 4154 2214 
L 4154 -518 
L 4646 -518 
L 4646 2214 
L 6074 2214 
L 6074 2675 
L 4646 2675 
L 4646 4499 
L 5875 4499 
L 5875 4960 
L 570 4960 
L 570 4499 
L 1875 4499 
L 1875 2950 
L 1869 2675 
L 333 2675 
z
" transform="scale(0.015625)"/>
     <path id="NotoSansCJKjp-Regular-7684" d="M 3533 2707 
C 3885 2240 4320 1600 4512 1210 
L 4922 1466 
C 4710 1843 4269 2464 3904 2918 
L 3533 2707 
z
M 1536 5389 
C 1485 5082 1376 4659 1274 4346 
L 557 4346 
L 557 -346 
L 998 -346 
L 998 160 
L 2784 160 
L 2784 4346 
L 1715 4346 
C 1824 4621 1946 4979 2054 5299 
L 1536 5389 
z
M 998 3917 
L 2342 3917 
L 2342 2566 
L 998 2566 
L 998 3917 
z
M 998 595 
L 998 2144 
L 2342 2144 
L 2342 595 
L 998 595 
z
M 3827 5402 
C 3622 4518 3277 3635 2835 3066 
C 2950 3002 3149 2867 3238 2790 
C 3456 3098 3661 3488 3840 3923 
L 5478 3923 
C 5402 1357 5299 371 5094 154 
C 5018 64 4947 45 4819 45 
C 4672 45 4288 51 3866 83 
C 3955 -38 4013 -243 4026 -378 
C 4384 -397 4762 -410 4979 -390 
C 5210 -365 5350 -314 5498 -122 
C 5754 192 5843 1184 5939 4122 
C 5946 4186 5946 4365 5946 4365 
L 4013 4365 
C 4115 4666 4211 4986 4288 5299 
L 3827 5402 
z
" transform="scale(0.015625)"/>
     <path id="NotoSansCJKjp-Regular-672c" d="M 2944 5370 
L 2944 4026 
L 416 4026 
L 416 3539 
L 2643 3539 
C 2099 2438 1171 1402 198 896 
C 307 800 461 621 544 499 
C 1478 1050 2355 2016 2944 3130 
L 2944 1171 
L 1690 1171 
L 1690 685 
L 2944 685 
L 2944 -512 
L 3450 -512 
L 3450 685 
L 4672 685 
L 4672 1171 
L 3450 1171 
L 3450 3123 
C 4026 2016 4896 1043 5856 512 
C 5939 646 6106 838 6221 934 
C 5210 1427 4288 2438 3744 3539 
L 5997 3539 
L 5997 4026 
L 3450 4026 
L 3450 5370 
L 2944 5370 
z
" transform="scale(0.015625)"/>
     <path id="NotoSansCJKjp-Regular-8d28" d="M 3802 442 
C 4448 205 5254 -198 5696 -474 
L 6035 -147 
C 5587 109 4781 493 4141 736 
L 3802 442 
z
M 3469 2227 
L 3469 1651 
C 3469 1139 3334 384 1357 -134 
C 1472 -230 1613 -403 1677 -506 
C 3744 102 3962 992 3962 1645 
L 3962 2227 
L 3469 2227 
z
M 1862 2944 
L 1862 730 
L 2342 730 
L 2342 2490 
L 5094 2490 
L 5094 704 
L 5594 704 
L 5594 2944 
L 3757 2944 
L 3846 3571 
L 6080 3571 
L 6080 4000 
L 3891 4000 
L 3962 4698 
C 4608 4768 5210 4851 5702 4960 
L 5318 5344 
C 4307 5114 2445 4966 896 4902 
L 896 3117 
C 896 2138 838 774 230 -192 
C 352 -237 563 -358 653 -435 
C 1280 570 1370 2074 1370 3117 
L 1370 3571 
L 3360 3571 
L 3290 2944 
L 1862 2944 
z
M 3398 4000 
L 1370 4000 
L 1370 4506 
C 2042 4531 2765 4582 3450 4646 
L 3398 4000 
z
" transform="scale(0.015625)"/>
     <path id="NotoSansCJKjp-Regular-ff1a" d="M 3200 3482 
C 3456 3482 3686 3667 3686 3962 
C 3686 4256 3456 4442 3200 4442 
C 2944 4442 2714 4256 2714 3962 
C 2714 3667 2944 3482 3200 3482 
z
M 3200 346 
C 3456 346 3686 538 3686 826 
C 3686 1120 3456 1312 3200 1312 
C 2944 1312 2714 1120 2714 826 
C 2714 538 2944 346 3200 346 
z
" transform="scale(0.015625)"/>
     <path id="NotoSansCJKjp-Regular-5f0f" d="M 4538 5062 
C 4870 4832 5267 4486 5459 4256 
L 5792 4557 
C 5600 4781 5190 5107 4864 5331 
L 4538 5062 
z
M 3616 5350 
C 3616 4954 3629 4563 3648 4179 
L 352 4179 
L 352 3712 
L 3680 3712 
C 3846 1331 4384 -525 5434 -525 
C 5926 -525 6106 -198 6189 922 
C 6054 973 5875 1082 5766 1190 
C 5722 333 5651 -26 5472 -26 
C 4838 -26 4339 1542 4179 3712 
L 6061 3712 
L 6061 4179 
L 4154 4179 
C 4134 4557 4128 4947 4128 5350 
L 3616 5350 
z
M 378 154 
L 531 -320 
C 1350 -141 2528 128 3616 384 
L 3578 819 
L 2208 525 
L 2208 2291 
L 3405 2291 
L 3405 2758 
L 576 2758 
L 576 2291 
L 1728 2291 
L 1728 429 
L 378 154 
z
" transform="scale(0.015625)"/>
     <path id="NotoSansCJKjp-Regular-62fc" d="M 2899 5158 
C 3130 4806 3366 4333 3462 4038 
L 3904 4243 
C 3795 4525 3539 4986 3309 5325 
L 2899 5158 
z
M 1050 5370 
L 1050 4083 
L 262 4083 
L 262 3635 
L 1050 3635 
L 1050 2234 
C 723 2131 422 2042 179 1978 
L 301 1504 
L 1050 1754 
L 1050 102 
C 1050 6 1018 -19 941 -19 
C 864 -19 621 -19 352 -13 
C 416 -147 474 -358 493 -486 
C 890 -486 1139 -467 1299 -390 
C 1459 -314 1517 -173 1517 102 
L 1517 1907 
L 2150 2125 
L 2086 2560 
L 1517 2381 
L 1517 3635 
L 2157 3635 
L 2157 4083 
L 1517 4083 
L 1517 5370 
L 1050 5370 
z
M 4685 3565 
L 4685 2278 
L 3757 2278 
L 3757 2342 
L 3757 3565 
L 4685 3565 
z
M 5178 5363 
C 5050 4960 4806 4390 4602 4019 
L 2515 4019 
L 2515 3565 
L 3290 3565 
L 3290 2342 
L 3290 2278 
L 2304 2278 
L 2304 1818 
L 3270 1818 
C 3219 1120 2995 320 2150 -198 
C 2259 -275 2406 -435 2477 -538 
C 3405 90 3674 1005 3738 1818 
L 4685 1818 
L 4685 -486 
L 5152 -486 
L 5152 1818 
L 6086 1818 
L 6086 2278 
L 5152 2278 
L 5152 3565 
L 5939 3565 
L 5939 4019 
L 5082 4019 
C 5274 4365 5491 4806 5683 5190 
L 5178 5363 
z
" transform="scale(0.015625)"/>
     <path id="NotoSansCJKjp-Regular-51fa" d="M 966 4768 
L 966 2560 
L 2918 2560 
L 2918 365 
L 1203 365 
L 1203 2144 
L 723 2144 
L 723 -512 
L 1203 -512 
L 1203 -109 
L 5222 -109 
L 5222 -499 
L 5715 -499 
L 5715 2144 
L 5222 2144 
L 5222 365 
L 3418 365 
L 3418 2560 
L 5459 2560 
L 5459 4768 
L 4960 4768 
L 4960 3021 
L 3418 3021 
L 3418 5344 
L 2918 5344 
L 2918 3021 
L 1446 3021 
L 1446 4768 
L 966 4768 
z
" transform="scale(0.015625)"/>
     <path id="NotoSansCJKjp-Regular-590d" d="M 2272 2835 
L 4186 2835 
L 4186 2387 
L 2272 2387 
L 2272 2835 
z
M 2272 3590 
L 4186 3590 
L 4186 3155 
L 2272 3155 
L 2272 3590 
z
M 2221 5389 
C 1965 4730 1517 4102 1011 3699 
C 1120 3629 1306 3450 1382 3366 
C 1536 3501 1683 3661 1830 3834 
L 1830 2048 
L 2547 2048 
C 2195 1549 1626 1120 1043 838 
C 1152 762 1312 595 1382 506 
C 1651 653 1920 838 2176 1050 
C 2368 806 2598 582 2861 390 
C 2330 122 1715 -58 1107 -154 
C 1190 -250 1293 -422 1331 -538 
C 2003 -410 2675 -198 3251 122 
C 3763 -179 4365 -397 5011 -518 
C 5082 -397 5203 -205 5312 -102 
C 4717 -19 4154 147 3667 384 
C 4102 691 4461 1075 4698 1555 
L 4397 1709 
L 4307 1690 
L 2810 1690 
C 2906 1805 2989 1926 3066 2048 
L 4640 2048 
L 4640 3930 
L 1907 3930 
C 2003 4051 2099 4186 2189 4320 
L 4960 4320 
L 4960 4736 
L 2438 4736 
C 2534 4909 2618 5082 2688 5261 
L 2221 5389 
z
M 2458 1299 
L 2483 1325 
L 4032 1325 
C 3834 1050 3565 813 3251 608 
C 2925 806 2656 1043 2458 1299 
z
" transform="scale(0.015625)"/>
     <path id="NotoSansCJKjp-Regular-6742" d="M 1683 1350 
C 1395 890 902 454 410 179 
C 525 96 710 -77 800 -166 
C 1286 160 1830 672 2163 1203 
L 1683 1350 
z
M 4077 1146 
C 4531 774 5062 237 5312 -109 
L 5734 134 
C 5472 486 4922 1005 4480 1363 
L 4077 1146 
z
M 2470 5376 
C 2438 5107 2400 4858 2342 4621 
L 653 4621 
L 653 4160 
L 2189 4160 
C 1914 3552 1395 3091 301 2822 
C 397 2726 525 2547 570 2426 
C 1837 2771 2413 3366 2701 4160 
L 4141 4160 
L 4141 3251 
C 4141 2765 4282 2630 4774 2630 
C 4877 2630 5389 2630 5491 2630 
C 5914 2630 6048 2822 6093 3629 
C 5965 3661 5760 3738 5664 3814 
C 5645 3162 5613 3078 5440 3078 
C 5331 3078 4922 3078 4832 3078 
C 4653 3078 4621 3104 4621 3258 
L 4621 4621 
L 2835 4621 
C 2893 4858 2925 5114 2957 5376 
L 2470 5376 
z
M 448 2157 
L 448 1702 
L 2918 1702 
L 2918 70 
C 2918 -13 2886 -38 2784 -45 
C 2682 -51 2330 -51 1965 -38 
C 2029 -173 2106 -365 2131 -499 
C 2630 -499 2957 -493 3155 -422 
C 3360 -346 3424 -211 3424 64 
L 3424 1702 
L 5926 1702 
L 5926 2157 
L 3424 2157 
L 3424 2752 
L 2918 2752 
L 2918 2157 
L 448 2157 
z
" transform="scale(0.015625)"/>
    </defs>
    <use xlink:href="#NotoSansCJKjp-Regular-51fd"/>
    <use xlink:href="#NotoSansCJKjp-Regular-6570" transform="translate(99.999985 0)"/>
    <use xlink:href="#NotoSansCJKjp-Regular-5e42" transform="translate(199.999969 0)"/>
    <use xlink:href="#NotoSansCJKjp-Regular-7ea7" transform="translate(299.999954 0)"/>
    <use xlink:href="#NotoSansCJKjp-Regular-6570" transform="translate(399.999939 0)"/>
    <use xlink:href="#NotoSansCJKjp-Regular-5c55" transform="translate(499.999924 0)"/>
    <use xlink:href="#NotoSansCJKjp-Regular-5f00" transform="translate(599.999908 0)"/>
    <use xlink:href="#NotoSansCJKjp-Regular-7684" transform="translate(699.999893 0)"/>
    <use xlink:href="#NotoSansCJKjp-Regular-672c" transform="translate(799.999878 0)"/>
    <use xlink:href="#NotoSansCJKjp-Regular-8d28" transform="translate(899.999863 0)"/>
    <use xlink:href="#NotoSansCJKjp-Regular-ff1a" transform="translate(999.999847 0)"/>
    <use xlink:href="#NotoSansCJKjp-Regular-7528" transform="translate(1099.999832 0)"/>
    <use xlink:href="#NotoSansCJKjp-Regular-591a" transform="translate(1199.999817 0)"/>
    <use xlink:href="#NotoSansCJKjp-Regular-9879" transform="translate(1299.999802 0)"/>
    <use xlink:href="#NotoSansCJKjp-Regular-5f0f" transform="translate(1399.999786 0)"/>
    <use xlink:href="#NotoSansCJKjp-Regular-62fc" transform="translate(1499.999771 0)"/>
    <use xlink:href="#NotoSansCJKjp-Regular-51fa" transform="translate(1599.999756 0)"/>
    <use xlink:href="#NotoSansCJKjp-Regular-590d" transform="translate(1699.999741 0)"/>
    <use xlink:href="#NotoSansCJKjp-Regular-6742" transform="translate(1799.999725 0)"/>
    <use xlink:href="#NotoSansCJKjp-Regular-51fd" transform="translate(1899.99971 0)"/>
    <use xlink:href="#NotoSansCJKjp-Regular-6570" transform="translate(1999.999695 0)"/>
   </g>
  </g>
 </g>
 <defs>
  <clipPath id="p0b93bea817">
   <rect x="37.470313" y="36" width="253.636364" height="221.76"/>
  </clipPath>
  <clipPath id="p0b4d4038d5">
   <rect x="341.833949" y="36" width="253.636364" height="221.76"/>
  </clipPath>
 </defs>
</svg>
