<?xml version="1.0" encoding="utf-8" standalone="no"?>
<!DOCTYPE svg PUBLIC "-//W3C//DTD SVG 1.1//EN"
  "http://www.w3.org/Graphics/SVG/1.1/DTD/svg11.dtd">
<svg xmlns:xlink="http://www.w3.org/1999/xlink" width="713.074687pt" height="285.84pt" viewBox="0 0 713.074687 285.84" xmlns="http://www.w3.org/2000/svg" version="1.1">
 <metadata>
  <rdf:RDF xmlns:dc="http://purl.org/dc/elements/1.1/" xmlns:cc="http://creativecommons.org/ns#" xmlns:rdf="http://www.w3.org/1999/02/22-rdf-syntax-ns#">
   <cc:Work>
    <dc:type rdf:resource="http://purl.org/dc/dcmitype/StillImage"/>
    <dc:date>2026-08-12T16:33:50.768208</dc:date>
    <dc:format>image/svg+xml</dc:format>
    <dc:creator>
     <cc:Agent>
      <dc:title>Matplotlib v3.11.1, https://matplotlib.org/</dc:title>
     </cc:Agent>
    </dc:creator>
   </cc:Work>
  </rdf:RDF>
 </metadata>
 <defs>
  <style type="text/css">*{stroke-linejoin: round; stroke-linecap: butt}</style>
 </defs>
 <g id="figure_1">
  <g id="patch_1">
   <path d="M -0 285.84 
L 713.074687 285.84 
L 713.074687 0 
L -0 0 
z
" style="fill: #ffffff"/>
  </g>
  <g id="axes_1">
   <g id="patch_2">
    <path d="M 42.079688 247.64 
L 344.449687 247.64 
L 344.449687 82.28 
L 42.079688 82.28 
z
" style="fill: #ffffff"/>
   </g>
   <g id="matplotlib.axis_1">
    <g id="xtick_1">
     <g id="line2d_1">
      <path d="M 42.079688 247.64 
L 42.079688 82.28 
" clip-path="url(#p0333fdb099)" style="fill: none; stroke: #b0b0b0; stroke-opacity: 0.3; stroke-width: 0.8; stroke-linecap: square"/>
     </g>
     <g id="line2d_2">
      <defs>
       <path id="mdebc18fb54" d="M 0 0 
L 0 3.5 
" style="stroke: #000000; stroke-width: 0.8"/>
      </defs>
      <g>
       <use xlink:href="#mdebc18fb54" x="42.079688" y="247.64" style="stroke: #000000; stroke-width: 0.8"/>
      </g>
     </g>
     <g id="text_1">
      <!-- 0 -->
      <g transform="translate(39.304688 263.44) scale(0.1 -0.1)">
       <defs>
        <path id="NotoSansCJKsc-Regular-11" d="M 1779 -83 
C 2669 -83 3238 723 3238 2362 
C 3238 3987 2669 4774 1779 4774 
C 883 4774 320 3987 320 2362 
C 320 723 883 -83 1779 -83 
z
M 1779 390 
C 1248 390 883 986 883 2362 
C 883 3731 1248 4314 1779 4314 
C 2310 4314 2675 3731 2675 2362 
C 2675 986 2310 390 1779 390 
z
" transform="scale(0.015625)"/>
       </defs>
       <use xlink:href="#NotoSansCJKsc-Regular-11"/>
      </g>
     </g>
    </g>
    <g id="xtick_2">
     <g id="line2d_3">
      <path d="M 92.474688 247.64 
L 92.474688 82.28 
" clip-path="url(#p0333fdb099)" style="fill: none; stroke: #b0b0b0; stroke-opacity: 0.3; stroke-width: 0.8; stroke-linecap: square"/>
     </g>
     <g id="line2d_4">
      <g>
       <use xlink:href="#mdebc18fb54" x="92.474688" y="247.64" style="stroke: #000000; stroke-width: 0.8"/>
      </g>
     </g>
     <g id="text_2">
      <!-- 2 -->
      <g transform="translate(89.699687 263.44) scale(0.1 -0.1)">
       <defs>
        <path id="NotoSansCJKsc-Regular-13" d="M 282 0 
L 3232 0 
L 3232 506 
L 1933 506 
C 1696 506 1408 480 1165 461 
C 2266 1504 3008 2458 3008 3398 
C 3008 4230 2477 4774 1638 4774 
C 1043 4774 634 4506 256 4090 
L 595 3757 
C 858 4070 1184 4301 1568 4301 
C 2150 4301 2432 3910 2432 3373 
C 2432 2566 1754 1632 282 346 
L 282 0 
z
" transform="scale(0.015625)"/>
       </defs>
       <use xlink:href="#NotoSansCJKsc-Regular-13"/>
      </g>
     </g>
    </g>
    <g id="xtick_3">
     <g id="line2d_5">
      <path d="M 142.869687 247.64 
L 142.869687 82.28 
" clip-path="url(#p0333fdb099)" style="fill: none; stroke: #b0b0b0; stroke-opacity: 0.3; stroke-width: 0.8; stroke-linecap: square"/>
     </g>
     <g id="line2d_6">
      <g>
       <use xlink:href="#mdebc18fb54" x="142.869687" y="247.64" style="stroke: #000000; stroke-width: 0.8"/>
      </g>
     </g>
     <g id="text_3">
      <!-- 4 -->
      <g transform="translate(140.094687 263.44) scale(0.1 -0.1)">
       <defs>
        <path id="NotoSansCJKsc-Regular-15" d="M 2176 0 
L 2726 0 
L 2726 1293 
L 3354 1293 
L 3354 1760 
L 2726 1760 
L 2726 4691 
L 2080 4691 
L 128 1677 
L 128 1293 
L 2176 1293 
L 2176 0 
z
M 2176 1760 
L 736 1760 
L 1805 3360 
C 1939 3590 2067 3827 2182 4051 
L 2208 4051 
C 2195 3814 2176 3430 2176 3200 
L 2176 1760 
z
" transform="scale(0.015625)"/>
       </defs>
       <use xlink:href="#NotoSansCJKsc-Regular-15"/>
      </g>
     </g>
    </g>
    <g id="xtick_4">
     <g id="line2d_7">
      <path d="M 193.264688 247.64 
L 193.264688 82.28 
" clip-path="url(#p0333fdb099)" style="fill: none; stroke: #b0b0b0; stroke-opacity: 0.3; stroke-width: 0.8; stroke-linecap: square"/>
     </g>
     <g id="line2d_8">
      <g>
       <use xlink:href="#mdebc18fb54" x="193.264688" y="247.64" style="stroke: #000000; stroke-width: 0.8"/>
      </g>
     </g>
     <g id="text_4">
      <!-- 6 -->
      <g transform="translate(190.489688 263.44) scale(0.1 -0.1)">
       <defs>
        <path id="NotoSansCJKsc-Regular-17" d="M 1926 -83 
C 2656 -83 3277 531 3277 1440 
C 3277 2426 2765 2912 1971 2912 
C 1606 2912 1197 2701 909 2349 
C 934 3802 1466 4294 2118 4294 
C 2400 4294 2682 4154 2861 3936 
L 3194 4294 
C 2931 4576 2579 4774 2093 4774 
C 1184 4774 358 4077 358 2240 
C 358 691 1030 -83 1926 -83 
z
M 922 1882 
C 1229 2317 1587 2477 1875 2477 
C 2445 2477 2720 2074 2720 1440 
C 2720 800 2374 378 1926 378 
C 1338 378 986 909 922 1882 
z
" transform="scale(0.015625)"/>
       </defs>
       <use xlink:href="#NotoSansCJKsc-Regular-17"/>
      </g>
     </g>
    </g>
    <g id="xtick_5">
     <g id="line2d_9">
      <path d="M 243.659687 247.64 
L 243.659687 82.28 
" clip-path="url(#p0333fdb099)" style="fill: none; stroke: #b0b0b0; stroke-opacity: 0.3; stroke-width: 0.8; stroke-linecap: square"/>
     </g>
     <g id="line2d_10">
      <g>
       <use xlink:href="#mdebc18fb54" x="243.659687" y="247.64" style="stroke: #000000; stroke-width: 0.8"/>
      </g>
     </g>
     <g id="text_5">
      <!-- 8 -->
      <g transform="translate(240.884687 263.44) scale(0.1 -0.1)">
       <defs>
        <path id="NotoSansCJKsc-Regular-19" d="M 1792 -83 
C 2669 -83 3258 448 3258 1126 
C 3258 1773 2880 2125 2470 2362 
L 2470 2394 
C 2746 2611 3091 3034 3091 3526 
C 3091 4250 2605 4762 1805 4762 
C 1075 4762 518 4282 518 3571 
C 518 3078 813 2726 1152 2490 
L 1152 2464 
C 723 2234 294 1792 294 1165 
C 294 442 922 -83 1792 -83 
z
M 2112 2547 
C 1555 2765 1050 3014 1050 3571 
C 1050 4026 1363 4326 1798 4326 
C 2298 4326 2592 3962 2592 3494 
C 2592 3149 2426 2829 2112 2547 
z
M 1798 352 
C 1235 352 813 717 813 1216 
C 813 1664 1082 2035 1459 2278 
C 2125 2010 2701 1779 2701 1146 
C 2701 678 2342 352 1798 352 
z
" transform="scale(0.015625)"/>
       </defs>
       <use xlink:href="#NotoSansCJKsc-Regular-19"/>
      </g>
     </g>
    </g>
    <g id="xtick_6">
     <g id="line2d_11">
      <path d="M 294.054688 247.64 
L 294.054688 82.28 
" clip-path="url(#p0333fdb099)" style="fill: none; stroke: #b0b0b0; stroke-opacity: 0.3; stroke-width: 0.8; stroke-linecap: square"/>
     </g>
     <g id="line2d_12">
      <g>
       <use xlink:href="#mdebc18fb54" x="294.054688" y="247.64" style="stroke: #000000; stroke-width: 0.8"/>
      </g>
     </g>
     <g id="text_6">
      <!-- 10 -->
      <g transform="translate(288.504687 263.44) scale(0.1 -0.1)">
       <defs>
        <path id="NotoSansCJKsc-Regular-12" d="M 563 0 
L 3136 0 
L 3136 486 
L 2195 486 
L 2195 4691 
L 1747 4691 
C 1491 4544 1190 4435 774 4358 
L 774 3987 
L 1613 3987 
L 1613 486 
L 563 486 
L 563 0 
z
" transform="scale(0.015625)"/>
       </defs>
       <use xlink:href="#NotoSansCJKsc-Regular-12"/>
       <use xlink:href="#NotoSansCJKsc-Regular-11" transform="translate(55.5 0)"/>
      </g>
     </g>
    </g>
    <g id="xtick_7">
     <g id="line2d_13">
      <path d="M 344.449687 247.64 
L 344.449687 82.28 
" clip-path="url(#p0333fdb099)" style="fill: none; stroke: #b0b0b0; stroke-opacity: 0.3; stroke-width: 0.8; stroke-linecap: square"/>
     </g>
     <g id="line2d_14">
      <g>
       <use xlink:href="#mdebc18fb54" x="344.449687" y="247.64" style="stroke: #000000; stroke-width: 0.8"/>
      </g>
     </g>
     <g id="text_7">
      <!-- 12 -->
      <g transform="translate(338.899687 263.44) scale(0.1 -0.1)">
       <use xlink:href="#NotoSansCJKsc-Regular-12"/>
       <use xlink:href="#NotoSansCJKsc-Regular-13" transform="translate(55.5 0)"/>
      </g>
     </g>
    </g>
    <g id="text_8">
     <!-- x -->
     <g transform="translate(190.774844 277.44) scale(0.1 -0.1)">
      <defs>
       <path id="NotoSansCJKsc-Regular-59" d="M 96 0 
L 710 0 
L 1178 813 
C 1299 1024 1408 1235 1530 1434 
L 1562 1434 
C 1696 1235 1824 1024 1939 813 
L 2451 0 
L 3091 0 
L 1946 1754 
L 3002 3475 
L 2394 3475 
L 1965 2714 
C 1856 2515 1760 2330 1658 2131 
L 1626 2131 
C 1510 2330 1389 2515 1286 2714 
L 819 3475 
L 186 3475 
L 1242 1811 
L 96 0 
z
" transform="scale(0.015625)"/>
      </defs>
      <use xlink:href="#NotoSansCJKsc-Regular-59"/>
     </g>
    </g>
   </g>
   <g id="matplotlib.axis_2">
    <g id="ytick_1">
     <g id="line2d_15">
      <path d="M 42.079688 247.64 
L 344.449687 247.64 
" clip-path="url(#p0333fdb099)" style="fill: none; stroke: #b0b0b0; stroke-opacity: 0.3; stroke-width: 0.8; stroke-linecap: square"/>
     </g>
     <g id="line2d_16">
      <defs>
       <path id="m2d020b027a" d="M 0 0 
L -3.5 0 
" style="stroke: #000000; stroke-width: 0.8"/>
      </defs>
      <g>
       <use xlink:href="#m2d020b027a" x="42.079688" y="247.64" style="stroke: #000000; stroke-width: 0.8"/>
      </g>
     </g>
     <g id="text_9">
      <!-- 0.0 -->
      <g transform="translate(21.2 252.04) scale(0.1 -0.1)">
       <defs>
        <path id="NotoSansCJKsc-Regular-f" d="M 890 -83 
C 1120 -83 1312 96 1312 358 
C 1312 627 1120 806 890 806 
C 653 806 467 627 467 358 
C 467 96 653 -83 890 -83 
z
" transform="scale(0.015625)"/>
       </defs>
       <use xlink:href="#NotoSansCJKsc-Regular-11"/>
       <use xlink:href="#NotoSansCJKsc-Regular-f" transform="translate(55.5 0)"/>
       <use xlink:href="#NotoSansCJKsc-Regular-11" transform="translate(83.296875 0)"/>
      </g>
     </g>
    </g>
    <g id="ytick_2">
     <g id="line2d_17">
      <path d="M 42.079688 220.08 
L 344.449687 220.08 
" clip-path="url(#p0333fdb099)" style="fill: none; stroke: #b0b0b0; stroke-opacity: 0.3; stroke-width: 0.8; stroke-linecap: square"/>
     </g>
     <g id="line2d_18">
      <g>
       <use xlink:href="#m2d020b027a" x="42.079688" y="220.08" style="stroke: #000000; stroke-width: 0.8"/>
      </g>
     </g>
     <g id="text_10">
      <!-- 0.1 -->
      <g transform="translate(21.2 224.48) scale(0.1 -0.1)">
       <use xlink:href="#NotoSansCJKsc-Regular-11"/>
       <use xlink:href="#NotoSansCJKsc-Regular-f" transform="translate(55.5 0)"/>
       <use xlink:href="#NotoSansCJKsc-Regular-12" transform="translate(83.296875 0)"/>
      </g>
     </g>
    </g>
    <g id="ytick_3">
     <g id="line2d_19">
      <path d="M 42.079688 192.52 
L 344.449687 192.52 
" clip-path="url(#p0333fdb099)" style="fill: none; stroke: #b0b0b0; stroke-opacity: 0.3; stroke-width: 0.8; stroke-linecap: square"/>
     </g>
     <g id="line2d_20">
      <g>
       <use xlink:href="#m2d020b027a" x="42.079688" y="192.52" style="stroke: #000000; stroke-width: 0.8"/>
      </g>
     </g>
     <g id="text_11">
      <!-- 0.2 -->
      <g transform="translate(21.2 196.92) scale(0.1 -0.1)">
       <use xlink:href="#NotoSansCJKsc-Regular-11"/>
       <use xlink:href="#NotoSansCJKsc-Regular-f" transform="translate(55.5 0)"/>
       <use xlink:href="#NotoSansCJKsc-Regular-13" transform="translate(83.296875 0)"/>
      </g>
     </g>
    </g>
    <g id="ytick_4">
     <g id="line2d_21">
      <path d="M 42.079688 164.96 
L 344.449687 164.96 
" clip-path="url(#p0333fdb099)" style="fill: none; stroke: #b0b0b0; stroke-opacity: 0.3; stroke-width: 0.8; stroke-linecap: square"/>
     </g>
     <g id="line2d_22">
      <g>
       <use xlink:href="#m2d020b027a" x="42.079688" y="164.96" style="stroke: #000000; stroke-width: 0.8"/>
      </g>
     </g>
     <g id="text_12">
      <!-- 0.3 -->
      <g transform="translate(21.2 169.36) scale(0.1 -0.1)">
       <defs>
        <path id="NotoSansCJKsc-Regular-14" d="M 1683 -83 
C 2522 -83 3194 416 3194 1254 
C 3194 1901 2752 2310 2202 2445 
L 2202 2477 
C 2701 2650 3034 3034 3034 3603 
C 3034 4346 2458 4774 1664 4774 
C 1126 4774 710 4538 358 4218 
L 672 3846 
C 941 4115 1267 4301 1645 4301 
C 2138 4301 2438 4006 2438 3558 
C 2438 3053 2112 2662 1139 2662 
L 1139 2214 
C 2227 2214 2598 1843 2598 1274 
C 2598 736 2208 403 1645 403 
C 1114 403 762 659 486 941 
L 186 563 
C 493 224 954 -83 1683 -83 
z
" transform="scale(0.015625)"/>
       </defs>
       <use xlink:href="#NotoSansCJKsc-Regular-11"/>
       <use xlink:href="#NotoSansCJKsc-Regular-f" transform="translate(55.5 0)"/>
       <use xlink:href="#NotoSansCJKsc-Regular-14" transform="translate(83.296875 0)"/>
      </g>
     </g>
    </g>
    <g id="ytick_5">
     <g id="line2d_23">
      <path d="M 42.079688 137.4 
L 344.449687 137.4 
" clip-path="url(#p0333fdb099)" style="fill: none; stroke: #b0b0b0; stroke-opacity: 0.3; stroke-width: 0.8; stroke-linecap: square"/>
     </g>
     <g id="line2d_24">
      <g>
       <use xlink:href="#m2d020b027a" x="42.079688" y="137.4" style="stroke: #000000; stroke-width: 0.8"/>
      </g>
     </g>
     <g id="text_13">
      <!-- 0.4 -->
      <g transform="translate(21.2 141.8) scale(0.1 -0.1)">
       <use xlink:href="#NotoSansCJKsc-Regular-11"/>
       <use xlink:href="#NotoSansCJKsc-Regular-f" transform="translate(55.5 0)"/>
       <use xlink:href="#NotoSansCJKsc-Regular-15" transform="translate(83.296875 0)"/>
      </g>
     </g>
    </g>
    <g id="ytick_6">
     <g id="line2d_25">
      <path d="M 42.079688 109.84 
L 344.449687 109.84 
" clip-path="url(#p0333fdb099)" style="fill: none; stroke: #b0b0b0; stroke-opacity: 0.3; stroke-width: 0.8; stroke-linecap: square"/>
     </g>
     <g id="line2d_26">
      <g>
       <use xlink:href="#m2d020b027a" x="42.079688" y="109.84" style="stroke: #000000; stroke-width: 0.8"/>
      </g>
     </g>
     <g id="text_14">
      <!-- 0.5 -->
      <g transform="translate(21.2 114.24) scale(0.1 -0.1)">
       <defs>
        <path id="NotoSansCJKsc-Regular-16" d="M 1677 -83 
C 2464 -83 3213 499 3213 1523 
C 3213 2560 2573 3021 1798 3021 
C 1517 3021 1306 2950 1094 2835 
L 1216 4192 
L 2982 4192 
L 2982 4691 
L 704 4691 
L 550 2502 
L 864 2304 
C 1133 2483 1331 2579 1645 2579 
C 2234 2579 2618 2182 2618 1510 
C 2618 826 2176 403 1619 403 
C 1075 403 730 653 467 922 
L 173 538 
C 493 224 941 -83 1677 -83 
z
" transform="scale(0.015625)"/>
       </defs>
       <use xlink:href="#NotoSansCJKsc-Regular-11"/>
       <use xlink:href="#NotoSansCJKsc-Regular-f" transform="translate(55.5 0)"/>
       <use xlink:href="#NotoSansCJKsc-Regular-16" transform="translate(83.296875 0)"/>
      </g>
     </g>
    </g>
    <g id="ytick_7">
     <g id="line2d_27">
      <path d="M 42.079688 82.28 
L 344.449687 82.28 
" clip-path="url(#p0333fdb099)" style="fill: none; stroke: #b0b0b0; stroke-opacity: 0.3; stroke-width: 0.8; stroke-linecap: square"/>
     </g>
     <g id="line2d_28">
      <g>
       <use xlink:href="#m2d020b027a" x="42.079688" y="82.28" style="stroke: #000000; stroke-width: 0.8"/>
      </g>
     </g>
     <g id="text_15">
      <!-- 0.6 -->
      <g transform="translate(21.2 86.68) scale(0.1 -0.1)">
       <use xlink:href="#NotoSansCJKsc-Regular-11"/>
       <use xlink:href="#NotoSansCJKsc-Regular-f" transform="translate(55.5 0)"/>
       <use xlink:href="#NotoSansCJKsc-Regular-17" transform="translate(83.296875 0)"/>
      </g>
     </g>
    </g>
    <g id="text_16">
     <!-- 密度 -->
     <g transform="translate(16 174.96) rotate(-90) scale(0.1 -0.1)">
      <defs>
       <path id="NotoSansCJKsc-Regular-3ce2" d="M 1165 3539 
C 986 3149 678 2682 301 2400 
L 691 2163 
C 1062 2470 1350 2957 1555 3360 
L 1165 3539 
z
M 2253 4019 
C 2650 3834 3123 3539 3354 3315 
L 3610 3629 
C 3373 3840 2886 4128 2496 4301 
L 2253 4019 
z
M 4666 3270 
C 5075 2918 5542 2406 5747 2067 
L 6112 2336 
C 5901 2675 5421 3162 5018 3507 
L 4666 3270 
z
M 4403 4083 
C 3910 3482 3194 2982 2368 2586 
L 2368 3642 
L 1933 3642 
L 1933 2406 
L 1933 2387 
C 1395 2163 819 1978 243 1837 
C 333 1741 474 1536 531 1434 
C 1043 1581 1562 1760 2054 1971 
C 2176 1843 2400 1805 2790 1805 
C 2931 1805 4000 1805 4154 1805 
C 4710 1805 4851 1990 4915 2752 
C 4794 2778 4614 2842 4506 2912 
C 4486 2291 4429 2202 4122 2202 
C 3885 2202 2989 2202 2816 2202 
L 2573 2214 
C 3456 2643 4250 3194 4813 3878 
L 4403 4083 
z
M 1030 1254 
L 1030 -218 
L 4934 -218 
L 4934 -499 
L 5414 -499 
L 5414 1306 
L 4934 1306 
L 4934 237 
L 3430 237 
L 3430 1600 
L 2944 1600 
L 2944 237 
L 1504 237 
L 1504 1254 
L 1030 1254 
z
M 2829 5363 
C 2893 5203 2950 4998 2989 4826 
L 493 4826 
L 493 3571 
L 966 3571 
L 966 4390 
L 5434 4390 
L 5434 3571 
L 5920 3571 
L 5920 4826 
L 3488 4826 
C 3450 5011 3366 5248 3283 5440 
L 2829 5363 
z
" transform="scale(0.015625)"/>
       <path id="NotoSansCJKsc-Regular-4232" d="M 2470 4122 
L 2470 3565 
L 1440 3565 
L 1440 3168 
L 2470 3168 
L 2470 2106 
L 4960 2106 
L 4960 3168 
L 5997 3168 
L 5997 3565 
L 4960 3565 
L 4960 4122 
L 4486 4122 
L 4486 3565 
L 2931 3565 
L 2931 4122 
L 2470 4122 
z
M 4486 3168 
L 4486 2490 
L 2931 2490 
L 2931 3168 
L 4486 3168 
z
M 4845 1299 
C 4563 966 4166 704 3706 499 
C 3251 710 2880 979 2611 1299 
L 4845 1299 
z
M 1530 1696 
L 1530 1299 
L 2362 1299 
L 2144 1210 
C 2406 851 2758 550 3181 301 
C 2579 109 1907 -6 1229 -64 
C 1299 -173 1389 -358 1421 -474 
C 2221 -384 3002 -224 3686 45 
C 4320 -237 5069 -416 5875 -512 
C 5933 -390 6054 -198 6157 -96 
C 5453 -32 4794 96 4224 294 
C 4787 595 5254 1005 5549 1555 
L 5248 1715 
L 5165 1696 
L 1530 1696 
z
M 3027 5293 
C 3117 5126 3213 4922 3283 4742 
L 806 4742 
L 806 2995 
C 806 2042 762 672 237 -294 
C 358 -333 570 -435 666 -512 
C 1203 499 1286 1978 1286 3002 
L 1286 4288 
L 6067 4288 
L 6067 4742 
L 3827 4742 
C 3750 4947 3622 5203 3507 5408 
L 3027 5293 
z
" transform="scale(0.015625)"/>
      </defs>
      <use xlink:href="#NotoSansCJKsc-Regular-3ce2"/>
      <use xlink:href="#NotoSansCJKsc-Regular-4232" transform="translate(100 0)"/>
     </g>
    </g>
   </g>
   <g id="line2d_29">
    <path d="M 46.26901 -1 
L 46.874791 18.476343 
L 47.631979 37.850715 
L 48.389167 53.775915 
L 49.903543 78.699759 
L 51.417919 97.581502 
L 52.932295 112.564911 
L 54.446671 124.850901 
L 55.961047 135.173003 
L 57.475423 144.00886 
L 58.989799 151.685211 
L 60.504175 158.434511 
L 62.018551 164.427517 
L 64.290115 172.272464 
L 66.56168 179.01798 
L 68.833244 184.889063 
L 71.104808 190.049871 
L 73.376372 194.623629 
L 75.647936 198.705076 
L 77.9195 202.368542 
L 80.191064 205.673367 
L 82.462628 208.667652 
L 85.49138 212.244262 
L 88.520132 215.414109 
L 91.548885 218.237485 
L 94.577637 220.763077 
L 97.606389 223.030739 
L 101.392329 225.552358 
L 105.178269 227.775086 
L 108.964209 229.74189 
L 112.75015 231.488067 
L 117.293278 233.333167 
L 121.836406 234.944313 
L 127.136722 236.573568 
L 132.437038 237.974955 
L 138.494543 239.343188 
L 145.309235 240.635882 
L 152.881115 241.822588 
L 161.210184 242.884319 
L 170.29644 243.81221 
L 180.897072 244.659121 
L 193.012081 245.392135 
L 207.398654 246.025569 
L 224.813978 246.553102 
L 246.015243 246.964471 
L 274.0312 247.276708 
L 314.919354 247.491189 
L 344.449687 247.561326 
L 344.449687 247.561326 
" clip-path="url(#p0333fdb099)" style="fill: none; stroke: #4c72b0; stroke-width: 2.2; stroke-linecap: square"/>
   </g>
   <g id="line2d_30">
    <path d="M 42.331663 236.699988 
L 43.088851 226.072766 
L 43.846039 219.532191 
L 44.603227 214.544557 
L 45.360415 210.467401 
L 46.874791 204.029984 
L 48.389167 199.096239 
L 49.903543 195.183843 
L 51.417919 192.028095 
L 52.932295 189.462922 
L 54.446671 187.374864 
L 55.961047 185.681678 
L 57.475423 184.321114 
L 58.989799 183.244476 
L 60.504175 182.412678 
L 62.018551 181.793691 
L 63.532927 181.360828 
L 65.804492 181.012113 
L 68.076056 180.969278 
L 70.34762 181.181592 
L 72.619184 181.607469 
L 75.647936 182.448625 
L 78.676688 183.541578 
L 82.462628 185.180708 
L 87.005756 187.44014 
L 92.306073 190.342573 
L 100.635141 195.198571 
L 116.53609 204.506914 
L 124.865158 209.086994 
L 132.437038 212.981488 
L 139.251731 216.244232 
L 146.066423 219.269845 
L 152.881115 222.05899 
L 159.695808 224.617593 
L 166.5105 226.955094 
L 174.08238 229.307235 
L 181.65426 231.418661 
L 189.226141 233.308045 
L 197.555209 235.152278 
L 205.884278 236.77482 
L 214.970534 238.319134 
L 224.813978 239.757729 
L 235.414611 241.070349 
L 246.772431 242.244163 
L 258.88744 243.273433 
L 272.516824 244.205025 
L 287.660585 245.014339 
L 305.07591 245.716757 
L 325.519987 246.309218 
L 344.449687 246.695911 
L 344.449687 246.695911 
" clip-path="url(#p0333fdb099)" style="fill: none; stroke: #c44e52; stroke-width: 2.2; stroke-linecap: square"/>
   </g>
   <g id="line2d_31">
    <path d="M 42.331663 247.603533 
L 43.088851 247.352077 
L 44.603227 246.53516 
L 46.117603 245.46995 
L 48.389167 243.588198 
L 51.417919 240.770048 
L 58.232611 233.987702 
L 63.532927 228.829893 
L 68.076056 224.711844 
L 71.861996 221.559787 
L 75.647936 218.690564 
L 79.433876 216.116855 
L 83.219816 213.84188 
L 87.005756 211.862071 
L 90.791697 210.169014 
L 94.577637 208.750885 
L 98.363577 207.593535 
L 102.149517 206.681303 
L 105.935457 205.997649 
L 109.721397 205.525623 
L 113.507338 205.24823 
L 118.050466 205.148697 
L 122.593594 205.277193 
L 127.89391 205.679546 
L 133.194226 206.315684 
L 139.251731 207.281618 
L 146.066423 208.61338 
L 153.638303 210.323949 
L 163.481748 212.794142 
L 178.625508 216.863186 
L 200.583961 222.74376 
L 213.456158 225.959517 
L 225.571166 228.753078 
L 236.928987 231.142958 
L 248.286807 233.303809 
L 259.644628 235.238274 
L 271.002448 236.955537 
L 283.117457 238.563006 
L 295.989653 240.03842 
L 309.619038 241.366494 
L 324.005611 242.539055 
L 339.906559 243.600175 
L 344.449687 243.863643 
L 344.449687 243.863643 
" clip-path="url(#p0333fdb099)" style="fill: none; stroke: #2e7d32; stroke-width: 2.2; stroke-linecap: square"/>
   </g>
   <g id="patch_3">
    <path d="M 42.079688 247.64 
L 42.079688 82.28 
" style="fill: none; stroke: #000000; stroke-width: 0.8; stroke-linejoin: miter; stroke-linecap: square"/>
   </g>
   <g id="patch_4">
    <path d="M 344.449687 247.64 
L 344.449687 82.28 
" style="fill: none; stroke: #000000; stroke-width: 0.8; stroke-linejoin: miter; stroke-linecap: square"/>
   </g>
   <g id="patch_5">
    <path d="M 42.079688 247.64 
L 344.449687 247.64 
" style="fill: none; stroke: #000000; stroke-width: 0.8; stroke-linejoin: miter; stroke-linecap: square"/>
   </g>
   <g id="patch_6">
    <path d="M 42.079688 82.28 
L 344.449687 82.28 
" style="fill: none; stroke: #000000; stroke-width: 0.8; stroke-linejoin: miter; stroke-linecap: square"/>
   </g>
   <g id="text_17">
    <!-- $\chi^2$ 分布：自由度越大越右偏越平缓 -->
    <g transform="translate(108.894688 76.28) scale(0.11 -0.11)">
     <defs>
      <path id="DejaVuSans-Oblique-35b" d="M 1922 -781 
L 1691 416 
L 394 -1334 
L -284 -1334 
L 1553 1141 
L 1269 2613 
Q 1194 3006 713 3006 
L 559 3006 
L 653 3500 
L 872 3494 
Q 1675 3472 1775 2950 
L 2006 1753 
L 3303 3503 
L 3981 3503 
L 2144 1028 
L 2428 -444 
Q 2503 -838 2984 -838 
L 3138 -838 
L 3044 -1331 
L 2825 -1325 
Q 2022 -1303 1922 -781 
z
" transform="scale(0.015625)"/>
      <path id="DejaVuSans-15" d="M 1228 531 
L 3431 531 
L 3431 0 
L 469 0 
L 469 531 
Q 828 903 1448 1529 
Q 2069 2156 2228 2338 
Q 2531 2678 2651 2914 
Q 2772 3150 2772 3378 
Q 2772 3750 2511 3984 
Q 2250 4219 1831 4219 
Q 1534 4219 1204 4116 
Q 875 4013 500 3803 
L 500 4441 
Q 881 4594 1212 4672 
Q 1544 4750 1819 4750 
Q 2544 4750 2975 4387 
Q 3406 4025 3406 3419 
Q 3406 3131 3298 2873 
Q 3191 2616 2906 2266 
Q 2828 2175 2409 1742 
Q 1991 1309 1228 531 
z
" transform="scale(0.015625)"/>
      <path id="NotoSansCJKsc-Regular-1" transform="scale(0.015625)"/>
      <path id="NotoSansCJKsc-Regular-2b87" d="M 4307 5261 
L 3866 5082 
C 4320 4134 5088 3091 5760 2515 
C 5856 2643 6029 2822 6150 2918 
C 5485 3418 4704 4397 4307 5261 
z
M 2074 5248 
C 1702 4269 1050 3379 282 2829 
C 397 2739 608 2554 691 2458 
C 864 2598 1030 2752 1197 2925 
L 1197 2483 
L 2432 2483 
C 2285 1395 1933 378 416 -122 
C 525 -224 653 -410 710 -531 
C 2342 58 2765 1216 2938 2483 
L 4678 2483 
C 4608 883 4512 256 4352 90 
C 4288 26 4211 13 4077 13 
C 3930 13 3533 13 3117 51 
C 3206 -83 3264 -288 3277 -429 
C 3680 -454 4070 -461 4288 -442 
C 4506 -422 4653 -378 4787 -218 
C 5011 32 5094 762 5190 2726 
C 5197 2790 5197 2957 5197 2957 
L 1229 2957 
C 1773 3539 2253 4288 2586 5107 
L 2074 5248 
z
" transform="scale(0.015625)"/>
      <path id="NotoSansCJKsc-Regular-412d" d="M 2554 5382 
C 2464 5056 2349 4723 2214 4397 
L 390 4397 
L 390 3930 
L 2003 3930 
C 1574 3078 979 2291 198 1760 
C 288 1658 416 1472 486 1350 
C 832 1594 1146 1882 1421 2195 
L 1421 83 
L 1901 83 
L 1901 2304 
L 3258 2304 
L 3258 -518 
L 3744 -518 
L 3744 2304 
L 5190 2304 
L 5190 698 
C 5190 608 5158 582 5050 576 
C 4947 576 4576 570 4166 582 
C 4230 461 4307 282 4326 147 
C 4877 147 5216 147 5414 224 
C 5613 301 5670 435 5670 691 
L 5670 2758 
L 5190 2758 
L 3744 2758 
L 3744 3622 
L 3258 3622 
L 3258 2758 
L 1862 2758 
C 2118 3130 2342 3520 2534 3930 
L 6022 3930 
L 6022 4397 
L 2739 4397 
C 2854 4685 2957 4979 3046 5267 
L 2554 5382 
z
" transform="scale(0.015625)"/>
      <path id="NotoSansCJKsc-Regular-f6ae" d="M 1600 3110 
C 1856 3110 2086 3296 2086 3584 
C 2086 3878 1856 4070 1600 4070 
C 1344 4070 1114 3878 1114 3584 
C 1114 3296 1344 3110 1600 3110 
z
M 1600 -26 
C 1856 -26 2086 166 2086 454 
C 2086 749 1856 934 1600 934 
C 1344 934 1114 749 1114 454 
C 1114 166 1344 -26 1600 -26 
z
" transform="scale(0.015625)"/>
      <path id="NotoSansCJKsc-Regular-8205" d="M 1530 2630 
L 4954 2630 
L 4954 1690 
L 1530 1690 
L 1530 2630 
z
M 1530 3085 
L 1530 4038 
L 4954 4038 
L 4954 3085 
L 1530 3085 
z
M 1530 1242 
L 4954 1242 
L 4954 294 
L 1530 294 
L 1530 1242 
z
M 2912 5389 
C 2861 5133 2758 4781 2662 4499 
L 1043 4499 
L 1043 -518 
L 1530 -518 
L 1530 -160 
L 4954 -160 
L 4954 -486 
L 5459 -486 
L 5459 4499 
L 3149 4499 
C 3258 4742 3366 5037 3469 5312 
L 2912 5389 
z
" transform="scale(0.015625)"/>
      <path id="NotoSansCJKsc-Regular-69ba" d="M 1210 1786 
L 2938 1786 
L 2938 365 
L 1210 365 
L 1210 1786 
z
M 5184 1786 
L 5184 365 
L 3424 365 
L 3424 1786 
L 5184 1786 
z
M 1210 2259 
L 1210 3654 
L 2938 3654 
L 2938 2259 
L 1210 2259 
z
M 5184 2259 
L 3424 2259 
L 3424 3654 
L 5184 3654 
L 5184 2259 
z
M 2938 5376 
L 2938 4134 
L 730 4134 
L 730 -512 
L 1210 -512 
L 1210 -115 
L 5184 -115 
L 5184 -486 
L 5683 -486 
L 5683 4134 
L 3424 4134 
L 3424 5376 
L 2938 5376 
z
" transform="scale(0.015625)"/>
      <path id="NotoSansCJKsc-Regular-98c9" d="M 5050 5139 
C 5261 4896 5536 4557 5670 4346 
L 6016 4557 
C 5875 4755 5600 5075 5382 5312 
L 5050 5139 
z
M 646 2483 
C 666 1632 614 557 166 -211 
C 269 -256 422 -397 493 -493 
C 730 -102 870 352 947 819 
C 1440 -122 2246 -346 3648 -346 
L 6010 -346 
C 6042 -205 6131 19 6208 128 
C 5824 115 3942 115 3648 115 
C 2976 115 2451 173 2042 352 
L 2042 1600 
L 2944 1600 
L 2944 2029 
L 2042 2029 
L 2042 2912 
L 3040 2912 
L 3040 3341 
L 1946 3341 
L 1946 4160 
L 2912 4160 
L 2912 4582 
L 1946 4582 
L 1946 5376 
L 1504 5376 
L 1504 4582 
L 518 4582 
L 518 4160 
L 1504 4160 
L 1504 3341 
L 282 3341 
L 282 2912 
L 1606 2912 
L 1606 640 
C 1363 864 1178 1184 1037 1626 
C 1050 1914 1056 2189 1050 2458 
L 646 2483 
z
M 3123 902 
C 3219 1011 3379 1120 4480 1760 
C 4435 1837 4384 2016 4365 2131 
L 3642 1734 
L 3642 3853 
L 4474 3853 
C 4525 2995 4621 2234 4762 1651 
C 4435 1210 4045 851 3603 614 
C 3699 531 3827 378 3898 269 
C 4269 499 4614 800 4909 1165 
C 5082 710 5306 442 5594 442 
C 5965 442 6099 710 6163 1581 
C 6061 1619 5920 1709 5824 1805 
C 5805 1158 5754 870 5645 870 
C 5485 870 5338 1126 5210 1581 
C 5549 2093 5824 2694 6010 3347 
L 5632 3443 
C 5498 2982 5318 2547 5088 2144 
C 5005 2618 4941 3194 4896 3853 
L 6144 3853 
L 6144 4262 
L 4877 4262 
C 4864 4614 4858 4992 4858 5376 
L 4416 5376 
C 4422 4992 4435 4621 4448 4262 
L 3206 4262 
L 3206 1779 
C 3206 1523 3027 1389 2918 1331 
C 2995 1229 3091 1024 3123 902 
z
" transform="scale(0.015625)"/>
      <path id="NotoSansCJKsc-Regular-36fb" d="M 2950 5370 
C 2944 4864 2950 4218 2854 3539 
L 397 3539 
L 397 3046 
L 2771 3046 
C 2515 1830 1875 589 275 -102 
C 410 -205 563 -378 640 -499 
C 2202 218 2893 1446 3206 2682 
C 3706 1222 4531 90 5773 -499 
C 5856 -358 6010 -160 6131 -51 
C 4890 467 4051 1632 3603 3046 
L 6029 3046 
L 6029 3539 
L 3366 3539 
C 3456 4211 3462 4851 3469 5370 
L 2950 5370 
z
" transform="scale(0.015625)"/>
      <path id="NotoSansCJKsc-Regular-2e93" d="M 2637 5376 
C 2554 4979 2445 4576 2310 4179 
L 416 4179 
L 416 3712 
L 2138 3712 
C 1728 2688 1114 1754 198 1133 
C 301 1037 448 864 525 749 
C 992 1082 1382 1485 1715 1939 
L 1715 -518 
L 2195 -518 
L 2195 -160 
L 5043 -160 
L 5043 -486 
L 5542 -486 
L 5542 2470 
L 2067 2470 
C 2298 2861 2496 3277 2662 3712 
L 6010 3712 
L 6010 4179 
L 2829 4179 
C 2944 4544 3046 4909 3136 5280 
L 2637 5376 
z
M 2195 307 
L 2195 2003 
L 5043 2003 
L 5043 307 
L 2195 307 
z
" transform="scale(0.015625)"/>
      <path id="NotoSansCJKsc-Regular-288f" d="M 2291 4685 
L 2291 3366 
C 2291 2374 2253 902 1805 -166 
C 1907 -211 2106 -365 2182 -448 
C 2624 602 2720 2080 2733 3123 
L 5850 3123 
L 5850 4685 
L 4403 4685 
C 4326 4896 4192 5178 4064 5395 
L 3629 5286 
C 3731 5107 3834 4877 3904 4685 
L 2291 4685 
z
M 1792 5350 
C 1434 4378 826 3418 192 2797 
C 275 2688 416 2438 461 2330 
C 685 2560 902 2822 1114 3117 
L 1114 -499 
L 1568 -499 
L 1568 3814 
C 1830 4262 2054 4736 2240 5216 
L 1792 5350 
z
M 2733 4275 
L 5376 4275 
L 5376 3533 
L 2733 3533 
L 2733 4275 
z
M 5562 2310 
L 5562 1344 
L 4973 1344 
L 4973 2310 
L 5562 2310 
z
M 2816 2694 
L 2816 -486 
L 3200 -486 
L 3200 960 
L 3744 960 
L 3744 -314 
L 4070 -314 
L 4070 960 
L 4640 960 
L 4640 -294 
L 4973 -294 
L 4973 960 
L 5562 960 
L 5562 -19 
C 5562 -77 5542 -96 5485 -96 
C 5434 -96 5267 -96 5069 -90 
C 5126 -198 5184 -365 5203 -467 
C 5485 -467 5664 -461 5792 -397 
C 5914 -326 5946 -211 5946 -19 
L 5946 2694 
L 2816 2694 
z
M 3200 1344 
L 3200 2310 
L 3744 2310 
L 3744 1344 
L 3200 1344 
z
M 4070 2310 
L 4640 2310 
L 4640 1344 
L 4070 1344 
L 4070 2310 
z
" transform="scale(0.015625)"/>
      <path id="NotoSansCJKsc-Regular-41d6" d="M 1114 4032 
C 1363 3558 1613 2938 1702 2554 
L 2157 2714 
C 2067 3085 1805 3699 1549 4160 
L 1114 4032 
z
M 4832 4192 
C 4672 3725 4378 3072 4134 2669 
L 4550 2534 
C 4800 2918 5101 3533 5338 4051 
L 4832 4192 
z
M 333 2227 
L 333 1747 
L 2938 1747 
L 2938 -506 
L 3437 -506 
L 3437 1747 
L 6074 1747 
L 6074 2227 
L 3437 2227 
L 3437 4467 
L 5715 4467 
L 5715 4947 
L 672 4947 
L 672 4467 
L 2938 4467 
L 2938 2227 
L 333 2227 
z
" transform="scale(0.015625)"/>
      <path id="NotoSansCJKsc-Regular-7c3e" d="M 224 333 
L 333 -141 
C 902 64 1664 326 2387 582 
L 2310 966 
C 1530 723 742 480 224 333 
z
M 3834 4595 
C 3910 4314 3981 3942 4006 3725 
L 4416 3821 
C 4384 4026 4301 4384 4218 4659 
L 3834 4595 
z
M 5626 5331 
C 4877 5165 3514 5056 2400 5018 
C 2445 4915 2502 4755 2509 4646 
C 3642 4672 5030 4781 5907 4973 
L 5626 5331 
z
M 358 2714 
C 454 2758 608 2797 1395 2886 
C 1114 2483 858 2163 742 2035 
C 544 1805 390 1645 256 1613 
C 307 1498 378 1274 403 1178 
C 538 1254 755 1312 2355 1638 
C 2342 1741 2336 1920 2342 2048 
L 1082 1818 
C 1581 2381 2074 3072 2483 3770 
L 2080 4013 
C 1958 3776 1818 3539 1677 3315 
L 864 3245 
C 1242 3795 1619 4499 1907 5184 
L 1434 5370 
C 1171 4608 710 3782 563 3571 
C 429 3354 314 3206 198 3181 
C 256 3053 333 2816 358 2714 
z
M 2688 4461 
C 2803 4205 2931 3859 2989 3648 
L 3379 3782 
C 3322 3981 3181 4314 3059 4563 
L 2688 4461 
z
M 5376 4730 
C 5242 4410 4998 3962 4781 3648 
L 2496 3648 
L 2496 3251 
L 3270 3251 
L 3226 2746 
L 2240 2746 
L 2240 2336 
L 3168 2336 
C 3014 1408 2675 403 1811 -166 
C 1920 -243 2067 -390 2131 -499 
C 2726 -83 3098 506 3328 1146 
C 3533 838 3776 563 4064 333 
C 3686 102 3245 -51 2765 -160 
C 2848 -243 2982 -422 3027 -525 
C 3546 -397 4019 -205 4429 70 
C 4858 -205 5370 -410 5933 -531 
C 5997 -403 6131 -218 6234 -122 
C 5702 -26 5216 141 4800 365 
C 5190 723 5491 1190 5683 1798 
L 5414 1920 
L 5325 1901 
L 3546 1901 
L 3629 2336 
L 6093 2336 
L 6093 2746 
L 3686 2746 
L 3738 3251 
L 6016 3251 
L 6016 3648 
L 5248 3648 
C 5434 3930 5651 4269 5830 4582 
L 5376 4730 
z
M 3578 1530 
L 5120 1530 
C 4960 1152 4723 845 4435 595 
C 4070 858 3782 1171 3578 1530 
z
" transform="scale(0.015625)"/>
     </defs>
     <use xlink:href="#DejaVuSans-Oblique-35b" transform="translate(0 0.746875)"/>
     <use xlink:href="#DejaVuSans-15" transform="translate(63.652396 42.046875) scale(0.7)"/>
     <use xlink:href="#NotoSansCJKsc-Regular-1" transform="translate(110.922904 0.746875)"/>
     <use xlink:href="#NotoSansCJKsc-Regular-2b87" transform="translate(133.322882 0.746875)"/>
     <use xlink:href="#NotoSansCJKsc-Regular-412d" transform="translate(233.322791 0.746875)"/>
     <use xlink:href="#NotoSansCJKsc-Regular-f6ae" transform="translate(333.322699 0.746875)"/>
     <use xlink:href="#NotoSansCJKsc-Regular-8205" transform="translate(433.322608 0.746875)"/>
     <use xlink:href="#NotoSansCJKsc-Regular-69ba" transform="translate(533.322516 0.746875)"/>
     <use xlink:href="#NotoSansCJKsc-Regular-4232" transform="translate(633.322425 0.746875)"/>
     <use xlink:href="#NotoSansCJKsc-Regular-98c9" transform="translate(733.322333 0.746875)"/>
     <use xlink:href="#NotoSansCJKsc-Regular-36fb" transform="translate(833.322241 0.746875)"/>
     <use xlink:href="#NotoSansCJKsc-Regular-98c9" transform="translate(933.32215 0.746875)"/>
     <use xlink:href="#NotoSansCJKsc-Regular-2e93" transform="translate(1033.322058 0.746875)"/>
     <use xlink:href="#NotoSansCJKsc-Regular-288f" transform="translate(1133.321967 0.746875)"/>
     <use xlink:href="#NotoSansCJKsc-Regular-98c9" transform="translate(1233.321875 0.746875)"/>
     <use xlink:href="#NotoSansCJKsc-Regular-41d6" transform="translate(1333.321784 0.746875)"/>
     <use xlink:href="#NotoSansCJKsc-Regular-7c3e" transform="translate(1433.321692 0.746875)"/>
    </g>
   </g>
   <g id="legend_1">
    <g id="patch_7">
     <path d="M 286.579688 134.03 
L 338.149688 134.03 
Q 339.949688 134.03 339.949688 132.23 
L 339.949688 88.58 
Q 339.949688 86.78 338.149688 86.78 
L 286.579688 86.78 
Q 284.779688 86.78 284.779688 88.58 
L 284.779688 132.23 
Q 284.779688 134.03 286.579688 134.03 
z
" style="fill: #ffffff; opacity: 0.8; stroke: #cccccc; stroke-linejoin: miter"/>
    </g>
    <g id="line2d_32">
     <path d="M 288.379688 95.69 
L 297.379688 95.69 
L 306.379688 95.69 
" style="fill: none; stroke: #4c72b0; stroke-width: 2.2; stroke-linecap: square"/>
    </g>
    <g id="text_18">
     <!-- $\chi^2(1)$ -->
     <g transform="translate(313.579688 98.84) scale(0.09 -0.09)">
      <defs>
       <path id="DejaVuSans-b" d="M 1984 4856 
Q 1566 4138 1362 3434 
Q 1159 2731 1159 2009 
Q 1159 1288 1364 580 
Q 1569 -128 1984 -844 
L 1484 -844 
Q 1016 -109 783 600 
Q 550 1309 550 2009 
Q 550 2706 781 3412 
Q 1013 4119 1484 4856 
L 1984 4856 
z
" transform="scale(0.015625)"/>
       <path id="DejaVuSans-14" d="M 794 531 
L 1825 531 
L 1825 4091 
L 703 3866 
L 703 4441 
L 1819 4666 
L 2450 4666 
L 2450 531 
L 3481 531 
L 3481 0 
L 794 0 
L 794 531 
z
" transform="scale(0.015625)"/>
       <path id="DejaVuSans-c" d="M 513 4856 
L 1013 4856 
Q 1481 4119 1714 3412 
Q 1947 2706 1947 2009 
Q 1947 1309 1714 600 
Q 1481 -109 1013 -844 
L 513 -844 
Q 928 -128 1133 580 
Q 1338 1288 1338 2009 
Q 1338 2731 1133 3434 
Q 928 4138 513 4856 
z
" transform="scale(0.015625)"/>
      </defs>
      <use xlink:href="#DejaVuSans-Oblique-35b" transform="translate(0 0.746875)"/>
      <use xlink:href="#DejaVuSans-15" transform="translate(63.652396 42.046875) scale(0.7)"/>
      <use xlink:href="#DejaVuSans-b" transform="translate(110.922904 0.746875)"/>
      <use xlink:href="#DejaVuSans-14" transform="translate(149.936576 0.746875)"/>
      <use xlink:href="#DejaVuSans-c" transform="translate(213.559622 0.746875)"/>
     </g>
    </g>
    <g id="line2d_33">
     <path d="M 288.379688 110.54 
L 297.379688 110.54 
L 306.379688 110.54 
" style="fill: none; stroke: #c44e52; stroke-width: 2.2; stroke-linecap: square"/>
    </g>
    <g id="text_19">
     <!-- $\chi^2(3)$ -->
     <g transform="translate(313.579688 113.69) scale(0.09 -0.09)">
      <defs>
       <path id="DejaVuSans-16" d="M 2597 2516 
Q 3050 2419 3304 2112 
Q 3559 1806 3559 1356 
Q 3559 666 3084 287 
Q 2609 -91 1734 -91 
Q 1441 -91 1130 -33 
Q 819 25 488 141 
L 488 750 
Q 750 597 1062 519 
Q 1375 441 1716 441 
Q 2309 441 2620 675 
Q 2931 909 2931 1356 
Q 2931 1769 2642 2001 
Q 2353 2234 1838 2234 
L 1294 2234 
L 1294 2753 
L 1863 2753 
Q 2328 2753 2575 2939 
Q 2822 3125 2822 3475 
Q 2822 3834 2567 4026 
Q 2313 4219 1838 4219 
Q 1578 4219 1281 4162 
Q 984 4106 628 3988 
L 628 4550 
Q 988 4650 1302 4700 
Q 1616 4750 1894 4750 
Q 2613 4750 3031 4423 
Q 3450 4097 3450 3541 
Q 3450 3153 3228 2886 
Q 3006 2619 2597 2516 
z
" transform="scale(0.015625)"/>
      </defs>
      <use xlink:href="#DejaVuSans-Oblique-35b" transform="translate(0 0.746875)"/>
      <use xlink:href="#DejaVuSans-15" transform="translate(63.652396 42.046875) scale(0.7)"/>
      <use xlink:href="#DejaVuSans-b" transform="translate(110.922904 0.746875)"/>
      <use xlink:href="#DejaVuSans-16" transform="translate(149.936576 0.746875)"/>
      <use xlink:href="#DejaVuSans-c" transform="translate(213.559622 0.746875)"/>
     </g>
    </g>
    <g id="line2d_34">
     <path d="M 288.379688 125.39 
L 297.379688 125.39 
L 306.379688 125.39 
" style="fill: none; stroke: #2e7d32; stroke-width: 2.2; stroke-linecap: square"/>
    </g>
    <g id="text_20">
     <!-- $\chi^2(5)$ -->
     <g transform="translate(313.579688 128.54) scale(0.09 -0.09)">
      <defs>
       <path id="DejaVuSans-18" d="M 691 4666 
L 3169 4666 
L 3169 4134 
L 1269 4134 
L 1269 2991 
Q 1406 3038 1543 3061 
Q 1681 3084 1819 3084 
Q 2600 3084 3056 2656 
Q 3513 2228 3513 1497 
Q 3513 744 3044 326 
Q 2575 -91 1722 -91 
Q 1428 -91 1123 -41 
Q 819 9 494 109 
L 494 744 
Q 775 591 1075 516 
Q 1375 441 1709 441 
Q 2250 441 2565 725 
Q 2881 1009 2881 1497 
Q 2881 1984 2565 2268 
Q 2250 2553 1709 2553 
Q 1456 2553 1204 2497 
Q 953 2441 691 2322 
L 691 4666 
z
" transform="scale(0.015625)"/>
      </defs>
      <use xlink:href="#DejaVuSans-Oblique-35b" transform="translate(0 0.746875)"/>
      <use xlink:href="#DejaVuSans-15" transform="translate(63.652396 42.046875) scale(0.7)"/>
      <use xlink:href="#DejaVuSans-b" transform="translate(110.922904 0.746875)"/>
      <use xlink:href="#DejaVuSans-18" transform="translate(149.936576 0.746875)"/>
      <use xlink:href="#DejaVuSans-c" transform="translate(213.559622 0.746875)"/>
     </g>
    </g>
   </g>
  </g>
  <g id="axes_2">
   <g id="patch_8">
    <path d="M 400.729688 247.64 
L 703.099687 247.64 
L 703.099687 82.28 
L 400.729688 82.28 
z
" style="fill: #ffffff"/>
   </g>
   <g id="matplotlib.axis_3">
    <g id="xtick_8">
     <g id="line2d_35">
      <path d="M 400.729688 247.64 
L 400.729688 82.28 
" clip-path="url(#pe73711f0cc)" style="fill: none; stroke: #b0b0b0; stroke-opacity: 0.3; stroke-width: 0.8; stroke-linecap: square"/>
     </g>
     <g id="line2d_36">
      <g>
       <use xlink:href="#mdebc18fb54" x="400.729688" y="247.64" style="stroke: #000000; stroke-width: 0.8"/>
      </g>
     </g>
     <g id="text_21">
      <!-- -4 -->
      <g transform="translate(396.219531 263.44) scale(0.1 -0.1)">
       <defs>
        <path id="NotoSansCJKsc-Regular-e" d="M 294 1568 
L 1933 1568 
L 1933 2016 
L 294 2016 
L 294 1568 
z
" transform="scale(0.015625)"/>
       </defs>
       <use xlink:href="#NotoSansCJKsc-Regular-e"/>
       <use xlink:href="#NotoSansCJKsc-Regular-15" transform="translate(34.703125 0)"/>
      </g>
     </g>
    </g>
    <g id="xtick_9">
     <g id="line2d_37">
      <path d="M 438.525938 247.64 
L 438.525938 82.28 
" clip-path="url(#pe73711f0cc)" style="fill: none; stroke: #b0b0b0; stroke-opacity: 0.3; stroke-width: 0.8; stroke-linecap: square"/>
     </g>
     <g id="line2d_38">
      <g>
       <use xlink:href="#mdebc18fb54" x="438.525938" y="247.64" style="stroke: #000000; stroke-width: 0.8"/>
      </g>
     </g>
     <g id="text_22">
      <!-- -3 -->
      <g transform="translate(434.015781 263.44) scale(0.1 -0.1)">
       <use xlink:href="#NotoSansCJKsc-Regular-e"/>
       <use xlink:href="#NotoSansCJKsc-Regular-14" transform="translate(34.703125 0)"/>
      </g>
     </g>
    </g>
    <g id="xtick_10">
     <g id="line2d_39">
      <path d="M 476.322188 247.64 
L 476.322188 82.28 
" clip-path="url(#pe73711f0cc)" style="fill: none; stroke: #b0b0b0; stroke-opacity: 0.3; stroke-width: 0.8; stroke-linecap: square"/>
     </g>
     <g id="line2d_40">
      <g>
       <use xlink:href="#mdebc18fb54" x="476.322188" y="247.64" style="stroke: #000000; stroke-width: 0.8"/>
      </g>
     </g>
     <g id="text_23">
      <!-- -2 -->
      <g transform="translate(471.812031 263.44) scale(0.1 -0.1)">
       <use xlink:href="#NotoSansCJKsc-Regular-e"/>
       <use xlink:href="#NotoSansCJKsc-Regular-13" transform="translate(34.703125 0)"/>
      </g>
     </g>
    </g>
    <g id="xtick_11">
     <g id="line2d_41">
      <path d="M 514.118438 247.64 
L 514.118438 82.28 
" clip-path="url(#pe73711f0cc)" style="fill: none; stroke: #b0b0b0; stroke-opacity: 0.3; stroke-width: 0.8; stroke-linecap: square"/>
     </g>
     <g id="line2d_42">
      <g>
       <use xlink:href="#mdebc18fb54" x="514.118438" y="247.64" style="stroke: #000000; stroke-width: 0.8"/>
      </g>
     </g>
     <g id="text_24">
      <!-- -1 -->
      <g transform="translate(509.608281 263.44) scale(0.1 -0.1)">
       <use xlink:href="#NotoSansCJKsc-Regular-e"/>
       <use xlink:href="#NotoSansCJKsc-Regular-12" transform="translate(34.703125 0)"/>
      </g>
     </g>
    </g>
    <g id="xtick_12">
     <g id="line2d_43">
      <path d="M 551.914688 247.64 
L 551.914688 82.28 
" clip-path="url(#pe73711f0cc)" style="fill: none; stroke: #b0b0b0; stroke-opacity: 0.3; stroke-width: 0.8; stroke-linecap: square"/>
     </g>
     <g id="line2d_44">
      <g>
       <use xlink:href="#mdebc18fb54" x="551.914688" y="247.64" style="stroke: #000000; stroke-width: 0.8"/>
      </g>
     </g>
     <g id="text_25">
      <!-- 0 -->
      <g transform="translate(549.139688 263.44) scale(0.1 -0.1)">
       <use xlink:href="#NotoSansCJKsc-Regular-11"/>
      </g>
     </g>
    </g>
    <g id="xtick_13">
     <g id="line2d_45">
      <path d="M 589.710938 247.64 
L 589.710938 82.28 
" clip-path="url(#pe73711f0cc)" style="fill: none; stroke: #b0b0b0; stroke-opacity: 0.3; stroke-width: 0.8; stroke-linecap: square"/>
     </g>
     <g id="line2d_46">
      <g>
       <use xlink:href="#mdebc18fb54" x="589.710938" y="247.64" style="stroke: #000000; stroke-width: 0.8"/>
      </g>
     </g>
     <g id="text_26">
      <!-- 1 -->
      <g transform="translate(586.935938 263.44) scale(0.1 -0.1)">
       <use xlink:href="#NotoSansCJKsc-Regular-12"/>
      </g>
     </g>
    </g>
    <g id="xtick_14">
     <g id="line2d_47">
      <path d="M 627.507187 247.64 
L 627.507187 82.28 
" clip-path="url(#pe73711f0cc)" style="fill: none; stroke: #b0b0b0; stroke-opacity: 0.3; stroke-width: 0.8; stroke-linecap: square"/>
     </g>
     <g id="line2d_48">
      <g>
       <use xlink:href="#mdebc18fb54" x="627.507187" y="247.64" style="stroke: #000000; stroke-width: 0.8"/>
      </g>
     </g>
     <g id="text_27">
      <!-- 2 -->
      <g transform="translate(624.732188 263.44) scale(0.1 -0.1)">
       <use xlink:href="#NotoSansCJKsc-Regular-13"/>
      </g>
     </g>
    </g>
    <g id="xtick_15">
     <g id="line2d_49">
      <path d="M 665.303437 247.64 
L 665.303437 82.28 
" clip-path="url(#pe73711f0cc)" style="fill: none; stroke: #b0b0b0; stroke-opacity: 0.3; stroke-width: 0.8; stroke-linecap: square"/>
     </g>
     <g id="line2d_50">
      <g>
       <use xlink:href="#mdebc18fb54" x="665.303437" y="247.64" style="stroke: #000000; stroke-width: 0.8"/>
      </g>
     </g>
     <g id="text_28">
      <!-- 3 -->
      <g transform="translate(662.528437 263.44) scale(0.1 -0.1)">
       <use xlink:href="#NotoSansCJKsc-Regular-14"/>
      </g>
     </g>
    </g>
    <g id="xtick_16">
     <g id="line2d_51">
      <path d="M 703.099687 247.64 
L 703.099687 82.28 
" clip-path="url(#pe73711f0cc)" style="fill: none; stroke: #b0b0b0; stroke-opacity: 0.3; stroke-width: 0.8; stroke-linecap: square"/>
     </g>
     <g id="line2d_52">
      <g>
       <use xlink:href="#mdebc18fb54" x="703.099687" y="247.64" style="stroke: #000000; stroke-width: 0.8"/>
      </g>
     </g>
     <g id="text_29">
      <!-- 4 -->
      <g transform="translate(700.324687 263.44) scale(0.1 -0.1)">
       <use xlink:href="#NotoSansCJKsc-Regular-15"/>
      </g>
     </g>
    </g>
    <g id="text_30">
     <!-- x -->
     <g transform="translate(549.424844 277.44) scale(0.1 -0.1)">
      <use xlink:href="#NotoSansCJKsc-Regular-59"/>
     </g>
    </g>
   </g>
   <g id="matplotlib.axis_4">
    <g id="ytick_8">
     <g id="line2d_53">
      <path d="M 400.729688 247.64 
L 703.099687 247.64 
" clip-path="url(#pe73711f0cc)" style="fill: none; stroke: #b0b0b0; stroke-opacity: 0.3; stroke-width: 0.8; stroke-linecap: square"/>
     </g>
     <g id="line2d_54">
      <g>
       <use xlink:href="#m2d020b027a" x="400.729688" y="247.64" style="stroke: #000000; stroke-width: 0.8"/>
      </g>
     </g>
     <g id="text_31">
      <!-- 0.0 -->
      <g transform="translate(379.85 252.04) scale(0.1 -0.1)">
       <use xlink:href="#NotoSansCJKsc-Regular-11"/>
       <use xlink:href="#NotoSansCJKsc-Regular-f" transform="translate(55.5 0)"/>
       <use xlink:href="#NotoSansCJKsc-Regular-11" transform="translate(83.296875 0)"/>
      </g>
     </g>
    </g>
    <g id="ytick_9">
     <g id="line2d_55">
      <path d="M 400.729688 210.893333 
L 703.099687 210.893333 
" clip-path="url(#pe73711f0cc)" style="fill: none; stroke: #b0b0b0; stroke-opacity: 0.3; stroke-width: 0.8; stroke-linecap: square"/>
     </g>
     <g id="line2d_56">
      <g>
       <use xlink:href="#m2d020b027a" x="400.729688" y="210.893333" style="stroke: #000000; stroke-width: 0.8"/>
      </g>
     </g>
     <g id="text_32">
      <!-- 0.1 -->
      <g transform="translate(379.85 215.293333) scale(0.1 -0.1)">
       <use xlink:href="#NotoSansCJKsc-Regular-11"/>
       <use xlink:href="#NotoSansCJKsc-Regular-f" transform="translate(55.5 0)"/>
       <use xlink:href="#NotoSansCJKsc-Regular-12" transform="translate(83.296875 0)"/>
      </g>
     </g>
    </g>
    <g id="ytick_10">
     <g id="line2d_57">
      <path d="M 400.729688 174.146667 
L 703.099687 174.146667 
" clip-path="url(#pe73711f0cc)" style="fill: none; stroke: #b0b0b0; stroke-opacity: 0.3; stroke-width: 0.8; stroke-linecap: square"/>
     </g>
     <g id="line2d_58">
      <g>
       <use xlink:href="#m2d020b027a" x="400.729688" y="174.146667" style="stroke: #000000; stroke-width: 0.8"/>
      </g>
     </g>
     <g id="text_33">
      <!-- 0.2 -->
      <g transform="translate(379.85 178.546667) scale(0.1 -0.1)">
       <use xlink:href="#NotoSansCJKsc-Regular-11"/>
       <use xlink:href="#NotoSansCJKsc-Regular-f" transform="translate(55.5 0)"/>
       <use xlink:href="#NotoSansCJKsc-Regular-13" transform="translate(83.296875 0)"/>
      </g>
     </g>
    </g>
    <g id="ytick_11">
     <g id="line2d_59">
      <path d="M 400.729688 137.4 
L 703.099687 137.4 
" clip-path="url(#pe73711f0cc)" style="fill: none; stroke: #b0b0b0; stroke-opacity: 0.3; stroke-width: 0.8; stroke-linecap: square"/>
     </g>
     <g id="line2d_60">
      <g>
       <use xlink:href="#m2d020b027a" x="400.729688" y="137.4" style="stroke: #000000; stroke-width: 0.8"/>
      </g>
     </g>
     <g id="text_34">
      <!-- 0.3 -->
      <g transform="translate(379.85 141.8) scale(0.1 -0.1)">
       <use xlink:href="#NotoSansCJKsc-Regular-11"/>
       <use xlink:href="#NotoSansCJKsc-Regular-f" transform="translate(55.5 0)"/>
       <use xlink:href="#NotoSansCJKsc-Regular-14" transform="translate(83.296875 0)"/>
      </g>
     </g>
    </g>
    <g id="ytick_12">
     <g id="line2d_61">
      <path d="M 400.729688 100.653333 
L 703.099687 100.653333 
" clip-path="url(#pe73711f0cc)" style="fill: none; stroke: #b0b0b0; stroke-opacity: 0.3; stroke-width: 0.8; stroke-linecap: square"/>
     </g>
     <g id="line2d_62">
      <g>
       <use xlink:href="#m2d020b027a" x="400.729688" y="100.653333" style="stroke: #000000; stroke-width: 0.8"/>
      </g>
     </g>
     <g id="text_35">
      <!-- 0.4 -->
      <g transform="translate(379.85 105.053333) scale(0.1 -0.1)">
       <use xlink:href="#NotoSansCJKsc-Regular-11"/>
       <use xlink:href="#NotoSansCJKsc-Regular-f" transform="translate(55.5 0)"/>
       <use xlink:href="#NotoSansCJKsc-Regular-15" transform="translate(83.296875 0)"/>
      </g>
     </g>
    </g>
    <g id="text_36">
     <!-- 密度 -->
     <g transform="translate(374.65 174.96) rotate(-90) scale(0.1 -0.1)">
      <use xlink:href="#NotoSansCJKsc-Regular-3ce2"/>
      <use xlink:href="#NotoSansCJKsc-Regular-4232" transform="translate(100 0)"/>
     </g>
    </g>
   </g>
   <g id="line2d_63">
    <path d="M 400.729688 247.590822 
L 416.643898 247.397496 
L 425.737733 247.082661 
L 432.558109 246.638454 
L 437.862845 246.095178 
L 442.409763 245.435093 
L 446.95668 244.538178 
L 450.745778 243.563027 
L 454.534875 242.334894 
L 457.566154 241.138158 
L 460.597432 239.72255 
L 463.62871 238.060544 
L 466.659988 236.123967 
L 469.691266 233.884654 
L 472.722545 231.315244 
L 475.753823 228.390101 
L 478.785101 225.086353 
L 481.816379 221.385021 
L 484.847657 217.272214 
L 487.878936 212.740344 
L 490.910214 207.789321 
L 493.941492 202.427671 
L 496.97277 196.673526 
L 500.761868 188.973393 
L 504.550966 180.785198 
L 509.855703 168.710722 
L 523.496454 137.13812 
L 527.285552 129.084186 
L 530.31683 123.124679 
L 533.348109 117.704059 
L 535.621567 114.049375 
L 537.895026 110.787933 
L 540.168484 107.953179 
L 542.441943 105.574639 
L 543.957582 104.254987 
L 545.473221 103.155598 
L 546.98886 102.281709 
L 548.5045 101.637499 
L 550.020139 101.226062 
L 551.535778 101.049377 
L 553.051417 101.108295 
L 554.567056 101.402534 
L 556.082695 101.930675 
L 557.598334 102.69018 
L 559.113973 103.677408 
L 560.629612 104.887647 
L 562.145251 106.31515 
L 564.41871 108.848778 
L 566.692169 111.829247 
L 568.965627 115.225663 
L 571.239086 119.003399 
L 574.270364 124.567876 
L 577.301642 130.64659 
L 581.09074 138.81335 
L 585.637657 149.179409 
L 600.036229 182.457133 
L 603.825327 190.555412 
L 607.614424 198.147482 
L 610.645703 203.805761 
L 613.676981 209.066063 
L 616.708259 213.912743 
L 619.739537 218.339526 
L 622.770815 222.348486 
L 625.802094 225.9489 
L 628.833372 229.156045 
L 631.86465 231.989984 
L 634.895928 234.474382 
L 637.927206 236.6354 
L 640.958484 238.500681 
L 643.989763 240.098461 
L 647.021041 241.456808 
L 650.052319 242.603 
L 653.841417 243.776839 
L 657.630515 244.706751 
L 662.177432 245.559945 
L 666.724349 246.186164 
L 672.029086 246.700091 
L 678.849462 247.11885 
L 687.185477 247.397496 
L 699.31059 247.566929 
L 703.099687 247.590822 
L 703.099687 247.590822 
" clip-path="url(#pe73711f0cc)" style="fill: none; stroke-dasharray: 7.4,3.2; stroke-dashoffset: 0; stroke: #999999; stroke-width: 2"/>
   </g>
   <g id="line2d_64">
    <path d="M 400.729688 240.759513 
L 412.096981 239.674541 
L 421.948635 238.518917 
L 431.042469 237.22168 
L 438.620665 235.925564 
L 445.441041 234.550047 
L 451.503597 233.123745 
L 457.566154 231.464539 
L 462.870891 229.782838 
L 467.417808 228.138326 
L 471.964725 226.273763 
L 476.511642 224.152277 
L 480.30074 222.15687 
L 484.089838 219.923587 
L 487.878936 217.419031 
L 491.668033 214.605469 
L 494.699312 212.104004 
L 497.73059 209.354555 
L 500.761868 206.332492 
L 503.793146 203.012567 
L 506.824424 199.369974 
L 509.855703 195.38198 
L 512.886981 191.030336 
L 515.918259 186.304675 
L 518.949537 181.207129 
L 522.738635 174.345898 
L 527.285552 165.535133 
L 536.379387 147.576775 
L 539.410665 142.21061 
L 541.684124 138.656498 
L 543.199763 136.576474 
L 544.715402 134.766896 
L 546.231041 133.258233 
L 547.74668 132.077057 
L 549.262319 131.244925 
L 550.777958 130.777431 
L 552.293597 130.683482 
L 553.809236 130.964879 
L 555.324875 131.616236 
L 556.840515 132.625232 
L 558.356154 133.973185 
L 559.871793 135.635898 
L 561.387432 137.584705 
L 563.660891 140.973795 
L 565.934349 144.81862 
L 568.965627 150.451227 
L 574.270364 160.987017 
L 580.332921 172.915316 
L 584.122018 179.876542 
L 587.153297 185.064716 
L 590.184575 189.884156 
L 593.215853 194.328732 
L 596.247131 198.406168 
L 599.278409 202.133107 
L 602.309687 205.531422 
L 605.340966 208.625579 
L 608.372244 211.440835 
L 611.403522 214.002047 
L 615.19262 216.882324 
L 618.981718 219.445522 
L 622.770815 221.730251 
L 626.559913 223.770763 
L 631.10683 225.939113 
L 635.653748 227.843766 
L 640.200665 229.522649 
L 645.505402 231.238408 
L 650.810139 232.732535 
L 656.872695 234.212979 
L 663.693071 235.638547 
L 671.271266 236.979675 
L 679.607281 238.217636 
L 688.701116 239.34291 
L 699.31059 240.42332 
L 703.099687 240.759513 
L 703.099687 240.759513 
" clip-path="url(#pe73711f0cc)" style="fill: none; stroke: #c44e52; stroke-width: 2.2; stroke-linecap: square"/>
   </g>
   <g id="line2d_65">
    <path d="M 400.729688 245.757201 
L 410.581342 245.090905 
L 418.917357 244.319774 
L 426.495552 243.391854 
L 432.558109 242.444871 
L 438.620665 241.265042 
L 443.925402 239.995116 
L 448.472319 238.691655 
L 453.019236 237.151464 
L 456.808334 235.656755 
L 460.597432 233.940505 
L 464.38653 231.971757 
L 468.175627 229.71648 
L 471.206906 227.681259 
L 474.238184 225.419101 
L 477.269462 222.909293 
L 480.30074 220.130789 
L 483.332018 217.062726 
L 486.363297 213.685096 
L 489.394575 209.979606 
L 492.425853 205.930741 
L 495.457131 201.527031 
L 498.488409 196.762531 
L 501.519688 191.638476 
L 505.308785 184.744362 
L 509.097883 177.349495 
L 513.6448 167.924429 
L 519.707357 154.769219 
L 527.285552 138.407028 
L 531.07465 130.785133 
L 534.105928 125.192744 
L 536.379387 121.382721 
L 538.652845 117.964015 
L 540.926304 114.988732 
L 543.199763 112.503939 
L 544.715402 111.140232 
L 546.231041 110.022808 
L 547.74668 109.160065 
L 549.262319 108.558552 
L 550.777958 108.222872 
L 552.293597 108.155606 
L 553.809236 108.357273 
L 555.324875 108.82632 
L 556.840515 109.559147 
L 558.356154 110.550168 
L 559.871793 111.791894 
L 561.387432 113.275053 
L 562.903071 114.988732 
L 565.17653 117.964015 
L 567.449988 121.382721 
L 569.723447 125.192744 
L 572.754725 130.785133 
L 575.786003 136.837921 
L 580.332921 146.484226 
L 593.215853 174.267216 
L 597.004951 181.843008 
L 600.794048 188.944409 
L 604.583146 195.514994 
L 607.614424 200.369818 
L 610.645703 204.863419 
L 613.676981 209.000109 
L 616.708259 212.790122 
L 619.739537 216.248092 
L 622.770815 219.391722 
L 625.802094 222.24068 
L 628.833372 224.815686 
L 631.86465 227.137794 
L 634.895928 229.227841 
L 638.685026 231.544765 
L 642.474124 233.568 
L 646.263221 235.332174 
L 650.052319 236.868865 
L 654.599236 238.452465 
L 659.146154 239.792693 
L 664.450891 241.098367 
L 669.755627 242.17385 
L 675.818184 243.174149 
L 682.63856 244.067169 
L 690.216755 244.836105 
L 699.31059 245.527052 
L 703.099687 245.757201 
L 703.099687 245.757201 
" clip-path="url(#pe73711f0cc)" style="fill: none; stroke: #4c72b0; stroke-width: 2.2; stroke-linecap: square"/>
   </g>
   <g id="patch_9">
    <path d="M 400.729688 247.64 
L 400.729688 82.28 
" style="fill: none; stroke: #000000; stroke-width: 0.8; stroke-linejoin: miter; stroke-linecap: square"/>
   </g>
   <g id="patch_10">
    <path d="M 703.099687 247.64 
L 703.099687 82.28 
" style="fill: none; stroke: #000000; stroke-width: 0.8; stroke-linejoin: miter; stroke-linecap: square"/>
   </g>
   <g id="patch_11">
    <path d="M 400.729688 247.64 
L 703.099687 247.64 
" style="fill: none; stroke: #000000; stroke-width: 0.8; stroke-linejoin: miter; stroke-linecap: square"/>
   </g>
   <g id="patch_12">
    <path d="M 400.729688 82.28 
L 703.099687 82.28 
" style="fill: none; stroke: #000000; stroke-width: 0.8; stroke-linejoin: miter; stroke-linecap: square"/>
   </g>
   <g id="text_37">
    <!-- $t$ 分布：尾部比正态更厚（自由度小更明显） -->
    <g transform="translate(444.004688 76.28) scale(0.11 -0.11)">
     <defs>
      <path id="DejaVuSans-Oblique-57" d="M 2706 3500 
L 2619 3053 
L 1472 3053 
L 1100 1153 
Q 1081 1047 1072 975 
Q 1063 903 1063 863 
Q 1063 663 1183 572 
Q 1303 481 1569 481 
L 2150 481 
L 2053 0 
L 1503 0 
Q 991 0 739 200 
Q 488 400 488 806 
Q 488 878 497 964 
Q 506 1050 525 1153 
L 897 3053 
L 409 3053 
L 500 3500 
L 978 3500 
L 1172 4494 
L 1747 4494 
L 1556 3500 
L 2706 3500 
z
" transform="scale(0.015625)"/>
      <path id="NotoSansCJKsc-Regular-3dbe" d="M 1338 4653 
L 5184 4653 
L 5184 3936 
L 1338 3936 
L 1338 4653 
z
M 851 5069 
L 851 3194 
C 851 2176 794 749 198 -256 
C 320 -301 531 -422 627 -499 
C 1248 550 1338 2118 1338 3194 
L 1338 3520 
L 5664 3520 
L 5664 5069 
L 851 5069 
z
M 1395 915 
L 1466 506 
L 3110 768 
L 3110 314 
C 3110 -262 3296 -410 3968 -410 
C 4115 -410 5120 -410 5274 -410 
C 5837 -410 5978 -205 6048 544 
C 5914 576 5722 653 5613 730 
C 5581 134 5530 26 5242 26 
C 5030 26 4160 26 4000 26 
C 3648 26 3584 77 3584 314 
L 3584 838 
L 5933 1210 
L 5856 1600 
L 3584 1254 
L 3584 1837 
L 5478 2131 
L 5402 2522 
L 3584 2246 
L 3584 2810 
C 4128 2918 4634 3046 5043 3187 
L 4640 3501 
C 3968 3251 2720 3021 1638 2880 
C 1690 2784 1754 2630 1773 2528 
C 2208 2579 2662 2643 3110 2726 
L 3110 2176 
L 1606 1946 
L 1677 1542 
L 3110 1766 
L 3110 1178 
L 1395 915 
z
" transform="scale(0.015625)"/>
      <path id="NotoSansCJKsc-Regular-9f28" d="M 902 4019 
C 1075 3674 1248 3213 1306 2912 
L 1741 3040 
C 1683 3334 1510 3782 1318 4128 
L 902 4019 
z
M 4013 5037 
L 4013 -499 
L 4442 -499 
L 4442 4595 
L 5472 4595 
C 5299 4090 5050 3411 4806 2867 
C 5382 2291 5542 1818 5542 1421 
C 5549 1197 5504 992 5376 915 
C 5306 870 5210 851 5114 845 
C 4986 845 4806 845 4621 864 
C 4698 730 4742 531 4749 410 
C 4934 397 5139 397 5299 416 
C 5453 435 5594 474 5696 544 
C 5907 691 5990 998 5990 1376 
C 5990 1818 5850 2323 5274 2925 
C 5549 3520 5843 4250 6067 4845 
L 5741 5056 
L 5664 5037 
L 4013 5037 
z
M 1581 5286 
C 1677 5082 1779 4832 1850 4621 
L 512 4621 
L 512 4186 
L 3533 4186 
L 3533 4621 
L 2342 4621 
C 2272 4838 2138 5158 2010 5402 
L 1581 5286 
z
M 2771 4147 
C 2669 3782 2477 3251 2304 2893 
L 326 2893 
L 326 2451 
L 3680 2451 
L 3680 2893 
L 2771 2893 
C 2931 3226 3104 3661 3251 4038 
L 2771 4147 
z
M 698 1862 
L 698 -467 
L 1152 -467 
L 1152 -166 
L 2906 -166 
L 2906 -422 
L 3386 -422 
L 3386 1862 
L 698 1862 
z
M 1152 269 
L 1152 1427 
L 2906 1427 
L 2906 269 
L 1152 269 
z
" transform="scale(0.015625)"/>
      <path id="NotoSansCJKsc-Regular-5943" d="M 800 -461 
C 947 -352 1184 -250 2938 320 
C 2912 435 2899 653 2906 806 
L 1331 320 
L 1331 2918 
L 2918 2918 
L 2918 3398 
L 1331 3398 
L 1331 5306 
L 826 5306 
L 826 442 
C 826 166 672 19 563 -45 
C 646 -141 762 -346 800 -461 
z
M 3418 5344 
L 3418 557 
C 3418 -154 3590 -346 4205 -346 
C 4326 -346 5062 -346 5190 -346 
C 5843 -346 5971 96 6029 1376 
C 5894 1408 5690 1504 5568 1600 
C 5523 416 5478 115 5158 115 
C 4992 115 4384 115 4256 115 
C 3968 115 3910 179 3910 544 
L 3910 2413 
C 4621 2816 5382 3302 5939 3776 
L 5536 4198 
C 5146 3795 4525 3302 3910 2925 
L 3910 5344 
L 3418 5344 
z
" transform="scale(0.015625)"/>
      <path id="NotoSansCJKsc-Regular-585c" d="M 1203 3264 
L 1203 243 
L 333 243 
L 333 -224 
L 6080 -224 
L 6080 243 
L 3616 243 
L 3616 2259 
L 5619 2259 
L 5619 2726 
L 3616 2726 
L 3616 4435 
L 5869 4435 
L 5869 4909 
L 576 4909 
L 576 4435 
L 3110 4435 
L 3110 243 
L 1696 243 
L 1696 3264 
L 1203 3264 
z
" transform="scale(0.015625)"/>
      <path id="NotoSansCJKsc-Regular-44b3" d="M 2438 2618 
C 2816 2400 3270 2067 3475 1830 
L 3904 2106 
C 3667 2349 3219 2669 2842 2874 
L 2438 2618 
z
M 1728 1542 
L 1728 288 
C 1728 -237 1920 -371 2662 -371 
C 2822 -371 3994 -371 4160 -371 
C 4774 -371 4928 -173 4992 634 
C 4858 666 4659 736 4557 819 
C 4518 160 4467 64 4128 64 
C 3866 64 2880 64 2688 64 
C 2272 64 2202 102 2202 288 
L 2202 1542 
L 1728 1542 
z
M 2624 1696 
C 2989 1357 3437 883 3635 576 
L 4032 838 
C 3814 1139 3360 1594 2989 1914 
L 2624 1696 
z
M 4800 1504 
C 5120 960 5446 230 5555 -224 
L 6016 -58 
C 5894 397 5555 1107 5222 1638 
L 4800 1504 
z
M 986 1542 
C 864 1030 640 378 346 -38 
L 781 -256 
C 1062 179 1274 870 1414 1402 
L 986 1542 
z
M 2982 5402 
C 2950 5088 2912 4774 2842 4474 
L 358 4474 
L 358 4026 
L 2714 4026 
C 2413 3194 1779 2502 288 2131 
C 390 2022 512 1837 563 1722 
C 2221 2170 2906 3014 3226 4026 
C 3706 2874 4544 2099 5805 1754 
C 5875 1888 6016 2086 6131 2195 
C 4979 2458 4166 3104 3725 4026 
L 6067 4026 
L 6067 4474 
L 3341 4474 
C 3405 4774 3450 5082 3482 5402 
L 2982 5402 
z
" transform="scale(0.015625)"/>
      <path id="NotoSansCJKsc-Regular-50ac" d="M 1613 1523 
L 1203 1357 
C 1421 986 1690 691 2003 454 
C 1613 230 1062 45 301 -96 
C 403 -205 531 -410 589 -518 
C 1421 -339 2016 -102 2445 179 
C 3328 -288 4506 -435 5997 -493 
C 6022 -333 6112 -128 6202 -19 
C 4768 19 3661 115 2835 486 
C 3168 813 3341 1184 3418 1581 
L 5587 1581 
L 5587 4058 
L 3488 4058 
L 3488 4602 
L 5984 4602 
L 5984 5037 
L 416 5037 
L 416 4602 
L 2989 4602 
L 2989 4058 
L 998 4058 
L 998 1581 
L 2912 1581 
C 2835 1274 2688 986 2394 730 
C 2086 934 1824 1190 1613 1523 
z
M 1459 2630 
L 2989 2630 
L 2989 2374 
C 2989 2240 2989 2106 2976 1978 
L 1459 1978 
L 1459 2630 
z
M 3475 1978 
C 3482 2106 3488 2234 3488 2368 
L 3488 2630 
L 5107 2630 
L 5107 1978 
L 3475 1978 
z
M 1459 3654 
L 2989 3654 
L 2989 3014 
L 1459 3014 
L 1459 3654 
z
M 3488 3654 
L 5107 3654 
L 5107 3014 
L 3488 3014 
L 3488 3654 
z
" transform="scale(0.015625)"/>
      <path id="NotoSansCJKsc-Regular-2e02" d="M 2355 3200 
L 4934 3200 
L 4934 2778 
L 2355 2778 
L 2355 3200 
z
M 2355 3930 
L 4934 3930 
L 4934 3514 
L 2355 3514 
L 2355 3930 
z
M 1894 4256 
L 1894 2445 
L 5402 2445 
L 5402 4256 
L 1894 4256 
z
M 3469 1350 
L 3469 1030 
L 1357 1030 
L 1357 646 
L 3469 646 
L 3469 32 
C 3469 -51 3443 -77 3334 -83 
C 3232 -90 2848 -90 2438 -77 
C 2502 -192 2573 -346 2605 -474 
C 3130 -474 3462 -474 3667 -410 
C 3872 -346 3936 -230 3936 19 
L 3936 646 
L 6118 646 
L 6118 1030 
L 3936 1030 
L 3936 1158 
C 4486 1325 5069 1574 5491 1850 
L 5197 2106 
L 5094 2080 
L 1875 2080 
L 1875 1728 
L 4499 1728 
C 4186 1581 3808 1440 3469 1350 
z
M 845 5043 
L 845 3155 
C 845 2150 787 742 218 -256 
C 339 -301 544 -422 634 -499 
C 1229 544 1318 2093 1318 3155 
L 1318 4595 
L 6035 4595 
L 6035 5043 
L 845 5043 
z
" transform="scale(0.015625)"/>
      <path id="NotoSansCJKsc-Regular-e6ae" d="M 4448 2432 
C 4448 1184 4954 166 5722 -614 
L 6106 -416 
C 5370 346 4915 1293 4915 2432 
C 4915 3571 5370 4518 6106 5280 
L 5722 5478 
C 4954 4698 4448 3680 4448 2432 
z
" transform="scale(0.015625)"/>
      <path id="NotoSansCJKsc-Regular-3d78" d="M 2970 5286 
L 2970 154 
C 2970 26 2918 -13 2790 -19 
C 2656 -26 2195 -32 1728 -13 
C 1805 -147 1894 -378 1926 -512 
C 2528 -518 2925 -506 3162 -422 
C 3392 -346 3488 -198 3488 154 
L 3488 5286 
L 2970 5286 
z
M 4512 3654 
C 5062 2733 5581 1536 5728 774 
L 6246 986 
C 6080 1754 5536 2931 4973 3827 
L 4512 3654 
z
M 1293 3782 
C 1133 2925 774 1818 205 1139 
C 339 1082 550 966 659 883 
C 1242 1594 1619 2752 1830 3693 
L 1293 3782 
z
" transform="scale(0.015625)"/>
      <path id="NotoSansCJKsc-Regular-4f3a" d="M 2163 2886 
L 2163 1613 
L 966 1613 
L 966 2886 
L 2163 2886 
z
M 2163 3322 
L 966 3322 
L 966 4544 
L 2163 4544 
L 2163 3322 
z
M 512 4986 
L 512 563 
L 966 563 
L 966 1165 
L 2611 1165 
L 2611 4986 
L 512 4986 
z
M 5466 4653 
L 5466 3546 
L 3674 3546 
L 3674 4653 
L 5466 4653 
z
M 3206 5101 
L 3206 2822 
C 3206 1824 3098 602 2010 -224 
C 2112 -294 2291 -454 2362 -557 
C 3098 6 3424 781 3571 1542 
L 5466 1542 
L 5466 122 
C 5466 6 5421 -32 5306 -32 
C 5197 -38 4794 -45 4378 -26 
C 4448 -160 4531 -365 4550 -499 
C 5107 -499 5453 -486 5664 -410 
C 5869 -333 5939 -179 5939 122 
L 5939 5101 
L 3206 5101 
z
M 5466 3110 
L 5466 1978 
L 3635 1978 
C 3667 2266 3674 2554 3674 2816 
L 3674 3110 
L 5466 3110 
z
" transform="scale(0.015625)"/>
      <path id="NotoSansCJKsc-Regular-4f81" d="M 1562 3648 
L 4845 3648 
L 4845 2982 
L 1562 2982 
L 1562 3648 
z
M 1562 4678 
L 4845 4678 
L 4845 4019 
L 1562 4019 
L 1562 4678 
z
M 1094 5062 
L 1094 2592 
L 5331 2592 
L 5331 5062 
L 1094 5062 
z
M 5248 2112 
C 5037 1702 4653 1152 4365 806 
L 4736 621 
C 5030 966 5389 1472 5664 1920 
L 5248 2112 
z
M 794 1901 
C 1056 1491 1363 928 1510 595 
L 1901 787 
C 1760 1114 1434 1664 1171 2061 
L 794 1901 
z
M 3654 2336 
L 3654 250 
L 2707 250 
L 2707 2336 
L 2253 2336 
L 2253 250 
L 256 250 
L 256 -211 
L 6144 -211 
L 6144 250 
L 4115 250 
L 4115 2336 
L 3654 2336 
z
" transform="scale(0.015625)"/>
      <path id="NotoSansCJKsc-Regular-e6af" d="M 1952 2432 
C 1952 3680 1446 4698 678 5478 
L 294 5280 
C 1030 4518 1485 3571 1485 2432 
C 1485 1293 1030 346 294 -416 
L 678 -614 
C 1446 166 1952 1184 1952 2432 
z
" transform="scale(0.015625)"/>
     </defs>
     <use xlink:href="#DejaVuSans-Oblique-57" transform="translate(0 0.40625)"/>
     <use xlink:href="#NotoSansCJKsc-Regular-1" transform="translate(39.208984 0.40625)"/>
     <use xlink:href="#NotoSansCJKsc-Regular-2b87" transform="translate(61.608963 0.40625)"/>
     <use xlink:href="#NotoSansCJKsc-Regular-412d" transform="translate(161.608871 0.40625)"/>
     <use xlink:href="#NotoSansCJKsc-Regular-f6ae" transform="translate(261.60878 0.40625)"/>
     <use xlink:href="#NotoSansCJKsc-Regular-3dbe" transform="translate(361.608688 0.40625)"/>
     <use xlink:href="#NotoSansCJKsc-Regular-9f28" transform="translate(461.608597 0.40625)"/>
     <use xlink:href="#NotoSansCJKsc-Regular-5943" transform="translate(561.608505 0.40625)"/>
     <use xlink:href="#NotoSansCJKsc-Regular-585c" transform="translate(661.608414 0.40625)"/>
     <use xlink:href="#NotoSansCJKsc-Regular-44b3" transform="translate(761.608322 0.40625)"/>
     <use xlink:href="#NotoSansCJKsc-Regular-50ac" transform="translate(861.608231 0.40625)"/>
     <use xlink:href="#NotoSansCJKsc-Regular-2e02" transform="translate(961.608139 0.40625)"/>
     <use xlink:href="#NotoSansCJKsc-Regular-e6ae" transform="translate(1061.608047 0.40625)"/>
     <use xlink:href="#NotoSansCJKsc-Regular-8205" transform="translate(1161.607956 0.40625)"/>
     <use xlink:href="#NotoSansCJKsc-Regular-69ba" transform="translate(1261.607864 0.40625)"/>
     <use xlink:href="#NotoSansCJKsc-Regular-4232" transform="translate(1361.607773 0.40625)"/>
     <use xlink:href="#NotoSansCJKsc-Regular-3d78" transform="translate(1461.607681 0.40625)"/>
     <use xlink:href="#NotoSansCJKsc-Regular-50ac" transform="translate(1561.60759 0.40625)"/>
     <use xlink:href="#NotoSansCJKsc-Regular-4f3a" transform="translate(1661.607498 0.40625)"/>
     <use xlink:href="#NotoSansCJKsc-Regular-4f81" transform="translate(1761.607407 0.40625)"/>
     <use xlink:href="#NotoSansCJKsc-Regular-e6af" transform="translate(1861.607315 0.40625)"/>
    </g>
   </g>
   <g id="legend_2">
    <g id="patch_13">
     <path d="M 631.999687 130.34 
L 696.799688 130.34 
Q 698.599687 130.34 698.599687 128.54 
L 698.599687 88.58 
Q 698.599687 86.78 696.799688 86.78 
L 631.999687 86.78 
Q 630.199687 86.78 630.199687 88.58 
L 630.199687 128.54 
Q 630.199687 130.34 631.999687 130.34 
z
" style="fill: #ffffff; opacity: 0.8; stroke: #cccccc; stroke-linejoin: miter"/>
    </g>
    <g id="line2d_66">
     <path d="M 633.799688 95.15 
L 642.799688 95.15 
L 651.799688 95.15 
" style="fill: none; stroke-dasharray: 7.4,3.2; stroke-dashoffset: 0; stroke: #999999; stroke-width: 2"/>
    </g>
    <g id="text_38">
     <!-- 标准正态 -->
     <g transform="translate(658.999688 98.3) scale(0.09 -0.09)">
      <defs>
       <path id="NotoSansCJKsc-Regular-525d" d="M 2982 4890 
L 2982 4435 
L 5773 4435 
L 5773 4890 
L 2982 4890 
z
M 4986 2080 
C 5286 1440 5587 608 5683 102 
L 6125 262 
C 6016 768 5709 1581 5395 2208 
L 4986 2080 
z
M 3142 2189 
C 2976 1510 2688 826 2330 365 
C 2438 314 2630 179 2720 115 
C 3066 602 3386 1350 3584 2093 
L 3142 2189 
z
M 2701 3360 
L 2701 2906 
L 4070 2906 
L 4070 115 
C 4070 32 4045 6 3949 0 
C 3866 0 3565 -6 3232 6 
C 3296 -141 3366 -346 3386 -486 
C 3834 -486 4128 -474 4314 -397 
C 4499 -314 4557 -166 4557 109 
L 4557 2906 
L 6118 2906 
L 6118 3360 
L 2701 3360 
z
M 1293 5376 
L 1293 4019 
L 314 4019 
L 314 3571 
L 1190 3571 
C 979 2778 563 1856 154 1376 
C 243 1254 371 1056 422 928 
C 742 1338 1056 2010 1293 2701 
L 1293 -506 
L 1773 -506 
L 1773 2842 
C 1990 2528 2246 2131 2355 1926 
L 2637 2304 
C 2509 2483 1958 3187 1773 3398 
L 1773 3571 
L 2611 3571 
L 2611 4019 
L 1773 4019 
L 1773 5376 
L 1293 5376 
z
" transform="scale(0.015625)"/>
       <path id="NotoSansCJKsc-Regular-2b22" d="M 307 4896 
C 627 4448 1005 3827 1171 3443 
L 1619 3680 
C 1446 4058 1056 4653 723 5094 
L 307 4896 
z
M 307 13 
L 794 -211 
C 1094 397 1446 1222 1715 1939 
L 1293 2170 
C 998 1408 595 538 307 13 
z
M 2784 2528 
L 4134 2528 
L 4134 1677 
L 2784 1677 
L 2784 2528 
z
M 2784 2950 
L 2784 3814 
L 4134 3814 
L 4134 2950 
L 2784 2950 
z
M 3885 5152 
C 4064 4870 4269 4486 4358 4230 
L 2893 4230 
C 3046 4544 3181 4877 3296 5210 
L 2848 5318 
C 2528 4333 1984 3379 1350 2771 
C 1453 2694 1632 2522 1702 2432 
C 1926 2662 2138 2931 2336 3238 
L 2336 -512 
L 2784 -512 
L 2784 -58 
L 6106 -58 
L 6106 378 
L 4602 378 
L 4602 1254 
L 5837 1254 
L 5837 1677 
L 4602 1677 
L 4602 2528 
L 5843 2528 
L 5843 2950 
L 4602 2950 
L 4602 3814 
L 5978 3814 
L 5978 4230 
L 4390 4230 
L 4800 4435 
C 4698 4678 4493 5050 4288 5331 
L 3885 5152 
z
M 2784 1254 
L 4134 1254 
L 4134 378 
L 2784 378 
L 2784 1254 
z
" transform="scale(0.015625)"/>
      </defs>
      <use xlink:href="#NotoSansCJKsc-Regular-525d"/>
      <use xlink:href="#NotoSansCJKsc-Regular-2b22" transform="translate(100 0)"/>
      <use xlink:href="#NotoSansCJKsc-Regular-585c" transform="translate(200 0)"/>
      <use xlink:href="#NotoSansCJKsc-Regular-44b3" transform="translate(300 0)"/>
     </g>
    </g>
    <g id="line2d_67">
     <path d="M 633.799688 108.65 
L 642.799688 108.65 
L 651.799688 108.65 
" style="fill: none; stroke: #c44e52; stroke-width: 2.2; stroke-linecap: square"/>
    </g>
    <g id="text_39">
     <!-- $t(1)$ -->
     <g transform="translate(658.999688 111.8) scale(0.09 -0.09)">
      <use xlink:href="#DejaVuSans-Oblique-57" transform="translate(0 0.125)"/>
      <use xlink:href="#DejaVuSans-b" transform="translate(39.208984 0.125)"/>
      <use xlink:href="#DejaVuSans-14" transform="translate(78.222656 0.125)"/>
      <use xlink:href="#DejaVuSans-c" transform="translate(141.845703 0.125)"/>
     </g>
    </g>
    <g id="line2d_68">
     <path d="M 633.799688 122.33 
L 642.799688 122.33 
L 651.799688 122.33 
" style="fill: none; stroke: #4c72b0; stroke-width: 2.2; stroke-linecap: square"/>
    </g>
    <g id="text_40">
     <!-- $t(5)$ -->
     <g transform="translate(658.999688 125.48) scale(0.09 -0.09)">
      <use xlink:href="#DejaVuSans-Oblique-57" transform="translate(0 0.125)"/>
      <use xlink:href="#DejaVuSans-b" transform="translate(39.208984 0.125)"/>
      <use xlink:href="#DejaVuSans-18" transform="translate(78.222656 0.125)"/>
      <use xlink:href="#DejaVuSans-c" transform="translate(141.845703 0.125)"/>
     </g>
    </g>
   </g>
  </g>
  <g id="text_41">
   <!-- 常用抽样分布 -->
   <g transform="translate(314.599688 19.52) scale(0.14 -0.14)">
    <defs>
     <path id="NotoSansCJKsc-Regular-417b" d="M 2003 3142 
L 4429 3142 
L 4429 2515 
L 2003 2515 
L 2003 3142 
z
M 973 1619 
L 973 -224 
L 1453 -224 
L 1453 1184 
L 3034 1184 
L 3034 -512 
L 3526 -512 
L 3526 1184 
L 5018 1184 
L 5018 282 
C 5018 205 4992 186 4890 173 
C 4787 173 4448 173 4064 186 
C 4128 58 4205 -122 4230 -250 
C 4730 -250 5050 -250 5254 -179 
C 5453 -109 5504 26 5504 275 
L 5504 1619 
L 3526 1619 
L 3526 2150 
L 4915 2150 
L 4915 3507 
L 1542 3507 
L 1542 2150 
L 3034 2150 
L 3034 1619 
L 973 1619 
z
M 1075 5139 
C 1267 4922 1478 4602 1581 4384 
L 550 4384 
L 550 3008 
L 1011 3008 
L 1011 3962 
L 5421 3962 
L 5421 3008 
L 5894 3008 
L 5894 4384 
L 3482 4384 
L 3482 5382 
L 2995 5382 
L 2995 4384 
L 1658 4384 
L 2048 4570 
C 1939 4774 1715 5088 1510 5318 
L 1075 5139 
z
M 4883 5325 
C 4755 5094 4518 4755 4339 4544 
L 4736 4384 
C 4922 4576 5165 4870 5382 5152 
L 4883 5325 
z
" transform="scale(0.015625)"/>
     <path id="NotoSansCJKsc-Regular-69ab" d="M 979 4928 
L 979 2605 
C 979 1702 915 570 205 -230 
C 314 -288 506 -448 576 -544 
C 1069 0 1286 736 1382 1453 
L 2989 1453 
L 2989 -454 
L 3475 -454 
L 3475 1453 
L 5203 1453 
L 5203 141 
C 5203 26 5158 -13 5030 -19 
C 4909 -26 4474 -32 4026 -13 
C 4090 -141 4166 -352 4192 -474 
C 4794 -480 5165 -474 5382 -397 
C 5600 -320 5677 -173 5677 141 
L 5677 4928 
L 979 4928 
z
M 1453 4467 
L 2989 4467 
L 2989 3437 
L 1453 3437 
L 1453 4467 
z
M 5203 4467 
L 5203 3437 
L 3475 3437 
L 3475 4467 
L 5203 4467 
z
M 1453 2982 
L 2989 2982 
L 2989 1907 
L 1427 1907 
C 1446 2150 1453 2387 1453 2605 
L 1453 2982 
z
M 5203 2982 
L 5203 1907 
L 3475 1907 
L 3475 2982 
L 5203 2982 
z
" transform="scale(0.015625)"/>
     <path id="NotoSansCJKsc-Regular-4969" d="M 1158 5376 
L 1158 4090 
L 269 4090 
L 269 3635 
L 1158 3635 
L 1158 2240 
L 179 1971 
L 314 1504 
L 1158 1766 
L 1158 45 
C 1158 -51 1120 -77 1037 -77 
C 954 -83 691 -83 397 -77 
C 461 -205 525 -397 544 -512 
C 966 -512 1229 -499 1395 -429 
C 1562 -352 1619 -224 1619 45 
L 1619 1907 
L 2406 2157 
L 2342 2586 
L 1619 2374 
L 1619 3635 
L 2336 3635 
L 2336 4090 
L 1619 4090 
L 1619 5376 
L 1158 5376 
z
M 3021 1741 
L 4032 1741 
L 4032 422 
L 3021 422 
L 3021 1741 
z
M 3021 2195 
L 3021 3443 
L 4032 3443 
L 4032 2195 
L 3021 2195 
z
M 5549 1741 
L 5549 422 
L 4486 422 
L 4486 1741 
L 5549 1741 
z
M 5549 2195 
L 4486 2195 
L 4486 3443 
L 5549 3443 
L 5549 2195 
z
M 4032 5370 
L 4032 3904 
L 2560 3904 
L 2560 -493 
L 3021 -493 
L 3021 -45 
L 5549 -45 
L 5549 -454 
L 6022 -454 
L 6022 3904 
L 4486 3904 
L 4486 5370 
L 4032 5370 
z
" transform="scale(0.015625)"/>
     <path id="NotoSansCJKsc-Regular-52ab" d="M 2822 5190 
C 3040 4864 3270 4429 3360 4154 
L 3808 4339 
C 3712 4614 3469 5030 3245 5350 
L 2822 5190 
z
M 5261 5395 
C 5120 5018 4877 4506 4659 4147 
L 2554 4147 
L 2554 3706 
L 3994 3706 
L 3994 2822 
L 2752 2822 
L 2752 2381 
L 3994 2381 
L 3994 1478 
L 2310 1478 
L 2310 1024 
L 3994 1024 
L 3994 -506 
L 4474 -506 
L 4474 1024 
L 6061 1024 
L 6061 1478 
L 4474 1478 
L 4474 2381 
L 5728 2381 
L 5728 2822 
L 4474 2822 
L 4474 3706 
L 5939 3706 
L 5939 4147 
L 5165 4147 
C 5357 4467 5568 4870 5747 5229 
L 5261 5395 
z
M 1171 5376 
L 1171 4141 
L 352 4141 
L 352 3693 
L 1171 3693 
C 986 2822 595 1798 198 1261 
C 282 1146 403 934 454 794 
C 717 1184 973 1798 1171 2445 
L 1171 -506 
L 1632 -506 
L 1632 2816 
C 1805 2496 2003 2125 2086 1914 
L 2387 2272 
C 2278 2451 1805 3187 1632 3418 
L 1632 3693 
L 2310 3693 
L 2310 4141 
L 1632 4141 
L 1632 5376 
L 1171 5376 
z
" transform="scale(0.015625)"/>
    </defs>
    <use xlink:href="#NotoSansCJKsc-Regular-417b"/>
    <use xlink:href="#NotoSansCJKsc-Regular-69ab" transform="translate(100 0)"/>
    <use xlink:href="#NotoSansCJKsc-Regular-4969" transform="translate(200 0)"/>
    <use xlink:href="#NotoSansCJKsc-Regular-52ab" transform="translate(300 0)"/>
    <use xlink:href="#NotoSansCJKsc-Regular-2b87" transform="translate(400 0)"/>
    <use xlink:href="#NotoSansCJKsc-Regular-412d" transform="translate(500 0)"/>
   </g>
  </g>
 </g>
 <defs>
  <clipPath id="p0333fdb099">
   <rect x="42.079688" y="82.28" width="302.37" height="165.36"/>
  </clipPath>
  <clipPath id="pe73711f0cc">
   <rect x="400.729688" y="82.28" width="302.37" height="165.36"/>
  </clipPath>
 </defs>
</svg>
