<?xml version="1.0" encoding="utf-8" standalone="no"?>
<!DOCTYPE svg PUBLIC "-//W3C//DTD SVG 1.1//EN"
  "http://www.w3.org/Graphics/SVG/1.1/DTD/svg11.dtd">
<svg xmlns:xlink="http://www.w3.org/1999/xlink" width="404.700962pt" height="364.1725pt" viewBox="0 0 404.700962 364.1725" xmlns="http://www.w3.org/2000/svg" version="1.1">
 <metadata>
  <rdf:RDF xmlns:dc="http://purl.org/dc/elements/1.1/" xmlns:cc="http://creativecommons.org/ns#" xmlns:rdf="http://www.w3.org/1999/02/22-rdf-syntax-ns#">
   <cc:Work>
    <dc:type rdf:resource="http://purl.org/dc/dcmitype/StillImage"/>
    <dc:date>2026-08-11T22:38:43.211342</dc:date>
    <dc:format>image/svg+xml</dc:format>
    <dc:creator>
     <cc:Agent>
      <dc:title>Matplotlib v3.10.7+dfsg1, https://matplotlib.org/</dc:title>
     </cc:Agent>
    </dc:creator>
   </cc:Work>
  </rdf:RDF>
 </metadata>
 <defs>
  <style type="text/css">*{stroke-linejoin: round; stroke-linecap: butt}</style>
 </defs>
 <g id="figure_1">
  <g id="patch_1">
   <path d="M 0 364.1725 
L 404.700962 364.1725 
L 404.700962 0 
L 0 0 
z
" style="fill: #ffffff"/>
  </g>
  <g id="axes_1">
   <g id="patch_2">
    <path d="M 24.122344 338.6975 
L 397.500962 338.6975 
L 397.500962 23.4 
L 24.122344 23.4 
z
" style="fill: #ffffff"/>
   </g>
   <g id="matplotlib.axis_1">
    <g id="xtick_1">
     <g id="line2d_1">
      <path d="M 44.8656 338.6975 
L 44.8656 23.4 
" clip-path="url(#p339819553f)" style="fill: none; stroke: #b0b0b0; stroke-opacity: 0.3; stroke-width: 0.8; stroke-linecap: square"/>
     </g>
     <g id="line2d_2">
      <defs>
       <path id="m49adb7286e" d="M 0 0 
L 0 3.5 
" style="stroke: #000000; stroke-width: 0.8"/>
      </defs>
      <g>
       <use xlink:href="#m49adb7286e" x="44.8656" y="338.6975" style="stroke: #000000; stroke-width: 0.8"/>
      </g>
     </g>
     <g id="text_1">
      <!-- -3 -->
      <g transform="translate(39.904428 354.452812) scale(0.11 -0.11)">
       <defs>
        <path id="NotoSansCJKjp-Regular-2d" d="M 294 1568 
L 1933 1568 
L 1933 2016 
L 294 2016 
L 294 1568 
z
" transform="scale(0.015625)"/>
        <path id="NotoSansCJKjp-Regular-33" d="M 1683 -83 
C 2522 -83 3194 416 3194 1254 
C 3194 1901 2752 2310 2202 2445 
L 2202 2477 
C 2701 2650 3034 3034 3034 3603 
C 3034 4346 2458 4774 1664 4774 
C 1126 4774 710 4538 358 4218 
L 672 3846 
C 941 4115 1267 4301 1645 4301 
C 2138 4301 2438 4006 2438 3558 
C 2438 3053 2112 2662 1139 2662 
L 1139 2214 
C 2227 2214 2598 1843 2598 1274 
C 2598 736 2208 403 1645 403 
C 1114 403 762 659 486 941 
L 186 563 
C 493 224 954 -83 1683 -83 
z
" transform="scale(0.015625)"/>
       </defs>
       <use xlink:href="#NotoSansCJKjp-Regular-2d"/>
       <use xlink:href="#NotoSansCJKjp-Regular-33" transform="translate(34.699997 0)"/>
      </g>
     </g>
    </g>
    <g id="xtick_2">
     <g id="line2d_3">
      <path d="M 86.352113 338.6975 
L 86.352113 23.4 
" clip-path="url(#p339819553f)" style="fill: none; stroke: #b0b0b0; stroke-opacity: 0.3; stroke-width: 0.8; stroke-linecap: square"/>
     </g>
     <g id="line2d_4">
      <g>
       <use xlink:href="#m49adb7286e" x="86.352113" y="338.6975" style="stroke: #000000; stroke-width: 0.8"/>
      </g>
     </g>
     <g id="text_2">
      <!-- -2 -->
      <g transform="translate(81.390942 354.452812) scale(0.11 -0.11)">
       <defs>
        <path id="NotoSansCJKjp-Regular-32" d="M 282 0 
L 3232 0 
L 3232 506 
L 1933 506 
C 1696 506 1408 480 1165 461 
C 2266 1504 3008 2458 3008 3398 
C 3008 4230 2477 4774 1638 4774 
C 1043 4774 634 4506 256 4090 
L 595 3757 
C 858 4070 1184 4301 1568 4301 
C 2150 4301 2432 3910 2432 3373 
C 2432 2566 1754 1632 282 346 
L 282 0 
z
" transform="scale(0.015625)"/>
       </defs>
       <use xlink:href="#NotoSansCJKjp-Regular-2d"/>
       <use xlink:href="#NotoSansCJKjp-Regular-32" transform="translate(34.699997 0)"/>
      </g>
     </g>
    </g>
    <g id="xtick_3">
     <g id="line2d_5">
      <path d="M 127.838627 338.6975 
L 127.838627 23.4 
" clip-path="url(#p339819553f)" style="fill: none; stroke: #b0b0b0; stroke-opacity: 0.3; stroke-width: 0.8; stroke-linecap: square"/>
     </g>
     <g id="line2d_6">
      <g>
       <use xlink:href="#m49adb7286e" x="127.838627" y="338.6975" style="stroke: #000000; stroke-width: 0.8"/>
      </g>
     </g>
     <g id="text_3">
      <!-- -1 -->
      <g transform="translate(122.877455 354.452812) scale(0.11 -0.11)">
       <defs>
        <path id="NotoSansCJKjp-Regular-31" d="M 563 0 
L 3136 0 
L 3136 486 
L 2195 486 
L 2195 4691 
L 1747 4691 
C 1491 4544 1190 4435 774 4358 
L 774 3987 
L 1613 3987 
L 1613 486 
L 563 486 
L 563 0 
z
" transform="scale(0.015625)"/>
       </defs>
       <use xlink:href="#NotoSansCJKjp-Regular-2d"/>
       <use xlink:href="#NotoSansCJKjp-Regular-31" transform="translate(34.699997 0)"/>
      </g>
     </g>
    </g>
    <g id="xtick_4">
     <g id="line2d_7">
      <path d="M 169.32514 338.6975 
L 169.32514 23.4 
" clip-path="url(#p339819553f)" style="fill: none; stroke: #b0b0b0; stroke-opacity: 0.3; stroke-width: 0.8; stroke-linecap: square"/>
     </g>
     <g id="line2d_8">
      <g>
       <use xlink:href="#m49adb7286e" x="169.32514" y="338.6975" style="stroke: #000000; stroke-width: 0.8"/>
      </g>
     </g>
     <g id="text_4">
      <!-- 0 -->
      <g transform="translate(166.27264 354.452812) scale(0.11 -0.11)">
       <defs>
        <path id="NotoSansCJKjp-Regular-30" d="M 1779 -83 
C 2669 -83 3238 723 3238 2362 
C 3238 3987 2669 4774 1779 4774 
C 883 4774 320 3987 320 2362 
C 320 723 883 -83 1779 -83 
z
M 1779 390 
C 1248 390 883 986 883 2362 
C 883 3731 1248 4314 1779 4314 
C 2310 4314 2675 3731 2675 2362 
C 2675 986 2310 390 1779 390 
z
" transform="scale(0.015625)"/>
       </defs>
       <use xlink:href="#NotoSansCJKjp-Regular-30"/>
      </g>
     </g>
    </g>
    <g id="xtick_5">
     <g id="line2d_9">
      <path d="M 210.811653 338.6975 
L 210.811653 23.4 
" clip-path="url(#p339819553f)" style="fill: none; stroke: #b0b0b0; stroke-opacity: 0.3; stroke-width: 0.8; stroke-linecap: square"/>
     </g>
     <g id="line2d_10">
      <g>
       <use xlink:href="#m49adb7286e" x="210.811653" y="338.6975" style="stroke: #000000; stroke-width: 0.8"/>
      </g>
     </g>
     <g id="text_5">
      <!-- 1 -->
      <g transform="translate(207.759153 354.452812) scale(0.11 -0.11)">
       <use xlink:href="#NotoSansCJKjp-Regular-31"/>
      </g>
     </g>
    </g>
    <g id="xtick_6">
     <g id="line2d_11">
      <path d="M 252.298166 338.6975 
L 252.298166 23.4 
" clip-path="url(#p339819553f)" style="fill: none; stroke: #b0b0b0; stroke-opacity: 0.3; stroke-width: 0.8; stroke-linecap: square"/>
     </g>
     <g id="line2d_12">
      <g>
       <use xlink:href="#m49adb7286e" x="252.298166" y="338.6975" style="stroke: #000000; stroke-width: 0.8"/>
      </g>
     </g>
     <g id="text_6">
      <!-- 2 -->
      <g transform="translate(249.245666 354.452812) scale(0.11 -0.11)">
       <use xlink:href="#NotoSansCJKjp-Regular-32"/>
      </g>
     </g>
    </g>
    <g id="xtick_7">
     <g id="line2d_13">
      <path d="M 293.784679 338.6975 
L 293.784679 23.4 
" clip-path="url(#p339819553f)" style="fill: none; stroke: #b0b0b0; stroke-opacity: 0.3; stroke-width: 0.8; stroke-linecap: square"/>
     </g>
     <g id="line2d_14">
      <g>
       <use xlink:href="#m49adb7286e" x="293.784679" y="338.6975" style="stroke: #000000; stroke-width: 0.8"/>
      </g>
     </g>
     <g id="text_7">
      <!-- 3 -->
      <g transform="translate(290.732179 354.452812) scale(0.11 -0.11)">
       <use xlink:href="#NotoSansCJKjp-Regular-33"/>
      </g>
     </g>
    </g>
    <g id="xtick_8">
     <g id="line2d_15">
      <path d="M 335.271192 338.6975 
L 335.271192 23.4 
" clip-path="url(#p339819553f)" style="fill: none; stroke: #b0b0b0; stroke-opacity: 0.3; stroke-width: 0.8; stroke-linecap: square"/>
     </g>
     <g id="line2d_16">
      <g>
       <use xlink:href="#m49adb7286e" x="335.271192" y="338.6975" style="stroke: #000000; stroke-width: 0.8"/>
      </g>
     </g>
     <g id="text_8">
      <!-- 4 -->
      <g transform="translate(332.218692 354.452812) scale(0.11 -0.11)">
       <defs>
        <path id="NotoSansCJKjp-Regular-34" d="M 2176 0 
L 2726 0 
L 2726 1293 
L 3354 1293 
L 3354 1760 
L 2726 1760 
L 2726 4691 
L 2080 4691 
L 128 1677 
L 128 1293 
L 2176 1293 
L 2176 0 
z
M 2176 1760 
L 736 1760 
L 1805 3360 
C 1939 3590 2067 3827 2182 4051 
L 2208 4051 
C 2195 3814 2176 3430 2176 3200 
L 2176 1760 
z
" transform="scale(0.015625)"/>
       </defs>
       <use xlink:href="#NotoSansCJKjp-Regular-34"/>
      </g>
     </g>
    </g>
    <g id="xtick_9">
     <g id="line2d_17">
      <path d="M 376.757706 338.6975 
L 376.757706 23.4 
" clip-path="url(#p339819553f)" style="fill: none; stroke: #b0b0b0; stroke-opacity: 0.3; stroke-width: 0.8; stroke-linecap: square"/>
     </g>
     <g id="line2d_18">
      <g>
       <use xlink:href="#m49adb7286e" x="376.757706" y="338.6975" style="stroke: #000000; stroke-width: 0.8"/>
      </g>
     </g>
     <g id="text_9">
      <!-- 5 -->
      <g transform="translate(373.705206 354.452812) scale(0.11 -0.11)">
       <defs>
        <path id="NotoSansCJKjp-Regular-35" d="M 1677 -83 
C 2464 -83 3213 499 3213 1523 
C 3213 2560 2573 3021 1798 3021 
C 1517 3021 1306 2950 1094 2835 
L 1216 4192 
L 2982 4192 
L 2982 4691 
L 704 4691 
L 550 2502 
L 864 2304 
C 1133 2483 1331 2579 1645 2579 
C 2234 2579 2618 2182 2618 1510 
C 2618 826 2176 403 1619 403 
C 1075 403 730 653 467 922 
L 173 538 
C 493 224 941 -83 1677 -83 
z
" transform="scale(0.015625)"/>
       </defs>
       <use xlink:href="#NotoSansCJKjp-Regular-35"/>
      </g>
     </g>
    </g>
   </g>
   <g id="matplotlib.axis_2">
    <g id="ytick_1">
     <g id="line2d_19">
      <path d="M 24.122344 305.508289 
L 397.500962 305.508289 
" clip-path="url(#p339819553f)" style="fill: none; stroke: #b0b0b0; stroke-opacity: 0.3; stroke-width: 0.8; stroke-linecap: square"/>
     </g>
     <g id="line2d_20">
      <defs>
       <path id="m42332bc9e5" d="M 0 0 
L -3.5 0 
" style="stroke: #000000; stroke-width: 0.8"/>
      </defs>
      <g>
       <use xlink:href="#m42332bc9e5" x="24.122344" y="305.508289" style="stroke: #000000; stroke-width: 0.8"/>
      </g>
     </g>
     <g id="text_10">
      <!-- -3 -->
      <g transform="translate(7.2 309.885946) scale(0.11 -0.11)">
       <use xlink:href="#NotoSansCJKjp-Regular-2d"/>
       <use xlink:href="#NotoSansCJKjp-Regular-33" transform="translate(34.699997 0)"/>
      </g>
     </g>
    </g>
    <g id="ytick_2">
     <g id="line2d_21">
      <path d="M 24.122344 264.021776 
L 397.500962 264.021776 
" clip-path="url(#p339819553f)" style="fill: none; stroke: #b0b0b0; stroke-opacity: 0.3; stroke-width: 0.8; stroke-linecap: square"/>
     </g>
     <g id="line2d_22">
      <g>
       <use xlink:href="#m42332bc9e5" x="24.122344" y="264.021776" style="stroke: #000000; stroke-width: 0.8"/>
      </g>
     </g>
     <g id="text_11">
      <!-- -2 -->
      <g transform="translate(7.2 268.399433) scale(0.11 -0.11)">
       <use xlink:href="#NotoSansCJKjp-Regular-2d"/>
       <use xlink:href="#NotoSansCJKjp-Regular-32" transform="translate(34.699997 0)"/>
      </g>
     </g>
    </g>
    <g id="ytick_3">
     <g id="line2d_23">
      <path d="M 24.122344 222.535263 
L 397.500962 222.535263 
" clip-path="url(#p339819553f)" style="fill: none; stroke: #b0b0b0; stroke-opacity: 0.3; stroke-width: 0.8; stroke-linecap: square"/>
     </g>
     <g id="line2d_24">
      <g>
       <use xlink:href="#m42332bc9e5" x="24.122344" y="222.535263" style="stroke: #000000; stroke-width: 0.8"/>
      </g>
     </g>
     <g id="text_12">
      <!-- -1 -->
      <g transform="translate(7.2 226.912919) scale(0.11 -0.11)">
       <use xlink:href="#NotoSansCJKjp-Regular-2d"/>
       <use xlink:href="#NotoSansCJKjp-Regular-31" transform="translate(34.699997 0)"/>
      </g>
     </g>
    </g>
    <g id="ytick_4">
     <g id="line2d_25">
      <path d="M 24.122344 181.04875 
L 397.500962 181.04875 
" clip-path="url(#p339819553f)" style="fill: none; stroke: #b0b0b0; stroke-opacity: 0.3; stroke-width: 0.8; stroke-linecap: square"/>
     </g>
     <g id="line2d_26">
      <g>
       <use xlink:href="#m42332bc9e5" x="24.122344" y="181.04875" style="stroke: #000000; stroke-width: 0.8"/>
      </g>
     </g>
     <g id="text_13">
      <!-- 0 -->
      <g transform="translate(11.017344 185.426406) scale(0.11 -0.11)">
       <use xlink:href="#NotoSansCJKjp-Regular-30"/>
      </g>
     </g>
    </g>
    <g id="ytick_5">
     <g id="line2d_27">
      <path d="M 24.122344 139.562237 
L 397.500962 139.562237 
" clip-path="url(#p339819553f)" style="fill: none; stroke: #b0b0b0; stroke-opacity: 0.3; stroke-width: 0.8; stroke-linecap: square"/>
     </g>
     <g id="line2d_28">
      <g>
       <use xlink:href="#m42332bc9e5" x="24.122344" y="139.562237" style="stroke: #000000; stroke-width: 0.8"/>
      </g>
     </g>
     <g id="text_14">
      <!-- 1 -->
      <g transform="translate(11.017344 143.939893) scale(0.11 -0.11)">
       <use xlink:href="#NotoSansCJKjp-Regular-31"/>
      </g>
     </g>
    </g>
    <g id="ytick_6">
     <g id="line2d_29">
      <path d="M 24.122344 98.075724 
L 397.500962 98.075724 
" clip-path="url(#p339819553f)" style="fill: none; stroke: #b0b0b0; stroke-opacity: 0.3; stroke-width: 0.8; stroke-linecap: square"/>
     </g>
     <g id="line2d_30">
      <g>
       <use xlink:href="#m42332bc9e5" x="24.122344" y="98.075724" style="stroke: #000000; stroke-width: 0.8"/>
      </g>
     </g>
     <g id="text_15">
      <!-- 2 -->
      <g transform="translate(11.017344 102.45338) scale(0.11 -0.11)">
       <use xlink:href="#NotoSansCJKjp-Regular-32"/>
      </g>
     </g>
    </g>
    <g id="ytick_7">
     <g id="line2d_31">
      <path d="M 24.122344 56.589211 
L 397.500962 56.589211 
" clip-path="url(#p339819553f)" style="fill: none; stroke: #b0b0b0; stroke-opacity: 0.3; stroke-width: 0.8; stroke-linecap: square"/>
     </g>
     <g id="line2d_32">
      <g>
       <use xlink:href="#m42332bc9e5" x="24.122344" y="56.589211" style="stroke: #000000; stroke-width: 0.8"/>
      </g>
     </g>
     <g id="text_16">
      <!-- 3 -->
      <g transform="translate(11.017344 60.966867) scale(0.11 -0.11)">
       <use xlink:href="#NotoSansCJKjp-Regular-33"/>
      </g>
     </g>
    </g>
   </g>
   <g id="line2d_33">
    <path d="M 24.122344 181.04875 
L 397.500962 181.04875 
" clip-path="url(#p339819553f)" style="fill: none; stroke: #000000; stroke-width: 0.8; stroke-linecap: square"/>
   </g>
   <g id="line2d_34">
    <path d="M 169.32514 338.6975 
L 169.32514 23.4 
" clip-path="url(#p339819553f)" style="fill: none; stroke: #000000; stroke-width: 0.8; stroke-linecap: square"/>
   </g>
   <g id="line2d_35">
    <path d="M 296.377586 326.251546 
L 286.367646 320.414248 
L 276.768371 314.576949 
L 267.579759 308.739651 
L 258.801812 302.902353 
L 250.434528 297.065054 
L 242.47791 291.227756 
L 234.931955 285.390458 
L 227.796664 279.553159 
L 221.072038 273.715861 
L 214.758076 267.878563 
L 208.854778 262.041264 
L 203.362144 256.203966 
L 199.512167 251.825992 
L 195.893189 247.448019 
L 192.505209 243.070045 
L 189.348228 238.692071 
L 186.422246 234.314097 
L 183.727262 229.936124 
L 181.263277 225.55815 
L 179.03029 221.180176 
L 177.028302 216.802202 
L 175.257313 212.424229 
L 173.717322 208.046255 
L 172.40833 203.668281 
L 171.330336 199.290307 
L 170.483341 194.912334 
L 169.867345 190.53436 
L 169.482347 186.156386 
L 169.328348 181.778412 
L 169.405348 177.400439 
L 169.713346 173.022465 
L 170.252343 168.644491 
L 171.022338 164.266517 
L 172.023332 159.888544 
L 173.255325 155.51057 
L 174.718316 151.132596 
L 176.412306 146.754622 
L 178.337294 142.376649 
L 180.493281 137.998675 
L 182.880267 133.620701 
L 185.498251 129.242727 
L 188.347234 124.864754 
L 191.427216 120.48678 
L 194.738196 116.108806 
L 198.280175 111.730832 
L 202.053152 107.352859 
L 206.057128 102.974885 
L 210.292103 98.596911 
L 216.298066 92.759613 
L 222.714695 86.922314 
L 229.541987 81.085016 
L 236.779944 75.247718 
L 244.428564 69.410419 
L 252.48785 63.573121 
L 260.957799 57.735823 
L 269.838412 51.898524 
L 279.12969 46.061226 
L 288.831632 40.223928 
L 296.377586 35.845954 
L 296.377586 35.845954 
" clip-path="url(#p339819553f)" style="fill: none; stroke: #e74c3c; stroke-width: 2.5; stroke-linecap: square"/>
   </g>
   <g id="line2d_36">
    <path d="M 127.838627 338.6975 
L 127.838627 23.4 
" clip-path="url(#p339819553f)" style="fill: none; stroke-dasharray: 7.4,3.2; stroke-dashoffset: 0; stroke: #3498db; stroke-width: 2"/>
   </g>
   <g id="line2d_37">
    <path d="M 210.811653 181.04875 
L 252.298166 63.707171 
" clip-path="url(#p339819553f)" style="fill: none; stroke-dasharray: 6.66,2.88; stroke-dashoffset: 0; stroke: #9b59b6; stroke-width: 1.8"/>
   </g>
   <g id="line2d_38">
    <path d="M 127.838627 63.707171 
L 252.298166 63.707171 
" clip-path="url(#p339819553f)" style="fill: none; stroke: #16a085; stroke-width: 2; stroke-linecap: square"/>
   </g>
   <g id="patch_3">
    <path d="M 24.122344 338.6975 
L 24.122344 23.4 
" style="fill: none; stroke: #000000; stroke-width: 0.8; stroke-linejoin: miter; stroke-linecap: square"/>
   </g>
   <g id="patch_4">
    <path d="M 397.500962 338.6975 
L 397.500962 23.4 
" style="fill: none; stroke: #000000; stroke-width: 0.8; stroke-linejoin: miter; stroke-linecap: square"/>
   </g>
   <g id="patch_5">
    <path d="M 24.122344 338.6975 
L 397.500962 338.6975 
" style="fill: none; stroke: #000000; stroke-width: 0.8; stroke-linejoin: miter; stroke-linecap: square"/>
   </g>
   <g id="patch_6">
    <path d="M 24.122344 23.4 
L 397.500962 23.4 
" style="fill: none; stroke: #000000; stroke-width: 0.8; stroke-linejoin: miter; stroke-linecap: square"/>
   </g>
   <g id="text_17">
    <!-- $F(\frac{p}{2},0)$ -->
    <g style="fill: #2ecc71" transform="translate(217.03463 170.677122) scale(0.11 -0.11)">
     <defs>
      <path id="Cmmi10-46" d="M 300 0 
Q 238 0 238 84 
Q 241 100 250 139 
Q 259 178 276 201 
Q 294 225 319 225 
Q 709 225 863 269 
Q 947 297 984 441 
L 1863 3956 
Q 1875 4019 1875 4044 
Q 1875 4113 1797 4122 
Q 1678 4147 1338 4147 
Q 1275 4147 1275 4231 
Q 1278 4247 1287 4286 
Q 1297 4325 1314 4348 
Q 1331 4372 1356 4372 
L 4738 4372 
Q 4800 4372 4800 4288 
L 4647 2963 
Q 4647 2944 4625 2925 
Q 4603 2906 4581 2906 
L 4525 2906 
Q 4459 2906 4459 2988 
Q 4500 3278 4500 3463 
Q 4500 3781 4362 3931 
Q 4225 4081 4015 4114 
Q 3806 4147 3438 4147 
L 2753 4147 
Q 2578 4147 2522 4117 
Q 2466 4088 2419 3928 
L 2009 2297 
L 2491 2297 
Q 2728 2297 2875 2322 
Q 3022 2347 3119 2419 
Q 3216 2491 3280 2627 
Q 3344 2763 3397 2988 
Q 3416 3047 3463 3047 
L 3519 3047 
Q 3584 3047 3584 2963 
L 3194 1381 
Q 3166 1325 3128 1325 
L 3072 1325 
Q 3009 1325 3009 1409 
Q 3025 1475 3034 1519 
Q 3044 1563 3058 1645 
Q 3072 1728 3072 1791 
Q 3072 1975 2909 2025 
Q 2747 2075 2484 2075 
L 1959 2075 
L 1544 416 
Q 1528 353 1528 353 
Q 1528 278 1575 269 
Q 1741 225 2228 225 
Q 2291 225 2291 141 
Q 2269 50 2256 25 
Q 2244 0 2181 0 
L 300 0 
z
" transform="scale(0.015625)"/>
      <path id="Cmr10-28" d="M 1984 -1588 
Q 1628 -1306 1370 -942 
Q 1113 -578 948 -165 
Q 784 247 703 697 
Q 622 1147 622 1600 
Q 622 2059 703 2509 
Q 784 2959 951 3375 
Q 1119 3791 1378 4153 
Q 1638 4516 1984 4788 
Q 1984 4800 2016 4800 
L 2075 4800 
Q 2094 4800 2109 4783 
Q 2125 4766 2125 4744 
Q 2125 4716 2113 4703 
Q 1800 4397 1592 4047 
Q 1384 3697 1257 3301 
Q 1131 2906 1075 2482 
Q 1019 2059 1019 1600 
Q 1019 -434 2106 -1491 
Q 2125 -1509 2125 -1544 
Q 2125 -1559 2108 -1579 
Q 2091 -1600 2075 -1600 
L 2016 -1600 
Q 1984 -1600 1984 -1588 
z
" transform="scale(0.015625)"/>
      <path id="Cmmi10-70" d="M -159 -1241 
Q -219 -1241 -219 -1159 
Q -197 -1019 -134 -1019 
Q 66 -1019 145 -983 
Q 225 -947 269 -800 
L 991 2081 
Q 1038 2200 1038 2388 
Q 1038 2663 850 2663 
Q 650 2663 553 2423 
Q 456 2184 366 1819 
Q 366 1778 313 1778 
L 238 1778 
Q 222 1778 203 1801 
Q 184 1825 184 1844 
Q 253 2122 317 2315 
Q 381 2509 517 2668 
Q 653 2828 856 2828 
Q 1075 2828 1240 2704 
Q 1406 2581 1453 2369 
Q 1628 2572 1840 2700 
Q 2053 2828 2278 2828 
Q 2547 2828 2745 2684 
Q 2944 2541 3044 2308 
Q 3144 2075 3144 1806 
Q 3144 1394 2933 953 
Q 2722 513 2361 220 
Q 2000 -72 1588 -72 
Q 1400 -72 1248 34 
Q 1097 141 1013 313 
L 722 -825 
Q 706 -919 703 -934 
Q 703 -1019 1125 -1019 
Q 1191 -1019 1191 -1100 
Q 1169 -1184 1155 -1212 
Q 1141 -1241 1081 -1241 
L -159 -1241 
z
M 1594 97 
Q 1816 97 2006 280 
Q 2197 463 2316 691 
Q 2403 863 2479 1111 
Q 2556 1359 2612 1640 
Q 2669 1922 2669 2088 
Q 2669 2234 2630 2362 
Q 2591 2491 2502 2577 
Q 2413 2663 2266 2663 
Q 2031 2663 1823 2495 
Q 1616 2328 1447 2081 
L 1447 2059 
L 1094 647 
Q 1138 419 1263 258 
Q 1388 97 1594 97 
z
" transform="scale(0.015625)"/>
      <path id="Cmr10-32" d="M 319 0 
L 319 172 
Q 319 188 331 206 
L 1325 1306 
Q 1550 1550 1690 1715 
Q 1831 1881 1968 2097 
Q 2106 2313 2186 2536 
Q 2266 2759 2266 3009 
Q 2266 3272 2169 3511 
Q 2072 3750 1880 3894 
Q 1688 4038 1416 4038 
Q 1138 4038 916 3870 
Q 694 3703 603 3438 
Q 628 3444 672 3444 
Q 816 3444 917 3347 
Q 1019 3250 1019 3097 
Q 1019 2950 917 2848 
Q 816 2747 672 2747 
Q 522 2747 420 2851 
Q 319 2956 319 3097 
Q 319 3338 409 3548 
Q 500 3759 670 3923 
Q 841 4088 1055 4175 
Q 1269 4263 1509 4263 
Q 1875 4263 2190 4108 
Q 2506 3953 2690 3670 
Q 2875 3388 2875 3009 
Q 2875 2731 2753 2481 
Q 2631 2231 2440 2026 
Q 2250 1822 1953 1562 
Q 1656 1303 1563 1216 
L 838 519 
L 1453 519 
Q 1906 519 2211 526 
Q 2516 534 2534 550 
Q 2609 631 2688 1141 
L 2875 1141 
L 2694 0 
L 319 0 
z
" transform="scale(0.015625)"/>
      <path id="Cmmi10-3b" d="M 634 -1153 
Q 634 -1125 659 -1100 
Q 891 -878 1019 -587 
Q 1147 -297 1147 25 
L 1147 103 
Q 1044 0 891 0 
Q 744 0 641 103 
Q 538 206 538 353 
Q 538 503 641 603 
Q 744 703 891 703 
Q 1119 703 1216 492 
Q 1313 281 1313 25 
Q 1313 -331 1170 -651 
Q 1028 -972 769 -1228 
Q 744 -1241 728 -1241 
Q 697 -1241 665 -1212 
Q 634 -1184 634 -1153 
z
" transform="scale(0.015625)"/>
      <path id="Cmr10-30" d="M 1600 -141 
Q 816 -141 533 504 
Q 250 1150 250 2041 
Q 250 2597 351 3087 
Q 453 3578 754 3920 
Q 1056 4263 1600 4263 
Q 2022 4263 2290 4056 
Q 2559 3850 2700 3523 
Q 2841 3197 2892 2823 
Q 2944 2450 2944 2041 
Q 2944 1491 2842 1011 
Q 2741 531 2444 195 
Q 2147 -141 1600 -141 
z
M 1600 25 
Q 1956 25 2131 390 
Q 2306 756 2347 1200 
Q 2388 1644 2388 2144 
Q 2388 2625 2347 3031 
Q 2306 3438 2132 3767 
Q 1959 4097 1600 4097 
Q 1238 4097 1063 3765 
Q 888 3434 847 3029 
Q 806 2625 806 2144 
Q 806 1788 823 1472 
Q 841 1156 916 820 
Q 991 484 1158 254 
Q 1325 25 1600 25 
z
" transform="scale(0.015625)"/>
      <path id="Cmr10-29" d="M 416 -1600 
Q 359 -1600 359 -1544 
Q 359 -1516 372 -1503 
Q 1466 -434 1466 1600 
Q 1466 3634 384 4691 
Q 359 4706 359 4744 
Q 359 4766 376 4783 
Q 394 4800 416 4800 
L 475 4800 
Q 494 4800 506 4788 
Q 966 4425 1272 3906 
Q 1578 3388 1720 2800 
Q 1863 2213 1863 1600 
Q 1863 1147 1786 708 
Q 1709 269 1542 -157 
Q 1375 -584 1119 -945 
Q 863 -1306 506 -1588 
Q 494 -1600 475 -1600 
L 416 -1600 
z
" transform="scale(0.015625)"/>
     </defs>
     <use xlink:href="#Cmmi10-46" transform="translate(0 0.995313)"/>
     <use xlink:href="#Cmr10-28" transform="translate(64.306641 0.995313)"/>
     <use xlink:href="#Cmmi10-70" transform="translate(103.125 52.06875) scale(0.7)"/>
     <use xlink:href="#Cmr10-32" transform="translate(103.125 -39.38125) scale(0.7)"/>
     <use xlink:href="#Cmmi10-3b" transform="translate(150.830078 0.995313)"/>
     <use xlink:href="#Cmr10-30" transform="translate(196.074219 0.995313)"/>
     <use xlink:href="#Cmr10-29" transform="translate(246.074219 0.995313)"/>
     <path d="M 103.125 13.495313 
L 103.125 19.745313 
L 138.330078 19.745313 
L 138.330078 13.495313 
L 103.125 13.495313 
z
"/>
    </g>
   </g>
   <g id="text_18">
    <!-- $P$ -->
    <g style="fill: #9b59b6" transform="translate(258.521143 55.409868) scale(0.12 -0.12)">
     <defs>
      <path id="Cmmi10-50" d="M 313 0 
Q 250 0 250 84 
Q 253 100 262 139 
Q 272 178 289 201 
Q 306 225 331 225 
Q 722 225 878 269 
Q 959 297 997 441 
L 1875 3956 
Q 1888 4019 1888 4044 
Q 1888 4113 1813 4122 
Q 1691 4147 1350 4147 
Q 1288 4147 1288 4231 
Q 1291 4247 1300 4286 
Q 1309 4325 1326 4348 
Q 1344 4372 1369 4372 
L 3578 4372 
Q 3881 4372 4165 4264 
Q 4450 4156 4631 3934 
Q 4813 3713 4813 3397 
Q 4813 2991 4527 2672 
Q 4241 2353 3814 2175 
Q 3388 1997 2988 1997 
L 1947 1997 
L 1556 416 
Q 1544 353 1544 325 
Q 1544 300 1551 283 
Q 1559 266 1573 261 
Q 1588 256 1619 250 
Q 1741 225 2081 225 
Q 2144 225 2144 141 
Q 2122 50 2109 25 
Q 2097 0 2034 0 
L 313 0 
z
M 1978 2188 
L 2875 2188 
Q 3497 2188 3822 2522 
Q 3988 2688 4092 3000 
Q 4197 3313 4197 3566 
Q 4197 3881 3956 4014 
Q 3716 4147 3359 4147 
L 2747 4147 
Q 2572 4147 2515 4117 
Q 2459 4088 2413 3928 
L 1978 2188 
z
" transform="scale(0.015625)"/>
     </defs>
     <use xlink:href="#Cmmi10-50" transform="translate(0 0.6875)"/>
    </g>
   </g>
   <g id="text_19">
    <!-- $|PF|$ -->
    <g style="fill: #9b59b6" transform="translate(231.55491 116.154983) scale(0.12 -0.12)">
     <defs>
      <path id="Cmsy10-6a" d="M 763 -1484 
L 763 4684 
Q 763 4734 800 4767 
Q 838 4800 891 4800 
Q 938 4800 978 4767 
Q 1019 4734 1019 4684 
L 1019 -1484 
Q 1019 -1534 978 -1567 
Q 938 -1600 891 -1600 
Q 838 -1600 800 -1567 
Q 763 -1534 763 -1484 
z
" transform="scale(0.015625)"/>
     </defs>
     <use xlink:href="#Cmsy10-6a"/>
     <use xlink:href="#Cmmi10-50" transform="translate(27.685547 0)"/>
     <use xlink:href="#Cmmi10-46" transform="translate(91.894531 0)"/>
     <use xlink:href="#Cmsy10-6a" transform="translate(156.201172 0)"/>
    </g>
   </g>
   <g id="text_20">
    <!-- $d(P,l)$ -->
    <g style="fill: #16a085" transform="translate(190.068396 53.335543) scale(0.12 -0.12)">
     <defs>
      <path id="Cmmi10-64" d="M 1113 -72 
Q 709 -72 476 233 
Q 244 538 244 953 
Q 244 1363 456 1803 
Q 669 2244 1030 2536 
Q 1391 2828 1806 2828 
Q 1994 2828 2145 2723 
Q 2297 2619 2381 2444 
L 2741 3872 
Q 2766 3981 2772 4044 
Q 2772 4147 2356 4147 
Q 2291 4147 2291 4231 
Q 2294 4247 2305 4287 
Q 2316 4328 2333 4350 
Q 2350 4372 2381 4372 
L 3244 4441 
Q 3322 4441 3322 4359 
L 2400 678 
Q 2356 572 2356 372 
Q 2356 97 2541 97 
Q 2741 97 2845 351 
Q 2950 606 3022 941 
Q 3034 978 3072 978 
L 3150 978 
Q 3175 978 3190 956 
Q 3206 934 3206 916 
Q 3094 469 2961 198 
Q 2828 -72 2528 -72 
Q 2313 -72 2147 54 
Q 1981 181 1941 391 
Q 1528 -72 1113 -72 
z
M 1119 97 
Q 1350 97 1567 270 
Q 1784 444 1941 678 
Q 1947 684 1947 703 
L 2297 2113 
Q 2259 2338 2131 2500 
Q 2003 2663 1791 2663 
Q 1575 2663 1389 2486 
Q 1203 2309 1075 2069 
Q 950 1813 836 1366 
Q 722 919 722 672 
Q 722 450 817 273 
Q 913 97 1119 97 
z
" transform="scale(0.015625)"/>
      <path id="Cmmi10-6c" d="M 281 519 
Q 281 538 286 575 
Q 291 613 295 648 
Q 300 684 300 703 
L 1094 3872 
Q 1119 3981 1125 4044 
Q 1125 4147 709 4147 
Q 647 4147 647 4231 
Q 650 4247 661 4287 
Q 672 4328 689 4350 
Q 706 4372 738 4372 
L 1600 4441 
Q 1678 4441 1678 4359 
L 756 678 
Q 709 575 709 372 
Q 709 97 897 97 
Q 1094 97 1192 342 
Q 1291 588 1369 941 
Q 1381 978 1422 978 
L 1497 978 
Q 1522 978 1539 958 
Q 1556 938 1556 916 
Q 1481 606 1420 426 
Q 1359 247 1225 87 
Q 1091 -72 884 -72 
Q 628 -72 454 93 
Q 281 259 281 519 
z
" transform="scale(0.015625)"/>
     </defs>
     <use xlink:href="#Cmmi10-64"/>
     <use xlink:href="#Cmr10-28" transform="translate(52.001953 0)"/>
     <use xlink:href="#Cmmi10-50" transform="translate(90.820312 0)"/>
     <use xlink:href="#Cmmi10-3b" transform="translate(155.029297 0)"/>
     <use xlink:href="#Cmmi10-6c" transform="translate(200.273438 0)"/>
     <use xlink:href="#Cmr10-29" transform="translate(230.058594 0)"/>
    </g>
   </g>
   <g id="text_21">
    <!-- $|PF|=d(P,l)$ -->
    <g transform="translate(210.811653 322.102895) scale(0.12 -0.12)">
     <defs>
      <path id="Cmr10-3d" d="M 481 850 
Q 428 850 393 890 
Q 359 931 359 978 
Q 359 1031 393 1068 
Q 428 1106 481 1106 
L 4500 1106 
Q 4547 1106 4581 1068 
Q 4616 1031 4616 978 
Q 4616 931 4581 890 
Q 4547 850 4500 850 
L 481 850 
z
M 481 2094 
Q 428 2094 393 2131 
Q 359 2169 359 2222 
Q 359 2269 393 2309 
Q 428 2350 481 2350 
L 4500 2350 
Q 4547 2350 4581 2309 
Q 4616 2269 4616 2222 
Q 4616 2169 4581 2131 
Q 4547 2094 4500 2094 
L 481 2094 
z
" transform="scale(0.015625)"/>
     </defs>
     <use xlink:href="#Cmsy10-6a"/>
     <use xlink:href="#Cmmi10-50" transform="translate(27.685547 0)"/>
     <use xlink:href="#Cmmi10-46" transform="translate(91.894531 0)"/>
     <use xlink:href="#Cmsy10-6a" transform="translate(156.201172 0)"/>
     <use xlink:href="#Cmr10-3d" transform="translate(201.445312 0)"/>
     <use xlink:href="#Cmmi10-64" transform="translate(296.689453 0)"/>
     <use xlink:href="#Cmr10-28" transform="translate(348.691406 0)"/>
     <use xlink:href="#Cmmi10-50" transform="translate(387.509766 0)"/>
     <use xlink:href="#Cmmi10-3b" transform="translate(451.71875 0)"/>
     <use xlink:href="#Cmmi10-6c" transform="translate(496.962891 0)"/>
     <use xlink:href="#Cmr10-29" transform="translate(526.748047 0)"/>
    </g>
   </g>
   <g id="text_22">
    <!-- 抛物线定义：$|PF|=d(P,l)$ -->
    <g transform="translate(140.851653 17.4) scale(0.12 -0.12)">
     <defs>
      <path id="NotoSansCJKjp-Regular-629b" d="M 4109 4160 
L 4109 3725 
L 4595 3725 
C 4544 2445 4410 1382 3974 717 
C 4070 666 4218 531 4282 442 
C 4774 1190 4934 2342 4986 3725 
L 5485 3725 
C 5446 1837 5395 1178 5306 1030 
C 5267 954 5222 941 5158 941 
C 5075 941 4934 941 4768 960 
C 4832 858 4870 685 4870 576 
C 5037 570 5210 570 5325 582 
C 5466 602 5568 640 5651 768 
C 5798 986 5837 1702 5882 3962 
C 5882 4019 5882 4160 5882 4160 
L 4998 4160 
L 5018 5370 
L 4621 5370 
L 4608 4160 
L 4109 4160 
z
M 2566 5338 
L 2560 3776 
L 2035 3776 
L 2035 3334 
L 2554 3334 
C 2515 1690 2349 506 1638 -230 
C 1741 -288 1894 -429 1958 -518 
C 2733 288 2931 1574 2976 3334 
L 3469 3334 
L 3469 301 
C 3469 -269 3642 -403 4237 -403 
C 4365 -403 5293 -403 5440 -403 
C 5958 -403 6086 -179 6144 563 
C 6016 589 5850 653 5747 730 
C 5722 115 5670 -6 5414 -6 
C 5210 -6 4416 -6 4262 -6 
C 3942 -6 3885 45 3885 301 
L 3885 3776 
L 2989 3776 
L 2995 5338 
L 2566 5338 
z
M 922 5376 
L 922 4083 
L 314 4083 
L 314 3635 
L 922 3635 
L 922 2310 
L 224 2093 
L 346 1626 
L 922 1824 
L 922 6 
C 922 -70 896 -90 832 -90 
C 774 -90 589 -96 390 -90 
C 448 -205 506 -390 518 -493 
C 832 -493 1030 -486 1171 -416 
C 1299 -346 1350 -224 1350 6 
L 1350 1971 
L 2022 2208 
L 1952 2643 
L 1350 2451 
L 1350 3635 
L 1875 3635 
L 1875 4083 
L 1350 4083 
L 1350 5376 
L 922 5376 
z
" transform="scale(0.015625)"/>
      <path id="NotoSansCJKjp-Regular-7269" d="M 3418 5376 
C 3206 4403 2822 3488 2285 2906 
C 2394 2842 2579 2707 2656 2630 
C 2938 2957 3181 3379 3392 3853 
L 3942 3853 
C 3648 2822 3078 1747 2400 1210 
C 2528 1139 2682 1024 2778 928 
C 3482 1542 4064 2746 4358 3853 
L 4883 3853 
C 4550 2234 3859 640 2803 -115 
C 2938 -179 3110 -307 3206 -403 
C 4269 442 4979 2163 5306 3853 
L 5606 3853 
C 5478 1299 5338 346 5133 115 
C 5062 32 4998 13 4890 13 
C 4768 13 4512 19 4224 45 
C 4301 -90 4346 -294 4358 -435 
C 4640 -454 4915 -454 5088 -435 
C 5280 -410 5408 -358 5536 -179 
C 5792 134 5933 1139 6074 4058 
C 6080 4122 6086 4301 6086 4301 
L 3571 4301 
C 3680 4614 3782 4954 3859 5293 
L 3418 5376 
z
M 627 5005 
C 550 4218 422 3405 186 2867 
C 288 2822 474 2707 550 2650 
C 659 2912 755 3245 832 3603 
L 1421 3603 
L 1421 2157 
C 973 2029 550 1907 224 1824 
L 352 1363 
L 1421 1696 
L 1421 -512 
L 1869 -512 
L 1869 1837 
L 2675 2093 
L 2611 2515 
L 1869 2291 
L 1869 3603 
L 2528 3603 
L 2528 4064 
L 1869 4064 
L 1869 5370 
L 1421 5370 
L 1421 4064 
L 922 4064 
C 966 4352 1011 4646 1043 4941 
L 627 5005 
z
" transform="scale(0.015625)"/>
      <path id="NotoSansCJKjp-Regular-7ebf" d="M 346 346 
L 448 -115 
C 1037 64 1805 294 2547 512 
L 2477 922 
C 1690 698 877 474 346 346 
z
M 4506 4992 
C 4826 4838 5229 4589 5434 4410 
L 5715 4710 
C 5510 4883 5101 5120 4787 5261 
L 4506 4992 
z
M 461 2707 
C 550 2752 704 2790 1485 2893 
C 1203 2477 954 2157 832 2029 
C 634 1792 486 1632 346 1606 
C 403 1485 474 1261 499 1165 
C 634 1242 851 1306 2458 1632 
C 2445 1728 2445 1907 2458 2035 
L 1184 1805 
C 1670 2381 2157 3085 2566 3789 
L 2163 4032 
C 2042 3795 1901 3552 1760 3322 
L 947 3238 
C 1331 3782 1702 4474 1978 5146 
L 1530 5357 
C 1274 4589 806 3770 666 3558 
C 525 3341 416 3194 301 3162 
C 358 3034 435 2803 461 2707 
z
M 5677 2234 
C 5421 1830 5075 1459 4659 1139 
C 4557 1478 4467 1888 4403 2349 
L 6035 2656 
L 5958 3078 
L 4346 2778 
C 4314 3046 4282 3328 4262 3622 
L 5856 3866 
L 5779 4288 
L 4237 4058 
C 4218 4486 4211 4928 4211 5389 
L 3738 5389 
C 3744 4909 3757 4442 3782 3987 
L 2771 3840 
L 2848 3405 
L 3808 3552 
C 3827 3258 3859 2970 3891 2694 
L 2643 2464 
L 2720 2029 
L 3949 2259 
C 4026 1728 4128 1248 4262 851 
C 3718 486 3091 198 2438 0 
C 2554 -109 2675 -282 2739 -397 
C 3341 -186 3910 90 4422 422 
C 4685 -154 5030 -493 5485 -493 
C 5926 -493 6074 -282 6163 435 
C 6054 480 5901 582 5805 691 
C 5773 122 5709 -26 5536 -26 
C 5254 -26 5018 237 4819 704 
C 5325 1088 5760 1542 6080 2042 
L 5677 2234 
z
" transform="scale(0.015625)"/>
      <path id="NotoSansCJKjp-Regular-5b9a" d="M 1421 2413 
C 1286 1248 934 333 224 -218 
C 339 -294 538 -461 621 -544 
C 1037 -179 1350 307 1574 896 
C 2163 -198 3117 -422 4454 -422 
L 5952 -422 
C 5971 -282 6061 -51 6131 64 
C 5818 58 4717 58 4480 58 
C 4109 58 3757 77 3443 134 
L 3443 1440 
L 5350 1440 
L 5350 1888 
L 3443 1888 
L 3443 2957 
L 5088 2957 
L 5088 3418 
L 1350 3418 
L 1350 2957 
L 2944 2957 
L 2944 269 
C 2419 461 2016 832 1760 1504 
C 1824 1766 1882 2054 1920 2355 
L 1421 2413 
z
M 525 4640 
L 525 3245 
L 998 3245 
L 998 4186 
L 5382 4186 
L 5382 3245 
L 5875 3245 
L 5875 4640 
L 3443 4640 
L 3443 5376 
L 2938 5376 
L 2938 4640 
L 525 4640 
z
" transform="scale(0.015625)"/>
      <path id="NotoSansCJKjp-Regular-4e49" d="M 2643 5242 
C 2874 4762 3162 4109 3277 3686 
L 3712 3866 
C 3584 4288 3302 4915 3059 5402 
L 2643 5242 
z
M 5069 4909 
C 4672 3680 4083 2592 3219 1715 
C 2413 2528 1786 3539 1370 4640 
L 928 4499 
C 1395 3302 2035 2234 2861 1370 
C 2163 755 1299 256 230 -96 
C 320 -198 435 -384 493 -506 
C 1594 -122 2483 397 3206 1037 
C 3942 358 4813 -173 5824 -506 
C 5901 -378 6048 -179 6157 -77 
C 5171 224 4301 730 3571 1382 
C 4486 2310 5107 3450 5562 4755 
L 5069 4909 
z
" transform="scale(0.015625)"/>
      <path id="NotoSansCJKjp-Regular-ff1a" d="M 3200 3482 
C 3456 3482 3686 3667 3686 3962 
C 3686 4256 3456 4442 3200 4442 
C 2944 4442 2714 4256 2714 3962 
C 2714 3667 2944 3482 3200 3482 
z
M 3200 346 
C 3456 346 3686 538 3686 826 
C 3686 1120 3456 1312 3200 1312 
C 2944 1312 2714 1120 2714 826 
C 2714 538 2944 346 3200 346 
z
" transform="scale(0.015625)"/>
     </defs>
     <use xlink:href="#NotoSansCJKjp-Regular-629b" transform="translate(0 0.59375)"/>
     <use xlink:href="#NotoSansCJKjp-Regular-7269" transform="translate(99.999985 0.59375)"/>
     <use xlink:href="#NotoSansCJKjp-Regular-7ebf" transform="translate(199.999969 0.59375)"/>
     <use xlink:href="#NotoSansCJKjp-Regular-5b9a" transform="translate(299.999954 0.59375)"/>
     <use xlink:href="#NotoSansCJKjp-Regular-4e49" transform="translate(399.999939 0.59375)"/>
     <use xlink:href="#NotoSansCJKjp-Regular-ff1a" transform="translate(499.999924 0.59375)"/>
     <use xlink:href="#Cmsy10-6a" transform="translate(599.999908 0.59375)"/>
     <use xlink:href="#Cmmi10-50" transform="translate(627.685455 0.59375)"/>
     <use xlink:href="#Cmmi10-46" transform="translate(691.89444 0.59375)"/>
     <use xlink:href="#Cmsy10-6a" transform="translate(756.20108 0.59375)"/>
     <use xlink:href="#Cmr10-3d" transform="translate(801.445221 0.59375)"/>
     <use xlink:href="#Cmmi10-64" transform="translate(896.689362 0.59375)"/>
     <use xlink:href="#Cmr10-28" transform="translate(948.691315 0.59375)"/>
     <use xlink:href="#Cmmi10-50" transform="translate(987.509674 0.59375)"/>
     <use xlink:href="#Cmmi10-3b" transform="translate(1051.718658 0.59375)"/>
     <use xlink:href="#Cmmi10-6c" transform="translate(1096.962799 0.59375)"/>
     <use xlink:href="#Cmr10-29" transform="translate(1126.747955 0.59375)"/>
    </g>
   </g>
   <g id="PathCollection_1">
    <defs>
     <path id="mc5e03c39ef" d="M 0 3.708099 
C 0.983399 3.708099 1.926654 3.317391 2.622022 2.622022 
C 3.317391 1.926654 3.708099 0.983399 3.708099 0 
C 3.708099 -0.983399 3.317391 -1.926654 2.622022 -2.622022 
C 1.926654 -3.317391 0.983399 -3.708099 0 -3.708099 
C -0.983399 -3.708099 -1.926654 -3.317391 -2.622022 -2.622022 
C -3.317391 -1.926654 -3.708099 -0.983399 -3.708099 0 
C -3.708099 0.983399 -3.317391 1.926654 -2.622022 2.622022 
C -1.926654 3.317391 -0.983399 3.708099 0 3.708099 
z
" style="stroke: #2ecc71"/>
    </defs>
    <g clip-path="url(#p339819553f)">
     <use xlink:href="#mc5e03c39ef" x="210.811653" y="181.04875" style="fill: #2ecc71; stroke: #2ecc71"/>
    </g>
   </g>
   <g id="PathCollection_2">
    <defs>
     <path id="md7efab8363" d="M 0 3.535534 
C 0.937635 3.535534 1.836992 3.163008 2.5 2.5 
C 3.163008 1.836992 3.535534 0.937635 3.535534 0 
C 3.535534 -0.937635 3.163008 -1.836992 2.5 -2.5 
C 1.836992 -3.163008 0.937635 -3.535534 0 -3.535534 
C -0.937635 -3.535534 -1.836992 -3.163008 -2.5 -2.5 
C -3.163008 -1.836992 -3.535534 -0.937635 -3.535534 0 
C -3.535534 0.937635 -3.163008 1.836992 -2.5 2.5 
C -1.836992 3.163008 -0.937635 3.535534 0 3.535534 
z
" style="stroke: #9b59b6"/>
    </defs>
    <g clip-path="url(#p339819553f)">
     <use xlink:href="#md7efab8363" x="252.298166" y="63.707171" style="fill: #9b59b6; stroke: #9b59b6"/>
    </g>
   </g>
   <g id="legend_1">
    <g id="patch_7">
     <path d="M 297.400962 49 
L 390.500962 49 
Q 392.500962 49 392.500962 47 
L 392.500962 30.4 
Q 392.500962 28.4 390.500962 28.4 
L 297.400962 28.4 
Q 295.400962 28.4 295.400962 30.4 
L 295.400962 47 
Q 295.400962 49 297.400962 49 
z
" style="fill: #ffffff; opacity: 0.8; stroke: #cccccc; stroke-linejoin: miter"/>
    </g>
    <g id="line2d_39">
     <path d="M 299.400962 37.4 
L 309.400962 37.4 
L 319.400962 37.4 
" style="fill: none; stroke-dasharray: 7.4,3.2; stroke-dashoffset: 0; stroke: #3498db; stroke-width: 2"/>
    </g>
    <g id="text_23">
     <!-- 准线 $l: x=-\frac{p}{2}$ -->
     <g transform="translate(327.400962 40.9) scale(0.1 -0.1)">
      <defs>
       <path id="NotoSansCJKjp-Regular-51c6" d="M 422 4646 
C 832 4378 1331 3962 1562 3686 
L 1888 4058 
C 1645 4339 1139 4717 730 4986 
L 422 4646 
z
M 230 307 
L 640 -19 
C 1011 518 1459 1235 1805 1843 
L 1453 2157 
C 1075 1504 576 749 230 307 
z
M 4122 2406 
L 4122 1555 
L 2989 1555 
L 2989 2406 
L 4122 2406 
z
M 3046 5376 
C 2733 4410 2208 3469 1606 2867 
C 1709 2790 1888 2592 1958 2502 
C 2157 2714 2349 2963 2528 3232 
L 2528 -512 
L 2989 -512 
L 2989 -205 
L 6144 -205 
L 6144 243 
L 4576 243 
L 4576 1120 
L 5837 1120 
L 5837 1555 
L 4576 1555 
L 4576 2406 
L 5837 2406 
L 5837 2842 
L 4576 2842 
L 4576 3674 
L 5997 3674 
L 5997 4109 
L 4659 4109 
C 4800 4442 4954 4851 5088 5210 
L 4595 5350 
C 4506 4986 4352 4480 4205 4109 
L 3034 4109 
C 3213 4474 3379 4858 3514 5248 
L 3046 5376 
z
M 4122 2842 
L 2989 2842 
L 2989 3674 
L 4122 3674 
L 4122 2842 
z
M 4122 1120 
L 4122 243 
L 2989 243 
L 2989 1120 
L 4122 1120 
z
" transform="scale(0.015625)"/>
       <path id="NotoSansCJKjp-Regular-20" transform="scale(0.015625)"/>
       <path id="Cmr10-3a" d="M 538 353 
Q 538 497 644 600 
Q 750 703 891 703 
Q 978 703 1062 656 
Q 1147 609 1194 525 
Q 1241 441 1241 353 
Q 1241 213 1137 106 
Q 1034 0 891 0 
Q 750 0 644 106 
Q 538 213 538 353 
z
M 538 2406 
Q 538 2497 584 2578 
Q 631 2659 714 2709 
Q 797 2759 891 2759 
Q 981 2759 1064 2709 
Q 1147 2659 1194 2578 
Q 1241 2497 1241 2406 
Q 1241 2263 1139 2158 
Q 1038 2053 891 2053 
Q 747 2053 642 2158 
Q 538 2263 538 2406 
z
" transform="scale(0.015625)"/>
       <path id="Cmmi10-78" d="M 500 184 
Q 613 97 819 97 
Q 1019 97 1172 289 
Q 1325 481 1381 709 
L 1672 1844 
Q 1741 2153 1741 2266 
Q 1741 2425 1652 2544 
Q 1563 2663 1403 2663 
Q 1200 2663 1022 2536 
Q 844 2409 722 2214 
Q 600 2019 550 1819 
Q 538 1778 500 1778 
L 422 1778 
Q 372 1778 372 1838 
L 372 1856 
Q 434 2094 584 2320 
Q 734 2547 951 2687 
Q 1169 2828 1416 2828 
Q 1650 2828 1839 2703 
Q 2028 2578 2106 2363 
Q 2216 2559 2386 2693 
Q 2556 2828 2759 2828 
Q 2897 2828 3040 2779 
Q 3184 2731 3275 2631 
Q 3366 2531 3366 2381 
Q 3366 2219 3261 2101 
Q 3156 1984 2994 1984 
Q 2891 1984 2822 2050 
Q 2753 2116 2753 2216 
Q 2753 2350 2845 2451 
Q 2938 2553 3066 2572 
Q 2950 2663 2747 2663 
Q 2541 2663 2389 2472 
Q 2238 2281 2175 2047 
L 1894 916 
Q 1825 659 1825 494 
Q 1825 331 1917 214 
Q 2009 97 2163 97 
Q 2463 97 2698 361 
Q 2934 625 3009 941 
Q 3022 978 3059 978 
L 3138 978 
Q 3163 978 3178 961 
Q 3194 944 3194 922 
Q 3194 916 3188 903 
Q 3097 522 2806 225 
Q 2516 -72 2150 -72 
Q 1916 -72 1727 54 
Q 1538 181 1459 397 
Q 1359 209 1182 68 
Q 1006 -72 806 -72 
Q 669 -72 523 -23 
Q 378 25 287 125 
Q 197 225 197 378 
Q 197 528 301 651 
Q 406 775 563 775 
Q 669 775 741 711 
Q 813 647 813 544 
Q 813 409 723 309 
Q 634 209 500 184 
z
" transform="scale(0.015625)"/>
       <path id="Cmsy10-a1" d="M 653 1472 
Q 600 1472 565 1512 
Q 531 1553 531 1600 
Q 531 1647 565 1687 
Q 600 1728 653 1728 
L 4325 1728 
Q 4375 1728 4408 1687 
Q 4441 1647 4441 1600 
Q 4441 1553 4408 1512 
Q 4375 1472 4325 1472 
L 653 1472 
z
" transform="scale(0.015625)"/>
      </defs>
      <use xlink:href="#NotoSansCJKjp-Regular-51c6" transform="translate(0 0.796875)"/>
      <use xlink:href="#NotoSansCJKjp-Regular-7ebf" transform="translate(99.999985 0.796875)"/>
      <use xlink:href="#NotoSansCJKjp-Regular-20" transform="translate(199.999969 0.796875)"/>
      <use xlink:href="#Cmmi10-6c" transform="translate(222.399963 0.796875)"/>
      <use xlink:href="#Cmr10-3a" transform="translate(269.743713 0.796875)"/>
      <use xlink:href="#Cmmi10-78" transform="translate(314.987854 0.796875)"/>
      <use xlink:href="#Cmr10-3d" transform="translate(389.626526 0.796875)"/>
      <use xlink:href="#Cmsy10-a1" transform="translate(484.870667 0.796875)"/>
      <use xlink:href="#Cmmi10-70" transform="translate(562.556213 51.870312) scale(0.7)"/>
      <use xlink:href="#Cmr10-32" transform="translate(562.556213 -39.579688) scale(0.7)"/>
      <path d="M 562.556213 13.296875 
L 562.556213 19.546875 
L 597.761292 19.546875 
L 597.761292 13.296875 
L 562.556213 13.296875 
z
"/>
     </g>
    </g>
   </g>
  </g>
 </g>
 <defs>
  <clipPath id="p339819553f">
   <rect x="24.122344" y="23.4" width="373.378618" height="315.2975"/>
  </clipPath>
 </defs>
</svg>
