<?xml version="1.0" encoding="utf-8" standalone="no"?>
<!DOCTYPE svg PUBLIC "-//W3C//DTD SVG 1.1//EN"
  "http://www.w3.org/Graphics/SVG/1.1/DTD/svg11.dtd">
<svg xmlns:xlink="http://www.w3.org/1999/xlink" width="550.440469pt" height="564.439375pt" viewBox="0 0 550.440469 564.439375" xmlns="http://www.w3.org/2000/svg" version="1.1">
 <metadata>
  <rdf:RDF xmlns:dc="http://purl.org/dc/elements/1.1/" xmlns:cc="http://creativecommons.org/ns#" xmlns:rdf="http://www.w3.org/1999/02/22-rdf-syntax-ns#">
   <cc:Work>
    <dc:type rdf:resource="http://purl.org/dc/dcmitype/StillImage"/>
    <dc:date>2026-08-05T20:41:57.458330</dc:date>
    <dc:format>image/svg+xml</dc:format>
    <dc:creator>
     <cc:Agent>
      <dc:title>Matplotlib v3.10.7+dfsg1, https://matplotlib.org/</dc:title>
     </cc:Agent>
    </dc:creator>
   </cc:Work>
  </rdf:RDF>
 </metadata>
 <defs>
  <style type="text/css">*{stroke-linejoin: round; stroke-linecap: butt}</style>
 </defs>
 <g id="figure_1">
  <g id="patch_1">
   <path d="M 0 564.439375 
L 550.440469 564.439375 
L 550.440469 0 
L 0 0 
z
" style="fill: #ffffff"/>
  </g>
  <g id="axes_1">
   <g id="patch_2">
    <path d="M 36.926563 526.23625 
L 540.486563 526.23625 
L 540.486563 22.67625 
L 36.926563 22.67625 
z
" style="fill: #ffffff"/>
   </g>
   <g id="matplotlib.axis_1">
    <g id="xtick_1">
     <g id="line2d_1">
      <path d="M 82.704744 526.23625 
L 82.704744 22.67625 
" clip-path="url(#p869eb754e5)" style="fill: none; stroke: #b0b0b0; stroke-opacity: 0.3; stroke-width: 0.8; stroke-linecap: square"/>
     </g>
     <g id="line2d_2">
      <defs>
       <path id="mba4d38e8ca" d="M 0 0 
L 0 3.5 
" style="stroke: #000000; stroke-width: 0.8"/>
      </defs>
      <g>
       <use xlink:href="#mba4d38e8ca" x="82.704744" y="526.23625" style="stroke: #000000; stroke-width: 0.8"/>
      </g>
     </g>
     <g id="text_1">
      <!-- -2 -->
      <g transform="translate(78.342244 540.834688) scale(0.1 -0.1)">
       <defs>
        <path id="WenQuanYiMicroHei-2d" d="M 256 1453 
L 256 1978 
L 1806 1978 
L 1806 1453 
L 256 1453 
z
" transform="scale(0.015625)"/>
        <path id="WenQuanYiMicroHei-32" d="M 3150 0 
L 300 0 
L 300 488 
L 1394 1678 
Q 1628 1931 1812 2140 
Q 1997 2350 2126 2550 
Q 2256 2750 2325 2951 
Q 2394 3153 2394 3391 
Q 2394 3575 2341 3715 
Q 2288 3856 2189 3954 
Q 2091 4053 1956 4103 
Q 1822 4153 1656 4153 
Q 1359 4153 1120 4033 
Q 881 3913 666 3725 
L 347 4097 
Q 472 4209 615 4307 
Q 759 4406 925 4478 
Q 1091 4550 1275 4592 
Q 1459 4634 1663 4634 
Q 1963 4634 2205 4550 
Q 2447 4466 2615 4308 
Q 2784 4150 2876 3923 
Q 2969 3697 2969 3413 
Q 2969 3147 2886 2906 
Q 2803 2666 2658 2433 
Q 2513 2200 2311 1965 
Q 2109 1731 1875 1478 
L 997 544 
L 997 519 
L 3150 519 
L 3150 0 
z
" transform="scale(0.015625)"/>
       </defs>
       <use xlink:href="#WenQuanYiMicroHei-2d"/>
       <use xlink:href="#WenQuanYiMicroHei-32" transform="translate(32.177734 0)"/>
      </g>
     </g>
    </g>
    <g id="xtick_2">
     <g id="line2d_3">
      <path d="M 174.261108 526.23625 
L 174.261108 22.67625 
" clip-path="url(#p869eb754e5)" style="fill: none; stroke: #b0b0b0; stroke-opacity: 0.3; stroke-width: 0.8; stroke-linecap: square"/>
     </g>
     <g id="line2d_4">
      <g>
       <use xlink:href="#mba4d38e8ca" x="174.261108" y="526.23625" style="stroke: #000000; stroke-width: 0.8"/>
      </g>
     </g>
     <g id="text_2">
      <!-- 0 -->
      <g transform="translate(171.507202 540.834688) scale(0.1 -0.1)">
       <defs>
        <path id="WenQuanYiMicroHei-30" d="M 3225 2291 
Q 3225 1738 3145 1300 
Q 3066 863 2889 559 
Q 2713 256 2434 96 
Q 2156 -63 1759 -63 
Q 1391 -63 1117 96 
Q 844 256 664 559 
Q 484 863 395 1300 
Q 306 1738 306 2291 
Q 306 2844 386 3281 
Q 466 3719 639 4020 
Q 813 4322 1089 4481 
Q 1366 4641 1759 4641 
Q 2131 4641 2406 4483 
Q 2681 4325 2862 4023 
Q 3044 3722 3134 3284 
Q 3225 2847 3225 2291 
z
M 884 2291 
Q 884 1822 931 1472 
Q 978 1122 1081 889 
Q 1184 656 1351 539 
Q 1519 422 1759 422 
Q 2000 422 2169 537 
Q 2338 653 2445 884 
Q 2553 1116 2601 1467 
Q 2650 1819 2650 2291 
Q 2650 2759 2601 3109 
Q 2553 3459 2445 3690 
Q 2338 3922 2169 4037 
Q 2000 4153 1759 4153 
Q 1519 4153 1351 4037 
Q 1184 3922 1081 3690 
Q 978 3459 931 3109 
Q 884 2759 884 2291 
z
" transform="scale(0.015625)"/>
       </defs>
       <use xlink:href="#WenQuanYiMicroHei-30"/>
      </g>
     </g>
    </g>
    <g id="xtick_3">
     <g id="line2d_5">
      <path d="M 265.817472 526.23625 
L 265.817472 22.67625 
" clip-path="url(#p869eb754e5)" style="fill: none; stroke: #b0b0b0; stroke-opacity: 0.3; stroke-width: 0.8; stroke-linecap: square"/>
     </g>
     <g id="line2d_6">
      <g>
       <use xlink:href="#mba4d38e8ca" x="265.817472" y="526.23625" style="stroke: #000000; stroke-width: 0.8"/>
      </g>
     </g>
     <g id="text_3">
      <!-- 2 -->
      <g transform="translate(263.063565 540.834688) scale(0.1 -0.1)">
       <use xlink:href="#WenQuanYiMicroHei-32"/>
      </g>
     </g>
    </g>
    <g id="xtick_4">
     <g id="line2d_7">
      <path d="M 357.373835 526.23625 
L 357.373835 22.67625 
" clip-path="url(#p869eb754e5)" style="fill: none; stroke: #b0b0b0; stroke-opacity: 0.3; stroke-width: 0.8; stroke-linecap: square"/>
     </g>
     <g id="line2d_8">
      <g>
       <use xlink:href="#mba4d38e8ca" x="357.373835" y="526.23625" style="stroke: #000000; stroke-width: 0.8"/>
      </g>
     </g>
     <g id="text_4">
      <!-- 4 -->
      <g transform="translate(354.619929 540.834688) scale(0.1 -0.1)">
       <defs>
        <path id="WenQuanYiMicroHei-34" d="M 3397 1025 
L 2731 1025 
L 2731 0 
L 2181 0 
L 2181 1025 
L 72 1025 
L 72 1522 
L 2144 4594 
L 2731 4594 
L 2731 1544 
L 3397 1544 
L 3397 1025 
z
M 2181 1544 
L 2181 2656 
Q 2181 2831 2186 3023 
Q 2191 3216 2197 3398 
Q 2203 3581 2211 3740 
Q 2219 3900 2222 4006 
L 2194 4006 
Q 2172 3944 2139 3867 
Q 2106 3791 2067 3714 
Q 2028 3638 1987 3566 
Q 1947 3494 1913 3444 
L 628 1544 
L 2181 1544 
z
" transform="scale(0.015625)"/>
       </defs>
       <use xlink:href="#WenQuanYiMicroHei-34"/>
      </g>
     </g>
    </g>
    <g id="xtick_5">
     <g id="line2d_9">
      <path d="M 448.930199 526.23625 
L 448.930199 22.67625 
" clip-path="url(#p869eb754e5)" style="fill: none; stroke: #b0b0b0; stroke-opacity: 0.3; stroke-width: 0.8; stroke-linecap: square"/>
     </g>
     <g id="line2d_10">
      <g>
       <use xlink:href="#mba4d38e8ca" x="448.930199" y="526.23625" style="stroke: #000000; stroke-width: 0.8"/>
      </g>
     </g>
     <g id="text_5">
      <!-- 6 -->
      <g transform="translate(446.176293 540.834688) scale(0.1 -0.1)">
       <defs>
        <path id="WenQuanYiMicroHei-36" d="M 353 1953 
Q 353 2281 386 2606 
Q 419 2931 501 3229 
Q 584 3528 728 3784 
Q 872 4041 1094 4230 
Q 1316 4419 1625 4526 
Q 1934 4634 2350 4634 
Q 2409 4634 2481 4631 
Q 2553 4628 2626 4620 
Q 2700 4613 2767 4602 
Q 2834 4591 2888 4575 
L 2888 4091 
Q 2778 4128 2640 4147 
Q 2503 4166 2369 4166 
Q 2088 4166 1873 4098 
Q 1659 4031 1503 3909 
Q 1347 3788 1242 3619 
Q 1138 3450 1072 3245 
Q 1006 3041 975 2809 
Q 944 2578 934 2328 
L 972 2328 
Q 1034 2441 1123 2539 
Q 1213 2638 1331 2708 
Q 1450 2778 1598 2818 
Q 1747 2859 1931 2859 
Q 2228 2859 2468 2767 
Q 2709 2675 2878 2497 
Q 3047 2319 3139 2061 
Q 3231 1803 3231 1472 
Q 3231 1116 3134 831 
Q 3038 547 2856 348 
Q 2675 150 2419 43 
Q 2163 -63 1844 -63 
Q 1531 -63 1257 59 
Q 984 181 784 431 
Q 584 681 468 1059 
Q 353 1438 353 1953 
z
M 1838 416 
Q 2025 416 2179 480 
Q 2334 544 2446 673 
Q 2559 803 2620 1001 
Q 2681 1200 2681 1472 
Q 2681 1691 2629 1864 
Q 2578 2038 2475 2159 
Q 2372 2281 2217 2347 
Q 2063 2413 1856 2413 
Q 1647 2413 1473 2339 
Q 1300 2266 1178 2148 
Q 1056 2031 989 1881 
Q 922 1731 922 1581 
Q 922 1372 980 1164 
Q 1038 956 1152 790 
Q 1266 625 1437 520 
Q 1609 416 1838 416 
z
" transform="scale(0.015625)"/>
       </defs>
       <use xlink:href="#WenQuanYiMicroHei-36"/>
      </g>
     </g>
    </g>
    <g id="xtick_6">
     <g id="line2d_11">
      <path d="M 540.486563 526.23625 
L 540.486563 22.67625 
" clip-path="url(#p869eb754e5)" style="fill: none; stroke: #b0b0b0; stroke-opacity: 0.3; stroke-width: 0.8; stroke-linecap: square"/>
     </g>
     <g id="line2d_12">
      <g>
       <use xlink:href="#mba4d38e8ca" x="540.486563" y="526.23625" style="stroke: #000000; stroke-width: 0.8"/>
      </g>
     </g>
     <g id="text_6">
      <!-- 8 -->
      <g transform="translate(537.732656 540.834688) scale(0.1 -0.1)">
       <defs>
        <path id="WenQuanYiMicroHei-38" d="M 1766 4641 
Q 2028 4641 2261 4572 
Q 2494 4503 2670 4365 
Q 2847 4228 2950 4022 
Q 3053 3816 3053 3541 
Q 3053 3331 2990 3162 
Q 2928 2994 2818 2858 
Q 2709 2722 2559 2614 
Q 2409 2506 2234 2419 
Q 2416 2322 2589 2203 
Q 2763 2084 2898 1936 
Q 3034 1788 3117 1603 
Q 3200 1419 3200 1191 
Q 3200 903 3095 670 
Q 2991 438 2802 275 
Q 2613 113 2348 25 
Q 2084 -63 1766 -63 
Q 1422 -63 1155 21 
Q 888 106 705 264 
Q 522 422 426 650 
Q 331 878 331 1166 
Q 331 1400 401 1587 
Q 472 1775 590 1925 
Q 709 2075 871 2190 
Q 1034 2306 1216 2394 
Q 1063 2491 928 2605 
Q 794 2719 695 2859 
Q 597 3000 539 3170 
Q 481 3341 481 3547 
Q 481 3819 586 4023 
Q 691 4228 869 4365 
Q 1047 4503 1280 4572 
Q 1513 4641 1766 4641 
z
M 891 1159 
Q 891 994 941 855 
Q 991 716 1097 617 
Q 1203 519 1365 464 
Q 1528 409 1753 409 
Q 1972 409 2139 464 
Q 2306 519 2418 620 
Q 2531 722 2587 865 
Q 2644 1009 2644 1184 
Q 2644 1347 2583 1478 
Q 2522 1609 2408 1721 
Q 2294 1834 2134 1934 
Q 1975 2034 1778 2131 
L 1684 2175 
Q 1291 1988 1091 1745 
Q 891 1503 891 1159 
z
M 1759 4166 
Q 1428 4166 1233 4000 
Q 1038 3834 1038 3519 
Q 1038 3341 1092 3212 
Q 1147 3084 1244 2984 
Q 1341 2884 1477 2804 
Q 1613 2725 1772 2650 
Q 1922 2719 2055 2800 
Q 2188 2881 2286 2984 
Q 2384 3088 2440 3219 
Q 2497 3350 2497 3519 
Q 2497 3834 2300 4000 
Q 2103 4166 1759 4166 
z
" transform="scale(0.015625)"/>
       </defs>
       <use xlink:href="#WenQuanYiMicroHei-38"/>
      </g>
     </g>
    </g>
    <g id="text_7">
     <!-- x -->
     <g transform="translate(286.206563 554.83625) scale(0.1 -0.1)">
      <defs>
       <path id="WenQuanYiMicroHei-78" d="M 1275 1759 
L 172 3431 
L 819 3431 
L 1600 2150 
L 2381 3431 
L 3028 3431 
L 1919 1759 
L 3084 0 
L 2438 0 
L 1600 1363 
L 756 0 
L 109 0 
L 1275 1759 
z
" transform="scale(0.015625)"/>
      </defs>
      <use xlink:href="#WenQuanYiMicroHei-78"/>
     </g>
    </g>
   </g>
   <g id="matplotlib.axis_2">
    <g id="ytick_1">
     <g id="line2d_13">
      <path d="M 36.926563 480.458068 
L 540.486563 480.458068 
" clip-path="url(#p869eb754e5)" style="fill: none; stroke: #b0b0b0; stroke-opacity: 0.3; stroke-width: 0.8; stroke-linecap: square"/>
     </g>
     <g id="line2d_14">
      <defs>
       <path id="m791f60ce37" d="M 0 0 
L -3.5 0 
" style="stroke: #000000; stroke-width: 0.8"/>
      </defs>
      <g>
       <use xlink:href="#m791f60ce37" x="36.926563" y="480.458068" style="stroke: #000000; stroke-width: 0.8"/>
      </g>
     </g>
     <g id="text_8">
      <!-- -2 -->
      <g transform="translate(21.201563 484.257287) scale(0.1 -0.1)">
       <use xlink:href="#WenQuanYiMicroHei-2d"/>
       <use xlink:href="#WenQuanYiMicroHei-32" transform="translate(32.177734 0)"/>
      </g>
     </g>
    </g>
    <g id="ytick_2">
     <g id="line2d_15">
      <path d="M 36.926563 388.901705 
L 540.486563 388.901705 
" clip-path="url(#p869eb754e5)" style="fill: none; stroke: #b0b0b0; stroke-opacity: 0.3; stroke-width: 0.8; stroke-linecap: square"/>
     </g>
     <g id="line2d_16">
      <g>
       <use xlink:href="#m791f60ce37" x="36.926563" y="388.901705" style="stroke: #000000; stroke-width: 0.8"/>
      </g>
     </g>
     <g id="text_9">
      <!-- 0 -->
      <g transform="translate(24.41875 392.700923) scale(0.1 -0.1)">
       <use xlink:href="#WenQuanYiMicroHei-30"/>
      </g>
     </g>
    </g>
    <g id="ytick_3">
     <g id="line2d_17">
      <path d="M 36.926563 297.345341 
L 540.486563 297.345341 
" clip-path="url(#p869eb754e5)" style="fill: none; stroke: #b0b0b0; stroke-opacity: 0.3; stroke-width: 0.8; stroke-linecap: square"/>
     </g>
     <g id="line2d_18">
      <g>
       <use xlink:href="#m791f60ce37" x="36.926563" y="297.345341" style="stroke: #000000; stroke-width: 0.8"/>
      </g>
     </g>
     <g id="text_10">
      <!-- 2 -->
      <g transform="translate(24.41875 301.14456) scale(0.1 -0.1)">
       <use xlink:href="#WenQuanYiMicroHei-32"/>
      </g>
     </g>
    </g>
    <g id="ytick_4">
     <g id="line2d_19">
      <path d="M 36.926563 205.788977 
L 540.486563 205.788977 
" clip-path="url(#p869eb754e5)" style="fill: none; stroke: #b0b0b0; stroke-opacity: 0.3; stroke-width: 0.8; stroke-linecap: square"/>
     </g>
     <g id="line2d_20">
      <g>
       <use xlink:href="#m791f60ce37" x="36.926563" y="205.788977" style="stroke: #000000; stroke-width: 0.8"/>
      </g>
     </g>
     <g id="text_11">
      <!-- 4 -->
      <g transform="translate(24.41875 209.588196) scale(0.1 -0.1)">
       <use xlink:href="#WenQuanYiMicroHei-34"/>
      </g>
     </g>
    </g>
    <g id="ytick_5">
     <g id="line2d_21">
      <path d="M 36.926563 114.232614 
L 540.486563 114.232614 
" clip-path="url(#p869eb754e5)" style="fill: none; stroke: #b0b0b0; stroke-opacity: 0.3; stroke-width: 0.8; stroke-linecap: square"/>
     </g>
     <g id="line2d_22">
      <g>
       <use xlink:href="#m791f60ce37" x="36.926563" y="114.232614" style="stroke: #000000; stroke-width: 0.8"/>
      </g>
     </g>
     <g id="text_12">
      <!-- 6 -->
      <g transform="translate(24.41875 118.031832) scale(0.1 -0.1)">
       <use xlink:href="#WenQuanYiMicroHei-36"/>
      </g>
     </g>
    </g>
    <g id="ytick_6">
     <g id="line2d_23">
      <path d="M 36.926563 22.67625 
L 540.486563 22.67625 
" clip-path="url(#p869eb754e5)" style="fill: none; stroke: #b0b0b0; stroke-opacity: 0.3; stroke-width: 0.8; stroke-linecap: square"/>
     </g>
     <g id="line2d_24">
      <g>
       <use xlink:href="#m791f60ce37" x="36.926563" y="22.67625" style="stroke: #000000; stroke-width: 0.8"/>
      </g>
     </g>
     <g id="text_13">
      <!-- 8 -->
      <g transform="translate(24.41875 26.475469) scale(0.1 -0.1)">
       <use xlink:href="#WenQuanYiMicroHei-38"/>
      </g>
     </g>
    </g>
    <g id="text_14">
     <!-- y -->
     <g transform="translate(14.798438 276.9) rotate(-90) scale(0.1 -0.1)">
      <defs>
       <path id="WenQuanYiMicroHei-79" d="M 31 3431 
L 622 3431 
L 1294 1516 
Q 1338 1391 1383 1253 
Q 1428 1116 1467 978 
Q 1506 841 1534 712 
Q 1563 584 1575 475 
L 1594 475 
Q 1609 553 1643 687 
Q 1678 822 1720 973 
Q 1763 1125 1808 1272 
Q 1853 1419 1888 1522 
L 2509 3431 
L 3097 3431 
L 1741 -447 
Q 1653 -700 1551 -901 
Q 1450 -1103 1315 -1243 
Q 1181 -1384 1000 -1461 
Q 819 -1538 569 -1538 
Q 406 -1538 287 -1520 
Q 169 -1503 84 -1484 
L 84 -1031 
Q 150 -1047 250 -1058 
Q 350 -1069 459 -1069 
Q 609 -1069 718 -1033 
Q 828 -997 909 -928 
Q 991 -859 1048 -759 
Q 1106 -659 1153 -531 
L 1331 -31 
L 31 3431 
z
" transform="scale(0.015625)"/>
      </defs>
      <use xlink:href="#WenQuanYiMicroHei-79"/>
     </g>
    </g>
   </g>
   <g id="line2d_25">
    <path d="M 36.926562 383.179432 
L 49.317649 381.998506 
L 61.020342 380.660221 
L 71.346248 379.26548 
L 80.98376 377.751531 
L 89.932878 376.133507 
L 98.193603 374.432295 
L 106.454327 372.504417 
L 114.026658 370.512352 
L 121.598989 368.278276 
L 128.482926 366.012614 
L 135.366863 363.498049 
L 141.562407 360.99959 
L 147.75795 358.255407 
L 153.2651 355.590361 
L 158.772249 352.693559 
L 164.279399 349.544846 
L 169.786549 346.122318 
L 174.605305 342.884321 
L 179.424061 339.401238 
L 184.242817 335.654519 
L 189.061573 331.624208 
L 193.880329 327.288841 
L 198.699085 322.625327 
L 203.517841 317.608829 
L 207.648203 313.007829 
L 211.778565 308.109895 
L 215.908928 302.895866 
L 220.03929 297.345341 
L 224.169652 291.436604 
L 228.300014 285.146537 
L 232.430377 278.45053 
L 236.560739 271.322386 
L 240.691101 263.734215 
L 244.821463 255.65633 
L 248.951826 247.057125 
L 253.082188 237.902957 
L 257.21255 228.15801 
L 261.342912 217.784157 
L 265.473275 206.740811 
L 269.603637 194.984765 
L 273.733999 182.470023 
L 277.864362 169.147623 
L 281.994724 154.965439 
L 286.125086 139.867986 
L 290.255448 123.796195 
L 294.385811 106.687184 
L 298.516173 88.474016 
L 302.646535 69.085432 
L 306.776897 48.445574 
L 310.90726 26.47369 
L 311.595653 22.67625 
L 311.595653 22.67625 
" clip-path="url(#p869eb754e5)" style="fill: none; stroke: #0000ff; stroke-width: 2; stroke-linecap: square"/>
   </g>
   <g id="line2d_26">
    <path d="M 177.428582 565.439375 
L 177.469023 564.458856 
L 178.385734 547.858433 
L 179.302445 534.603676 
L 180.219156 523.569608 
L 181.135866 514.117814 
L 182.969288 498.504604 
L 184.80271 485.885803 
L 186.636132 475.295608 
L 188.469554 466.171218 
L 190.302976 458.155762 
L 192.136398 451.008667 
L 193.96982 444.560039 
L 195.803242 438.685431 
L 198.553375 430.750427 
L 201.303508 423.667349 
L 204.05364 417.270874 
L 206.803773 411.439574 
L 209.553906 406.081631 
L 212.304039 401.125933 
L 215.970883 395.048553 
L 219.637727 389.483593 
L 223.304571 384.351322 
L 226.971414 379.589282 
L 230.638258 375.147632 
L 235.221813 369.985271 
L 239.805368 365.197337 
L 244.388923 360.733171 
L 248.972477 356.551745 
L 254.472743 351.860226 
L 259.973009 347.479986 
L 265.473275 343.372276 
L 271.890251 338.882096 
L 278.307228 334.677856 
L 284.724205 330.725307 
L 292.057893 326.480037 
L 299.39158 322.491246 
L 307.641979 318.274224 
L 315.892377 314.31038 
L 325.059487 310.16832 
L 334.226597 306.270776 
L 344.310417 302.233486 
L 354.394238 298.428843 
L 365.394769 294.513969 
L 377.312012 290.519385 
L 389.229254 286.752689 
L 402.063208 282.922972 
L 415.813872 279.052091 
L 430.481247 275.158862 
L 446.065334 271.259293 
L 462.566131 267.366862 
L 479.983639 263.492796 
L 498.317858 259.646348 
L 517.568789 255.835056 
L 537.73643 252.064981 
L 540.486563 251.567159 
L 540.486563 251.567159 
" clip-path="url(#p869eb754e5)" style="fill: none; stroke: #ff0000; stroke-width: 2; stroke-linecap: square"/>
   </g>
   <g id="line2d_27">
    <path d="M 36.926562 526.23625 
L 39.700998 523.461815 
L 42.475433 520.687379 
L 45.249868 517.912944 
L 48.024304 515.138509 
L 50.798739 512.364074 
L 53.573174 509.589638 
L 56.347609 506.815203 
L 59.122045 504.040768 
L 61.89648 501.266333 
L 64.670915 498.491897 
L 67.44535 495.717462 
L 70.219786 492.943027 
L 72.994221 490.168592 
L 75.768656 487.394156 
L 78.543091 484.619721 
L 81.317527 481.845286 
L 84.091962 479.070851 
L 86.866397 476.296415 
L 89.640832 473.52198 
L 92.415268 470.747545 
L 95.189703 467.97311 
L 97.964138 465.198674 
L 100.738574 462.424239 
L 103.513009 459.649804 
L 106.287444 456.875368 
L 109.061879 454.100933 
L 111.836315 451.326498 
L 114.61075 448.552063 
L 117.385185 445.777627 
L 120.15962 443.003192 
L 122.934056 440.228757 
L 125.708491 437.454322 
L 128.482926 434.679886 
L 131.257361 431.905451 
L 134.031797 429.131016 
L 136.806232 426.356581 
L 139.580667 423.582145 
L 142.355102 420.80771 
L 145.129538 418.033275 
L 147.903973 415.25884 
L 150.678408 412.484404 
L 153.452843 409.709969 
L 156.227279 406.935534 
L 159.001714 404.161098 
L 161.776149 401.386663 
L 164.550585 398.612228 
L 167.32502 395.837793 
L 170.099455 393.063357 
L 172.87389 390.288922 
L 175.648326 387.514487 
L 178.422761 384.740052 
L 181.197196 381.965616 
L 183.971631 379.191181 
L 186.746067 376.416746 
L 189.520502 373.642311 
L 192.294937 370.867875 
L 195.069372 368.09344 
L 197.843808 365.319005 
L 200.618243 362.54457 
L 203.392678 359.770134 
L 206.167113 356.995699 
L 208.941549 354.221264 
L 211.715984 351.446829 
L 214.490419 348.672393 
L 217.264855 345.897958 
L 220.03929 343.123523 
L 222.813725 340.349087 
L 225.58816 337.574652 
L 228.362596 334.800217 
L 231.137031 332.025782 
L 233.911466 329.251346 
L 236.685901 326.476911 
L 239.460337 323.702476 
L 242.234772 320.928041 
L 245.009207 318.153605 
L 247.783642 315.37917 
L 250.558078 312.604735 
L 253.332513 309.8303 
L 256.106948 307.055864 
L 258.881383 304.281429 
L 261.655819 301.506994 
L 264.430254 298.732559 
L 267.204689 295.958123 
L 269.979124 293.183688 
L 272.75356 290.409253 
L 275.527995 287.634817 
L 278.30243 284.860382 
L 281.076866 282.085947 
L 283.851301 279.311512 
L 286.625736 276.537076 
L 289.400171 273.762641 
L 292.174607 270.988206 
L 294.949042 268.213771 
L 297.723477 265.439335 
L 300.497912 262.6649 
L 303.272348 259.890465 
L 306.046783 257.11603 
L 308.821218 254.341594 
L 311.595653 251.567159 
" clip-path="url(#p869eb754e5)" style="fill: none; stroke-dasharray: 5.55,2.4; stroke-dashoffset: 0; stroke: #008000; stroke-width: 1.5"/>
   </g>
   <g id="line2d_28">
    <path d="M 36.926563 388.901705 
L 540.486563 388.901705 
" clip-path="url(#p869eb754e5)" style="fill: none; stroke: #000000; stroke-width: 0.5; stroke-linecap: square"/>
   </g>
   <g id="line2d_29">
    <path d="M 174.261108 526.23625 
L 174.261108 22.67625 
" clip-path="url(#p869eb754e5)" style="fill: none; stroke: #000000; stroke-width: 0.5; stroke-linecap: square"/>
   </g>
   <g id="patch_3">
    <path d="M 36.926563 526.23625 
L 36.926563 22.67625 
" style="fill: none; stroke: #000000; stroke-width: 0.8; stroke-linejoin: miter; stroke-linecap: square"/>
   </g>
   <g id="patch_4">
    <path d="M 540.486563 526.23625 
L 540.486563 22.67625 
" style="fill: none; stroke: #000000; stroke-width: 0.8; stroke-linejoin: miter; stroke-linecap: square"/>
   </g>
   <g id="patch_5">
    <path d="M 36.926562 526.23625 
L 540.486563 526.23625 
" style="fill: none; stroke: #000000; stroke-width: 0.8; stroke-linejoin: miter; stroke-linecap: square"/>
   </g>
   <g id="patch_6">
    <path d="M 36.926562 22.67625 
L 540.486563 22.67625 
" style="fill: none; stroke: #000000; stroke-width: 0.8; stroke-linejoin: miter; stroke-linecap: square"/>
   </g>
   <g id="text_15">
    <!-- 指数函数与对数函数关于 $y = x$ 对称 -->
    <g transform="translate(193.066563 16.67625) scale(0.12 -0.12)">
     <defs>
      <path id="WenQuanYiMicroHei-6307" d="M 325 4125 
L 1250 4125 
L 1250 5175 
L 1750 5175 
L 1750 4125 
L 2525 4125 
L 2525 3650 
L 1750 3650 
L 1750 2350 
L 2525 2675 
L 2625 2225 
L 1750 1825 
L 1750 100 
Q 1750 -275 1625 -425 
Q 1500 -575 1200 -575 
Q 800 -575 450 -500 
L 350 25 
Q 725 -75 1125 -75 
Q 1250 -75 1250 225 
L 1250 1625 
L 425 1325 
L 250 1850 
Q 775 2000 1250 2175 
L 1250 3650 
L 325 3650 
L 325 4125 
z
M 2850 5175 
L 3350 5175 
L 3350 4400 
Q 4500 4650 5500 4975 
L 5825 4550 
Q 4675 4175 3350 3950 
L 3350 3550 
Q 3350 3425 3412 3387 
Q 3475 3350 3775 3350 
Q 4875 3350 5100 3400 
Q 5325 3450 5400 3625 
Q 5450 3700 5500 4175 
L 6000 4025 
Q 5950 3250 5612 3062 
Q 5275 2875 3775 2875 
Q 3200 2875 3025 2975 
Q 2850 3075 2850 3375 
L 2850 5175 
z
M 5700 2475 
L 5700 -575 
L 5225 -575 
L 5225 -225 
L 3375 -225 
L 3375 -575 
L 2900 -575 
L 2900 2475 
L 5700 2475 
z
M 3375 1350 
L 5225 1350 
L 5225 2025 
L 3375 2025 
L 3375 1350 
z
M 3375 225 
L 5225 225 
L 5225 900 
L 3375 900 
L 3375 225 
z
" transform="scale(0.015625)"/>
      <path id="WenQuanYiMicroHei-6570" d="M 4275 4125 
L 5950 4125 
L 5950 3650 
L 5675 3650 
Q 5525 1900 4975 1000 
Q 5425 400 6125 -100 
L 5750 -575 
Q 5175 -100 4675 550 
Q 4175 -125 3450 -600 
L 3100 -150 
Q 3850 300 4350 1025 
Q 4000 1625 3700 2375 
L 3500 1950 
L 3100 2250 
Q 3725 3575 4000 5175 
L 4500 5025 
Q 4400 4550 4275 4125 
z
M 5175 3650 
L 4150 3650 
Q 4125 3525 3975 3075 
Q 4275 2175 4650 1525 
Q 4975 2225 5125 3225 
L 5125 3250 
L 5175 3650 
z
M 450 4100 
L 1750 4100 
L 1750 5150 
L 2200 5150 
L 2200 4100 
L 3400 4100 
L 3400 3675 
L 2200 3675 
L 2200 2525 
L 1750 2525 
L 1750 3300 
Q 1325 2700 750 2325 
L 425 2725 
Q 1050 3050 1525 3675 
L 450 3675 
L 450 4100 
z
M 1050 5050 
Q 1250 4750 1375 4375 
L 975 4175 
Q 850 4550 675 4875 
L 1050 5050 
z
M 2900 5050 
L 3275 4875 
Q 3050 4450 2800 4225 
L 2475 4525 
Q 2725 4750 2900 5050 
z
M 2725 3450 
Q 3000 3150 3175 2825 
L 2800 2600 
Q 2650 2950 2375 3250 
L 2725 3450 
z
M 425 2000 
L 1400 2000 
Q 1500 2200 1575 2400 
L 2050 2350 
L 1900 2000 
L 3025 2000 
L 3025 1575 
Q 2725 925 2300 475 
Q 2725 225 3075 0 
L 2775 -450 
Q 2450 -175 1925 125 
Q 1400 -325 525 -600 
L 375 -175 
Q 1025 25 1500 350 
Q 1100 575 625 800 
Q 925 1200 1150 1575 
L 425 1575 
L 425 2000 
z
M 1675 1575 
Q 1500 1250 1300 1000 
L 1900 700 
Q 2275 1100 2500 1575 
L 1675 1575 
z
" transform="scale(0.015625)"/>
      <path id="WenQuanYiMicroHei-51fd" d="M 5425 3550 
L 5925 3550 
L 5925 -550 
L 5425 -550 
L 5425 -200 
L 475 -200 
L 475 3575 
L 975 3575 
L 975 275 
L 5425 275 
L 5425 3550 
z
M 1250 4925 
L 5200 4925 
L 5200 4400 
Q 4450 3925 3550 3500 
L 3550 2850 
Q 4275 3100 4800 3525 
L 5100 3125 
Q 4450 2675 3550 2325 
L 3550 2225 
Q 4500 1725 5175 1250 
L 4875 850 
Q 4225 1350 3550 1725 
L 3550 900 
Q 3550 675 3412 550 
Q 3275 425 3025 425 
Q 2725 425 2425 450 
L 2375 950 
Q 2600 900 2900 900 
Q 3050 900 3050 1000 
L 3050 1975 
Q 2150 1300 1450 950 
L 1200 1450 
Q 2350 1975 3050 2525 
L 3050 3775 
Q 3775 4125 4350 4450 
L 1250 4450 
L 1250 4925 
z
M 1625 3575 
Q 2225 3200 2700 2700 
L 2375 2300 
Q 1875 2850 1325 3250 
L 1625 3575 
z
" transform="scale(0.015625)"/>
      <path id="WenQuanYiMicroHei-4e0e" d="M 1800 3775 
L 1800 2600 
L 5575 2600 
Q 5500 375 5275 -75 
Q 5050 -525 4475 -525 
Q 4125 -525 3375 -425 
L 3275 50 
Q 4100 -50 4425 -50 
Q 4750 -50 4850 225 
Q 4975 650 5075 2125 
L 1300 2125 
L 1300 5175 
L 1800 5175 
L 1800 4250 
L 5850 4250 
L 5850 3775 
L 1800 3775 
z
M 500 1300 
L 4350 1300 
L 4350 825 
L 500 825 
L 500 1300 
z
" transform="scale(0.015625)"/>
      <path id="WenQuanYiMicroHei-5bf9" d="M 400 4875 
L 2475 4875 
Q 2375 3200 2025 1975 
Q 2375 1375 2675 725 
L 2275 350 
Q 2050 850 1800 1325 
Q 1350 225 625 -425 
L 325 0 
Q 1100 675 1475 1925 
Q 975 2775 425 3575 
L 800 3850 
Q 1250 3225 1675 2575 
Q 1850 3225 1925 4375 
L 400 4375 
L 400 4875 
z
M 2750 3875 
L 4800 3875 
L 4800 5175 
L 5300 5175 
L 5300 3875 
L 6050 3875 
L 6050 3400 
L 5300 3400 
L 5300 125 
Q 5300 -250 5162 -400 
Q 5025 -550 4675 -550 
Q 4275 -550 3900 -450 
L 3800 75 
Q 4200 -50 4600 -50 
Q 4700 -50 4750 0 
Q 4800 50 4800 250 
L 4800 3400 
L 2750 3400 
L 2750 3875 
z
M 3475 2975 
Q 3950 2200 4275 1300 
L 3775 1075 
Q 3475 2025 3025 2775 
L 3475 2975 
z
" transform="scale(0.015625)"/>
      <path id="WenQuanYiMicroHei-5173" d="M 3250 1500 
Q 2875 50 750 -600 
L 375 -125 
Q 2500 475 2775 1825 
L 600 1825 
L 600 2300 
L 2850 2300 
L 2850 2475 
Q 2875 2525 2875 3450 
L 900 3450 
L 900 3925 
L 3700 3925 
Q 4100 4550 4300 5200 
L 4850 5000 
Q 4625 4425 4275 3925 
L 5575 3925 
L 5575 3450 
L 3375 3450 
Q 3375 2325 3350 2300 
L 5800 2300 
L 5800 1825 
L 3600 1825 
Q 4250 475 6100 0 
L 5775 -600 
Q 4025 -25 3250 1500 
z
M 1975 5150 
Q 2325 4725 2525 4275 
L 2100 4025 
Q 1900 4475 1575 4900 
L 1975 5150 
z
" transform="scale(0.015625)"/>
      <path id="WenQuanYiMicroHei-4e8e" d="M 825 4800 
L 5550 4800 
L 5550 4325 
L 3525 4325 
L 3525 2700 
L 6000 2700 
L 6000 2225 
L 3525 2225 
L 3525 75 
Q 3525 -275 3387 -425 
Q 3250 -575 2800 -575 
Q 2375 -575 1975 -500 
L 1875 -25 
Q 2300 -100 2725 -100 
Q 2875 -100 2950 -50 
Q 3025 0 3025 200 
L 3025 2225 
L 400 2225 
L 400 2700 
L 3025 2700 
L 3025 4325 
L 825 4325 
L 825 4800 
z
" transform="scale(0.015625)"/>
      <path id="WenQuanYiMicroHei-20" transform="scale(0.015625)"/>
      <path id="DejaVuSans-Oblique-79" d="M 1588 -325 
Q 1188 -997 936 -1164 
Q 684 -1331 294 -1331 
L -159 -1331 
L -63 -850 
L 269 -850 
Q 509 -850 678 -719 
Q 847 -588 1056 -206 
L 1234 128 
L 459 3500 
L 1069 3500 
L 1650 819 
L 3256 3500 
L 3859 3500 
L 1588 -325 
z
" transform="scale(0.015625)"/>
      <path id="DejaVuSans-3d" d="M 678 2906 
L 4684 2906 
L 4684 2381 
L 678 2381 
L 678 2906 
z
M 678 1631 
L 4684 1631 
L 4684 1100 
L 678 1100 
L 678 1631 
z
" transform="scale(0.015625)"/>
      <path id="DejaVuSans-Oblique-78" d="M 3841 3500 
L 2234 1784 
L 3219 0 
L 2559 0 
L 1819 1388 
L 531 0 
L -166 0 
L 1556 1844 
L 641 3500 
L 1300 3500 
L 1972 2234 
L 3144 3500 
L 3841 3500 
z
" transform="scale(0.015625)"/>
      <path id="WenQuanYiMicroHei-79f0" d="M 3575 5175 
L 4025 5025 
Q 3925 4600 3775 4200 
L 5950 4200 
L 5950 3775 
Q 5950 3750 5812 3437 
Q 5675 3125 5525 2875 
L 5125 3150 
Q 5325 3475 5425 3750 
L 3625 3750 
L 3400 3175 
Q 3275 2900 3025 2525 
L 2625 2850 
Q 3300 3950 3575 5175 
z
M 4150 3300 
L 4650 3300 
L 4650 25 
Q 4650 -325 4537 -462 
Q 4425 -600 4075 -600 
Q 3725 -600 3400 -550 
L 3300 -50 
Q 3700 -125 4075 -125 
Q 4150 -125 4150 100 
L 4150 3300 
z
M 5500 2475 
Q 5800 1450 5900 400 
L 5400 250 
Q 5325 1375 5025 2350 
L 5500 2475 
z
M 3250 2475 
L 3700 2350 
Q 3575 1250 3125 325 
L 2650 575 
Q 3125 1525 3250 2475 
z
M 325 3500 
L 1300 3500 
L 1300 4325 
Q 925 4225 525 4150 
L 350 4600 
Q 1475 4800 2400 5200 
L 2625 4775 
L 1775 4475 
L 1775 3500 
L 2675 3500 
L 2675 3050 
L 1775 3050 
L 1775 2925 
Q 2275 2400 2650 1875 
L 2325 1425 
Q 2050 1900 1775 2275 
L 1775 -575 
L 1300 -575 
L 1300 1925 
Q 1000 1175 525 550 
L 175 975 
Q 875 1875 1225 3050 
L 325 3050 
L 325 3500 
z
" transform="scale(0.015625)"/>
     </defs>
     <use xlink:href="#WenQuanYiMicroHei-6307" transform="translate(0 0.75)"/>
     <use xlink:href="#WenQuanYiMicroHei-6570" transform="translate(100 0.75)"/>
     <use xlink:href="#WenQuanYiMicroHei-51fd" transform="translate(200 0.75)"/>
     <use xlink:href="#WenQuanYiMicroHei-6570" transform="translate(300 0.75)"/>
     <use xlink:href="#WenQuanYiMicroHei-4e0e" transform="translate(400 0.75)"/>
     <use xlink:href="#WenQuanYiMicroHei-5bf9" transform="translate(500 0.75)"/>
     <use xlink:href="#WenQuanYiMicroHei-6570" transform="translate(600 0.75)"/>
     <use xlink:href="#WenQuanYiMicroHei-51fd" transform="translate(700 0.75)"/>
     <use xlink:href="#WenQuanYiMicroHei-6570" transform="translate(800 0.75)"/>
     <use xlink:href="#WenQuanYiMicroHei-5173" transform="translate(900 0.75)"/>
     <use xlink:href="#WenQuanYiMicroHei-4e8e" transform="translate(1000 0.75)"/>
     <use xlink:href="#WenQuanYiMicroHei-20" transform="translate(1100 0.75)"/>
     <use xlink:href="#DejaVuSans-Oblique-79" transform="translate(1125.976562 0.75)"/>
     <use xlink:href="#DejaVuSans-3d" transform="translate(1204.638672 0.75)"/>
     <use xlink:href="#DejaVuSans-Oblique-78" transform="translate(1307.910156 0.75)"/>
     <use xlink:href="#WenQuanYiMicroHei-20" transform="translate(1367.089844 0.75)"/>
     <use xlink:href="#WenQuanYiMicroHei-5bf9" transform="translate(1393.066406 0.75)"/>
     <use xlink:href="#WenQuanYiMicroHei-79f0" transform="translate(1493.066406 0.75)"/>
    </g>
   </g>
   <g id="legend_1">
    <g id="patch_7">
     <path d="M 438.686563 75.979375 
L 533.486563 75.979375 
Q 535.486563 75.979375 535.486563 73.979375 
L 535.486563 29.67625 
Q 535.486563 27.67625 533.486563 27.67625 
L 438.686563 27.67625 
Q 436.686563 27.67625 436.686563 29.67625 
L 436.686563 73.979375 
Q 436.686563 75.979375 438.686563 75.979375 
z
" style="fill: #ffffff; opacity: 0.8; stroke: #cccccc; stroke-linejoin: miter"/>
    </g>
    <g id="line2d_30">
     <path d="M 440.686563 35.774688 
L 450.686563 35.774688 
L 460.686563 35.774688 
" style="fill: none; stroke: #0000ff; stroke-width: 2; stroke-linecap: square"/>
    </g>
    <g id="text_16">
     <!-- $y = 2^x$ -->
     <g transform="translate(468.686563 39.274688) scale(0.1 -0.1)">
      <defs>
       <path id="DejaVuSans-32" d="M 1228 531 
L 3431 531 
L 3431 0 
L 469 0 
L 469 531 
Q 828 903 1448 1529 
Q 2069 2156 2228 2338 
Q 2531 2678 2651 2914 
Q 2772 3150 2772 3378 
Q 2772 3750 2511 3984 
Q 2250 4219 1831 4219 
Q 1534 4219 1204 4116 
Q 875 4013 500 3803 
L 500 4441 
Q 881 4594 1212 4672 
Q 1544 4750 1819 4750 
Q 2544 4750 2975 4387 
Q 3406 4025 3406 3419 
Q 3406 3131 3298 2873 
Q 3191 2616 2906 2266 
Q 2828 2175 2409 1742 
Q 1991 1309 1228 531 
z
" transform="scale(0.015625)"/>
      </defs>
      <use xlink:href="#DejaVuSans-Oblique-79" transform="translate(0 0.4375)"/>
      <use xlink:href="#DejaVuSans-3d" transform="translate(78.662109 0.4375)"/>
      <use xlink:href="#DejaVuSans-32" transform="translate(181.933594 0.4375)"/>
      <use xlink:href="#DejaVuSans-Oblique-78" transform="translate(246.513672 38.71875) scale(0.7)"/>
     </g>
    </g>
    <g id="line2d_31">
     <path d="M 440.686563 50.77625 
L 450.686563 50.77625 
L 460.686563 50.77625 
" style="fill: none; stroke: #ff0000; stroke-width: 2; stroke-linecap: square"/>
    </g>
    <g id="text_17">
     <!-- $y = \log_2 x$ -->
     <g transform="translate(468.686563 54.27625) scale(0.1 -0.1)">
      <defs>
       <path id="DejaVuSans-6c" d="M 603 4863 
L 1178 4863 
L 1178 0 
L 603 0 
L 603 4863 
z
" transform="scale(0.015625)"/>
       <path id="DejaVuSans-6f" d="M 1959 3097 
Q 1497 3097 1228 2736 
Q 959 2375 959 1747 
Q 959 1119 1226 758 
Q 1494 397 1959 397 
Q 2419 397 2687 759 
Q 2956 1122 2956 1747 
Q 2956 2369 2687 2733 
Q 2419 3097 1959 3097 
z
M 1959 3584 
Q 2709 3584 3137 3096 
Q 3566 2609 3566 1747 
Q 3566 888 3137 398 
Q 2709 -91 1959 -91 
Q 1206 -91 779 398 
Q 353 888 353 1747 
Q 353 2609 779 3096 
Q 1206 3584 1959 3584 
z
" transform="scale(0.015625)"/>
       <path id="DejaVuSans-67" d="M 2906 1791 
Q 2906 2416 2648 2759 
Q 2391 3103 1925 3103 
Q 1463 3103 1205 2759 
Q 947 2416 947 1791 
Q 947 1169 1205 825 
Q 1463 481 1925 481 
Q 2391 481 2648 825 
Q 2906 1169 2906 1791 
z
M 3481 434 
Q 3481 -459 3084 -895 
Q 2688 -1331 1869 -1331 
Q 1566 -1331 1297 -1286 
Q 1028 -1241 775 -1147 
L 775 -588 
Q 1028 -725 1275 -790 
Q 1522 -856 1778 -856 
Q 2344 -856 2625 -561 
Q 2906 -266 2906 331 
L 2906 616 
Q 2728 306 2450 153 
Q 2172 0 1784 0 
Q 1141 0 747 490 
Q 353 981 353 1791 
Q 353 2603 747 3093 
Q 1141 3584 1784 3584 
Q 2172 3584 2450 3431 
Q 2728 3278 2906 2969 
L 2906 3500 
L 3481 3500 
L 3481 434 
z
" transform="scale(0.015625)"/>
      </defs>
      <use xlink:href="#DejaVuSans-Oblique-79" transform="translate(0 0.015625)"/>
      <use xlink:href="#DejaVuSans-3d" transform="translate(78.662109 0.015625)"/>
      <use xlink:href="#DejaVuSans-6c" transform="translate(181.933594 0.015625)"/>
      <use xlink:href="#DejaVuSans-6f" transform="translate(209.716797 0.015625)"/>
      <use xlink:href="#DejaVuSans-67" transform="translate(270.898438 0.015625)"/>
      <use xlink:href="#DejaVuSans-32" transform="translate(335.332031 -16.390625) scale(0.7)"/>
      <use xlink:href="#DejaVuSans-Oblique-78" transform="translate(398.838215 0.015625)"/>
     </g>
    </g>
    <g id="line2d_32">
     <path d="M 440.686563 66.07625 
L 450.686563 66.07625 
L 460.686563 66.07625 
" style="fill: none; stroke-dasharray: 5.55,2.4; stroke-dashoffset: 0; stroke: #008000; stroke-width: 1.5"/>
    </g>
    <g id="text_18">
     <!-- $y = x$ (对称轴) -->
     <g transform="translate(468.686563 69.57625) scale(0.1 -0.1)">
      <defs>
       <path id="WenQuanYiMicroHei-28" d="M 256 1753 
Q 256 2144 312 2523 
Q 369 2903 484 3261 
Q 600 3619 776 3948 
Q 953 4278 1197 4569 
L 1734 4569 
Q 1297 3966 1070 3244 
Q 844 2522 844 1759 
Q 844 1388 901 1019 
Q 959 650 1070 297 
Q 1181 -56 1347 -387 
Q 1513 -719 1728 -1013 
L 1197 -1013 
Q 953 -731 776 -409 
Q 600 -88 484 264 
Q 369 616 312 991 
Q 256 1366 256 1753 
z
" transform="scale(0.015625)"/>
       <path id="WenQuanYiMicroHei-8f74" d="M 325 4375 
L 1125 4375 
Q 1250 4750 1350 5175 
L 1800 5075 
Q 1725 4700 1625 4375 
L 2625 4375 
L 2625 3900 
L 1475 3900 
Q 1225 3075 875 2475 
L 1575 2475 
L 1575 3275 
L 2025 3275 
L 2025 2475 
L 2650 2475 
L 2650 2050 
L 2025 2050 
L 2025 1275 
L 2600 1425 
L 2675 975 
Q 2375 875 2025 800 
L 2025 -575 
L 1575 -575 
L 1575 700 
L 425 500 
L 325 1000 
Q 1000 1100 1575 1200 
L 1575 2050 
L 425 2050 
L 325 2475 
Q 700 3100 975 3900 
L 325 3900 
L 325 4375 
z
M 5875 4025 
L 5875 -575 
L 5400 -575 
L 5400 -100 
L 3350 -100 
L 3350 -575 
L 2900 -575 
L 2900 4025 
L 4150 4025 
L 4150 5175 
L 4625 5175 
L 4625 4025 
L 5875 4025 
z
M 3350 2200 
L 4150 2200 
L 4150 3575 
L 3350 3575 
L 3350 2200 
z
M 4625 2200 
L 5400 2200 
L 5400 3575 
L 4625 3575 
L 4625 2200 
z
M 3350 350 
L 4150 350 
L 4150 1750 
L 3350 1750 
L 3350 350 
z
M 4625 350 
L 5400 350 
L 5400 1750 
L 4625 1750 
L 4625 350 
z
" transform="scale(0.015625)"/>
       <path id="WenQuanYiMicroHei-29" d="M 1672 1753 
Q 1672 1366 1615 991 
Q 1559 616 1442 264 
Q 1325 -88 1148 -409 
Q 972 -731 728 -1013 
L 197 -1013 
Q 413 -719 578 -387 
Q 744 -56 856 297 
Q 969 650 1025 1019 
Q 1081 1388 1081 1759 
Q 1081 2522 856 3244 
Q 631 3966 191 4569 
L 728 4569 
Q 972 4278 1148 3948 
Q 1325 3619 1442 3261 
Q 1559 2903 1615 2523 
Q 1672 2144 1672 1753 
z
" transform="scale(0.015625)"/>
      </defs>
      <use xlink:href="#DejaVuSans-Oblique-79" transform="translate(0 0.75)"/>
      <use xlink:href="#DejaVuSans-3d" transform="translate(78.662109 0.75)"/>
      <use xlink:href="#DejaVuSans-Oblique-78" transform="translate(181.933594 0.75)"/>
      <use xlink:href="#WenQuanYiMicroHei-20" transform="translate(241.113281 0.75)"/>
      <use xlink:href="#WenQuanYiMicroHei-28" transform="translate(267.089844 0.75)"/>
      <use xlink:href="#WenQuanYiMicroHei-5bf9" transform="translate(297.167969 0.75)"/>
      <use xlink:href="#WenQuanYiMicroHei-79f0" transform="translate(397.167969 0.75)"/>
      <use xlink:href="#WenQuanYiMicroHei-8f74" transform="translate(497.167969 0.75)"/>
      <use xlink:href="#WenQuanYiMicroHei-29" transform="translate(597.167969 0.75)"/>
     </g>
    </g>
   </g>
  </g>
 </g>
 <defs>
  <clipPath id="p869eb754e5">
   <rect x="36.926563" y="22.67625" width="503.56" height="503.56"/>
  </clipPath>
 </defs>
</svg>
